<?xml version="1.0" encoding="utf-8" standalone="no"?>
<!DOCTYPE svg PUBLIC "-//W3C//DTD SVG 1.1//EN"
  "http://www.w3.org/Graphics/SVG/1.1/DTD/svg11.dtd">
<svg xmlns:xlink="http://www.w3.org/1999/xlink" width="490.59375pt" height="150.07125pt" viewBox="0 0 490.59375 150.07125" xmlns="http://www.w3.org/2000/svg" version="1.1">
 <metadata>
  <rdf:RDF xmlns:dc="http://purl.org/dc/elements/1.1/" xmlns:cc="http://creativecommons.org/ns#" xmlns:rdf="http://www.w3.org/1999/02/22-rdf-syntax-ns#">
   <cc:Work>
    <dc:type rdf:resource="http://purl.org/dc/dcmitype/StillImage"/>
    <dc:date>2024-05-17T08:58:00.607622</dc:date>
    <dc:format>image/svg+xml</dc:format>
    <dc:creator>
     <cc:Agent>
      <dc:title>Matplotlib v3.8.4, https://matplotlib.org/</dc:title>
     </cc:Agent>
    </dc:creator>
   </cc:Work>
  </rdf:RDF>
 </metadata>
 <defs>
  <style type="text/css">*{stroke-linejoin: round; stroke-linecap: butt}</style>
 </defs>
 <g id="figure_1">
  <g id="patch_1">
   <path d="M 0 150.07125 
L 490.59375 150.07125 
L 490.59375 0 
L 0 0 
L 0 150.07125 
z
" style="fill: none"/>
  </g>
  <g id="axes_1">
   <g id="patch_2">
    <path d="M 30.225 121.18375 
L 476.625 121.18375 
L 476.625 10.30375 
L 30.225 10.30375 
L 30.225 121.18375 
z
" style="fill: none"/>
   </g>
   <g id="matplotlib.axis_1">
    <g id="xtick_1">
     <g id="line2d_1">
      <defs>
       <path id="mfe4d27e457" d="M 0 0 
L 0 3 
" style="stroke: #cecece; stroke-width: 0.75"/>
      </defs>
      <g>
       <use xlink:href="#mfe4d27e457" x="30.225" y="126.18375" style="fill: #cecece; stroke: #cecece; stroke-width: 0.75"/>
      </g>
     </g>
     <g id="text_1">
      <!-- 70 -->
      <g style="fill: #808080" transform="translate(25.7125 141.39125) scale(0.08 -0.08)">
       <defs>
        <path id="Ubuntu-37" d="M 1043 0 
Q 1082 512 1226 1078 
Q 1370 1645 1581 2179 
Q 1792 2714 2045 3171 
Q 2298 3629 2541 3917 
L 384 3917 
L 384 4435 
L 3206 4435 
L 3206 3942 
Q 2995 3699 2739 3273 
Q 2483 2848 2256 2320 
Q 2029 1792 1865 1193 
Q 1702 595 1664 0 
L 1043 0 
z
" transform="scale(0.015625)"/>
        <path id="Ubuntu-30" d="M 320 2221 
Q 320 3334 713 3936 
Q 1107 4538 1805 4538 
Q 2502 4538 2896 3936 
Q 3290 3334 3290 2221 
Q 3290 1107 2896 505 
Q 2502 -96 1805 -96 
Q 1107 -96 713 505 
Q 320 1107 320 2221 
z
M 2662 2221 
Q 2662 2586 2620 2912 
Q 2579 3238 2480 3481 
Q 2381 3725 2214 3869 
Q 2048 4013 1805 4013 
Q 1562 4013 1395 3869 
Q 1229 3725 1129 3481 
Q 1030 3238 988 2912 
Q 947 2586 947 2221 
Q 947 1856 988 1529 
Q 1030 1203 1129 960 
Q 1229 717 1395 573 
Q 1562 429 1805 429 
Q 2048 429 2214 573 
Q 2381 717 2480 960 
Q 2579 1203 2620 1529 
Q 2662 1856 2662 2221 
z
" transform="scale(0.015625)"/>
       </defs>
       <use xlink:href="#Ubuntu-37"/>
       <use xlink:href="#Ubuntu-30" x="56.399994"/>
      </g>
     </g>
    </g>
    <g id="xtick_2">
     <g id="line2d_2">
      <g>
       <use xlink:href="#mfe4d27e457" x="119.505" y="126.18375" style="fill: #cecece; stroke: #cecece; stroke-width: 0.75"/>
      </g>
     </g>
     <g id="text_2">
      <!-- 80 -->
      <g style="fill: #808080" transform="translate(114.9925 141.39125) scale(0.08 -0.08)">
       <defs>
        <path id="Ubuntu-38" d="M 3258 1152 
Q 3258 883 3165 656 
Q 3072 429 2889 259 
Q 2707 90 2432 -3 
Q 2157 -96 1798 -96 
Q 1382 -96 1104 22 
Q 826 141 659 320 
Q 493 499 422 713 
Q 352 928 352 1120 
Q 352 1306 413 1475 
Q 474 1645 573 1792 
Q 672 1939 803 2057 
Q 934 2176 1082 2266 
Q 454 2624 454 3322 
Q 454 3565 550 3785 
Q 646 4006 822 4172 
Q 998 4339 1248 4438 
Q 1498 4538 1805 4538 
Q 2163 4538 2419 4429 
Q 2675 4320 2838 4150 
Q 3002 3981 3075 3776 
Q 3149 3571 3149 3379 
Q 3149 3194 3094 3030 
Q 3040 2867 2947 2726 
Q 2854 2586 2736 2477 
Q 2618 2368 2490 2285 
Q 3245 1926 3258 1152 
z
M 954 1114 
Q 954 998 995 873 
Q 1037 749 1139 643 
Q 1242 538 1402 467 
Q 1562 397 1805 397 
Q 2022 397 2185 461 
Q 2349 525 2451 624 
Q 2554 723 2605 851 
Q 2656 979 2656 1114 
Q 2656 1318 2579 1472 
Q 2502 1626 2358 1741 
Q 2214 1856 2012 1936 
Q 1811 2016 1555 2074 
Q 1267 1914 1110 1677 
Q 954 1440 954 1114 
z
M 2554 3386 
Q 2554 3482 2512 3597 
Q 2470 3712 2380 3811 
Q 2291 3910 2150 3977 
Q 2010 4045 1805 4045 
Q 1600 4045 1456 3981 
Q 1312 3917 1222 3817 
Q 1133 3718 1091 3600 
Q 1050 3482 1050 3366 
Q 1050 3226 1101 3085 
Q 1152 2944 1261 2822 
Q 1370 2701 1546 2605 
Q 1722 2509 1965 2451 
Q 2234 2611 2394 2825 
Q 2554 3040 2554 3386 
z
" transform="scale(0.015625)"/>
       </defs>
       <use xlink:href="#Ubuntu-38"/>
       <use xlink:href="#Ubuntu-30" x="56.399994"/>
      </g>
     </g>
    </g>
    <g id="xtick_3">
     <g id="line2d_3">
      <g>
       <use xlink:href="#mfe4d27e457" x="208.785" y="126.18375" style="fill: #cecece; stroke: #cecece; stroke-width: 0.75"/>
      </g>
     </g>
     <g id="text_3">
      <!-- 90 -->
      <g style="fill: #808080" transform="translate(204.2725 141.39125) scale(0.08 -0.08)">
       <defs>
        <path id="Ubuntu-39" d="M 3206 2662 
Q 3206 1344 2550 669 
Q 1894 -6 602 -13 
L 582 486 
Q 986 486 1309 563 
Q 1632 640 1875 809 
Q 2118 979 2281 1248 
Q 2445 1517 2522 1907 
Q 2355 1830 2144 1782 
Q 1933 1734 1709 1734 
Q 1331 1734 1068 1846 
Q 806 1958 640 2147 
Q 474 2336 400 2582 
Q 326 2829 326 3098 
Q 326 3334 409 3590 
Q 493 3846 662 4057 
Q 832 4269 1094 4403 
Q 1357 4538 1715 4538 
Q 2080 4538 2358 4410 
Q 2637 4282 2825 4038 
Q 3014 3795 3110 3446 
Q 3206 3098 3206 2662 
z
M 1773 2221 
Q 1997 2221 2195 2262 
Q 2394 2304 2579 2387 
Q 2586 2458 2586 2525 
Q 2586 2592 2586 2662 
Q 2586 2938 2547 3190 
Q 2509 3443 2409 3632 
Q 2310 3821 2144 3933 
Q 1978 4045 1722 4045 
Q 1510 4045 1363 3955 
Q 1216 3866 1120 3728 
Q 1024 3590 982 3427 
Q 941 3264 941 3110 
Q 941 2675 1149 2448 
Q 1357 2221 1773 2221 
z
" transform="scale(0.015625)"/>
       </defs>
       <use xlink:href="#Ubuntu-39"/>
       <use xlink:href="#Ubuntu-30" x="56.399994"/>
      </g>
     </g>
    </g>
    <g id="xtick_4">
     <g id="line2d_4">
      <g>
       <use xlink:href="#mfe4d27e457" x="298.065" y="126.18375" style="fill: #cecece; stroke: #cecece; stroke-width: 0.75"/>
      </g>
     </g>
     <g id="text_4">
      <!-- 100 -->
      <g style="fill: #808080" transform="translate(291.29625 141.39125) scale(0.08 -0.08)">
       <defs>
        <path id="Ubuntu-31" d="M 595 3520 
Q 960 3661 1305 3881 
Q 1651 4102 1939 4435 
L 2362 4435 
L 2362 0 
L 1766 0 
L 1766 3610 
Q 1690 3539 1578 3462 
Q 1466 3386 1334 3315 
Q 1203 3245 1059 3181 
Q 915 3117 781 3072 
L 595 3520 
z
" transform="scale(0.015625)"/>
       </defs>
       <use xlink:href="#Ubuntu-31"/>
       <use xlink:href="#Ubuntu-30" x="56.399994"/>
       <use xlink:href="#Ubuntu-30" x="112.799988"/>
      </g>
     </g>
    </g>
    <g id="xtick_5">
     <g id="line2d_5">
      <g>
       <use xlink:href="#mfe4d27e457" x="387.345" y="126.18375" style="fill: #cecece; stroke: #cecece; stroke-width: 0.75"/>
      </g>
     </g>
     <g id="text_5">
      <!-- 110 -->
      <g style="fill: #808080" transform="translate(380.57625 141.39125) scale(0.08 -0.08)">
       <use xlink:href="#Ubuntu-31"/>
       <use xlink:href="#Ubuntu-31" x="56.399994"/>
       <use xlink:href="#Ubuntu-30" x="112.799988"/>
      </g>
     </g>
    </g>
    <g id="xtick_6">
     <g id="line2d_6">
      <g>
       <use xlink:href="#mfe4d27e457" x="476.625" y="126.18375" style="fill: #cecece; stroke: #cecece; stroke-width: 0.75"/>
      </g>
     </g>
     <g id="text_6">
      <!-- 120 -->
      <g style="fill: #808080" transform="translate(469.85625 141.39125) scale(0.08 -0.08)">
       <defs>
        <path id="Ubuntu-32" d="M 2989 3302 
Q 2989 3072 2896 2857 
Q 2803 2643 2649 2435 
Q 2496 2227 2304 2025 
Q 2112 1824 1920 1632 
Q 1811 1523 1667 1376 
Q 1523 1229 1395 1069 
Q 1267 909 1180 761 
Q 1094 614 1094 506 
L 3136 506 
L 3136 0 
L 448 0 
Q 442 38 442 76 
Q 442 115 442 147 
Q 442 448 541 707 
Q 640 966 800 1196 
Q 960 1427 1158 1632 
Q 1357 1837 1549 2029 
Q 1709 2182 1853 2332 
Q 1997 2483 2109 2633 
Q 2221 2784 2288 2944 
Q 2355 3104 2355 3283 
Q 2355 3475 2294 3609 
Q 2234 3744 2131 3833 
Q 2029 3923 1891 3964 
Q 1754 4006 1600 4006 
Q 1414 4006 1260 3955 
Q 1107 3904 985 3837 
Q 864 3770 781 3696 
Q 698 3622 653 3584 
L 358 4006 
Q 416 4070 531 4163 
Q 646 4256 806 4339 
Q 966 4422 1164 4480 
Q 1363 4538 1594 4538 
Q 2291 4538 2640 4214 
Q 2989 3891 2989 3302 
z
" transform="scale(0.015625)"/>
       </defs>
       <use xlink:href="#Ubuntu-31"/>
       <use xlink:href="#Ubuntu-32" x="56.399994"/>
       <use xlink:href="#Ubuntu-30" x="112.799988"/>
      </g>
     </g>
    </g>
   </g>
   <g id="matplotlib.axis_2">
    <g id="ytick_1">
     <g id="line2d_7">
      <defs>
       <path id="m2eeb436de8" d="M 0 0 
L -3 0 
" style="stroke: #cecece; stroke-width: 0.75"/>
      </defs>
      <g>
       <use xlink:href="#m2eeb436de8" x="25.225" y="121.18375" style="fill: #cecece; stroke: #cecece; stroke-width: 0.75"/>
      </g>
     </g>
     <g id="text_7">
      <!-- 0 -->
      <g style="fill: #808080" transform="translate(11.7125 124.2875) scale(0.08 -0.08)">
       <use xlink:href="#Ubuntu-30"/>
      </g>
     </g>
    </g>
    <g id="ytick_2">
     <g id="line2d_8">
      <g>
       <use xlink:href="#m2eeb436de8" x="25.225" y="99.00775" style="fill: #cecece; stroke: #cecece; stroke-width: 0.75"/>
      </g>
     </g>
     <g id="text_8">
      <!-- 10 -->
      <g style="fill: #808080" transform="translate(7.2 102.1115) scale(0.08 -0.08)">
       <use xlink:href="#Ubuntu-31"/>
       <use xlink:href="#Ubuntu-30" x="56.399994"/>
      </g>
     </g>
    </g>
    <g id="ytick_3">
     <g id="line2d_9">
      <g>
       <use xlink:href="#m2eeb436de8" x="25.225" y="76.83175" style="fill: #cecece; stroke: #cecece; stroke-width: 0.75"/>
      </g>
     </g>
     <g id="text_9">
      <!-- 20 -->
      <g style="fill: #808080" transform="translate(7.2 79.9355) scale(0.08 -0.08)">
       <use xlink:href="#Ubuntu-32"/>
       <use xlink:href="#Ubuntu-30" x="56.399994"/>
      </g>
     </g>
    </g>
    <g id="ytick_4">
     <g id="line2d_10">
      <g>
       <use xlink:href="#m2eeb436de8" x="25.225" y="54.65575" style="fill: #cecece; stroke: #cecece; stroke-width: 0.75"/>
      </g>
     </g>
     <g id="text_10">
      <!-- 30 -->
      <g style="fill: #808080" transform="translate(7.2 57.7595) scale(0.08 -0.08)">
       <defs>
        <path id="Ubuntu-33" d="M 1446 435 
Q 2016 435 2262 659 
Q 2509 883 2509 1261 
Q 2509 1504 2406 1670 
Q 2304 1837 2137 1936 
Q 1971 2035 1750 2076 
Q 1530 2118 1299 2118 
L 1146 2118 
L 1146 2605 
L 1357 2605 
Q 1517 2605 1686 2637 
Q 1856 2669 1997 2752 
Q 2138 2835 2227 2979 
Q 2317 3123 2317 3341 
Q 2317 3520 2253 3648 
Q 2189 3776 2083 3859 
Q 1978 3942 1840 3977 
Q 1702 4013 1549 4013 
Q 1242 4013 1027 3923 
Q 813 3834 666 3738 
L 435 4192 
Q 512 4243 630 4304 
Q 749 4365 896 4416 
Q 1043 4467 1212 4502 
Q 1382 4538 1568 4538 
Q 1920 4538 2176 4451 
Q 2432 4365 2598 4208 
Q 2765 4051 2848 3836 
Q 2931 3622 2931 3373 
Q 2931 3027 2732 2780 
Q 2534 2534 2253 2406 
Q 2426 2355 2586 2259 
Q 2746 2163 2864 2016 
Q 2982 1869 3056 1677 
Q 3130 1485 3130 1248 
Q 3130 960 3030 713 
Q 2931 467 2723 288 
Q 2515 109 2201 6 
Q 1888 -96 1459 -96 
Q 1293 -96 1117 -70 
Q 941 -45 787 -6 
Q 634 32 518 70 
Q 403 109 352 134 
L 467 653 
Q 576 602 829 518 
Q 1082 435 1446 435 
z
" transform="scale(0.015625)"/>
       </defs>
       <use xlink:href="#Ubuntu-33"/>
       <use xlink:href="#Ubuntu-30" x="56.399994"/>
      </g>
     </g>
    </g>
    <g id="ytick_5">
     <g id="line2d_11">
      <g>
       <use xlink:href="#m2eeb436de8" x="25.225" y="32.47975" style="fill: #cecece; stroke: #cecece; stroke-width: 0.75"/>
      </g>
     </g>
     <g id="text_11">
      <!-- 40 -->
      <g style="fill: #808080" transform="translate(7.2 35.5835) scale(0.08 -0.08)">
       <defs>
        <path id="Ubuntu-34" d="M 256 1536 
Q 378 1818 589 2192 
Q 800 2566 1065 2963 
Q 1331 3360 1635 3744 
Q 1939 4128 2246 4435 
L 2816 4435 
L 2816 1619 
L 3341 1619 
L 3341 1133 
L 2816 1133 
L 2816 0 
L 2240 0 
L 2240 1133 
L 256 1133 
L 256 1536 
z
M 2240 3731 
Q 2048 3526 1853 3273 
Q 1658 3021 1472 2745 
Q 1286 2470 1123 2182 
Q 960 1894 832 1619 
L 2240 1619 
L 2240 3731 
z
" transform="scale(0.015625)"/>
       </defs>
       <use xlink:href="#Ubuntu-34"/>
       <use xlink:href="#Ubuntu-30" x="56.399994"/>
      </g>
     </g>
    </g>
    <g id="ytick_6">
     <g id="line2d_12">
      <g>
       <use xlink:href="#m2eeb436de8" x="25.225" y="10.30375" style="fill: #cecece; stroke: #cecece; stroke-width: 0.75"/>
      </g>
     </g>
     <g id="text_12">
      <!-- 50 -->
      <g style="fill: #808080" transform="translate(7.2 13.4075) scale(0.08 -0.08)">
       <defs>
        <path id="Ubuntu-35" d="M 1274 2726 
Q 2240 2688 2691 2304 
Q 3142 1920 3142 1261 
Q 3142 966 3043 716 
Q 2944 467 2742 288 
Q 2541 109 2233 6 
Q 1926 -96 1504 -96 
Q 1338 -96 1165 -70 
Q 992 -45 845 -6 
Q 698 32 582 70 
Q 467 109 416 134 
L 531 653 
Q 640 602 886 518 
Q 1133 435 1491 435 
Q 1779 435 1974 499 
Q 2170 563 2291 672 
Q 2413 781 2467 925 
Q 2522 1069 2522 1229 
Q 2522 1472 2438 1661 
Q 2355 1850 2144 1978 
Q 1933 2106 1581 2173 
Q 1229 2240 691 2240 
Q 730 2554 752 2829 
Q 774 3104 793 3366 
Q 813 3629 825 3888 
Q 838 4147 851 4435 
L 2989 4435 
L 2989 3930 
L 1370 3930 
Q 1363 3834 1350 3670 
Q 1338 3507 1325 3331 
Q 1312 3155 1299 2988 
Q 1286 2822 1274 2726 
z
" transform="scale(0.015625)"/>
       </defs>
       <use xlink:href="#Ubuntu-35"/>
       <use xlink:href="#Ubuntu-30" x="56.399994"/>
      </g>
     </g>
    </g>
   </g>
   <g id="patch_3">
    <path d="M 150.770225 121.18375 
L 155.765615 121.18375 
L 155.765615 118.96615 
L 150.770225 118.96615 
z
" clip-path="url(#paa8cab7f97)" style="fill: #bf7771; stroke: #ffffff; stroke-linejoin: miter"/>
   </g>
   <g id="patch_4">
    <path d="M 155.765615 121.18375 
L 160.761005 121.18375 
L 160.761005 121.18375 
L 155.765615 121.18375 
z
" clip-path="url(#paa8cab7f97)" style="fill: #bf7771; stroke: #ffffff; stroke-linejoin: miter"/>
   </g>
   <g id="patch_5">
    <path d="M 160.761005 121.18375 
L 165.756395 121.18375 
L 165.756395 121.18375 
L 160.761005 121.18375 
z
" clip-path="url(#paa8cab7f97)" style="fill: #bf7771; stroke: #ffffff; stroke-linejoin: miter"/>
   </g>
   <g id="patch_6">
    <path d="M 165.756395 121.18375 
L 170.751785 121.18375 
L 170.751785 114.53095 
L 165.756395 114.53095 
z
" clip-path="url(#paa8cab7f97)" style="fill: #bf7771; stroke: #ffffff; stroke-linejoin: miter"/>
   </g>
   <g id="patch_7">
    <path d="M 170.751785 121.18375 
L 175.747175 121.18375 
L 175.747175 121.18375 
L 170.751785 121.18375 
z
" clip-path="url(#paa8cab7f97)" style="fill: #bf7771; stroke: #ffffff; stroke-linejoin: miter"/>
   </g>
   <g id="patch_8">
    <path d="M 175.747175 121.18375 
L 180.742565 121.18375 
L 180.742565 112.31335 
L 175.747175 112.31335 
z
" clip-path="url(#paa8cab7f97)" style="fill: #bf7771; stroke: #ffffff; stroke-linejoin: miter"/>
   </g>
   <g id="patch_9">
    <path d="M 180.742565 121.18375 
L 185.737955 121.18375 
L 185.737955 112.31335 
L 180.742565 112.31335 
z
" clip-path="url(#paa8cab7f97)" style="fill: #bf7771; stroke: #ffffff; stroke-linejoin: miter"/>
   </g>
   <g id="patch_10">
    <path d="M 185.737955 121.18375 
L 190.733345 121.18375 
L 190.733345 112.31335 
L 185.737955 112.31335 
z
" clip-path="url(#paa8cab7f97)" style="fill: #bf7771; stroke: #ffffff; stroke-linejoin: miter"/>
   </g>
   <g id="patch_11">
    <path d="M 190.733345 121.18375 
L 195.728735 121.18375 
L 195.728735 114.53095 
L 190.733345 114.53095 
z
" clip-path="url(#paa8cab7f97)" style="fill: #bf7771; stroke: #ffffff; stroke-linejoin: miter"/>
   </g>
   <g id="patch_12">
    <path d="M 195.728735 121.18375 
L 200.724125 121.18375 
L 200.724125 107.87815 
L 195.728735 107.87815 
z
" clip-path="url(#paa8cab7f97)" style="fill: #bf7771; stroke: #ffffff; stroke-linejoin: miter"/>
   </g>
   <g id="patch_13">
    <path d="M 200.724125 121.18375 
L 205.719515 121.18375 
L 205.719515 110.09575 
L 200.724125 110.09575 
z
" clip-path="url(#paa8cab7f97)" style="fill: #bf7771; stroke: #ffffff; stroke-linejoin: miter"/>
   </g>
   <g id="patch_14">
    <path d="M 205.719515 121.18375 
L 210.714905 121.18375 
L 210.714905 112.31335 
L 205.719515 112.31335 
z
" clip-path="url(#paa8cab7f97)" style="fill: #bf7771; stroke: #ffffff; stroke-linejoin: miter"/>
   </g>
   <g id="patch_15">
    <path d="M 210.714905 121.18375 
L 215.710295 121.18375 
L 215.710295 110.09575 
L 210.714905 110.09575 
z
" clip-path="url(#paa8cab7f97)" style="fill: #bf7771; stroke: #ffffff; stroke-linejoin: miter"/>
   </g>
   <g id="patch_16">
    <path d="M 215.710295 121.18375 
L 220.705686 121.18375 
L 220.705686 101.22535 
L 215.710295 101.22535 
z
" clip-path="url(#paa8cab7f97)" style="fill: #bf7771; stroke: #ffffff; stroke-linejoin: miter"/>
   </g>
   <g id="patch_17">
    <path d="M 220.705686 121.18375 
L 225.701076 121.18375 
L 225.701076 94.57255 
L 220.705686 94.57255 
z
" clip-path="url(#paa8cab7f97)" style="fill: #bf7771; stroke: #ffffff; stroke-linejoin: miter"/>
   </g>
   <g id="patch_18">
    <path d="M 225.701076 121.18375 
L 230.696466 121.18375 
L 230.696466 83.48455 
L 225.701076 83.48455 
z
" clip-path="url(#paa8cab7f97)" style="fill: #bf7771; stroke: #ffffff; stroke-linejoin: miter"/>
   </g>
   <g id="patch_19">
    <path d="M 230.696466 121.18375 
L 235.691856 121.18375 
L 235.691856 90.13735 
L 230.696466 90.13735 
z
" clip-path="url(#paa8cab7f97)" style="fill: #bf7771; stroke: #ffffff; stroke-linejoin: miter"/>
   </g>
   <g id="patch_20">
    <path d="M 235.691856 121.18375 
L 240.687246 121.18375 
L 240.687246 94.57255 
L 235.691856 94.57255 
z
" clip-path="url(#paa8cab7f97)" style="fill: #bf7771; stroke: #ffffff; stroke-linejoin: miter"/>
   </g>
   <g id="patch_21">
    <path d="M 240.687246 121.18375 
L 245.682636 121.18375 
L 245.682636 81.26695 
L 240.687246 81.26695 
z
" clip-path="url(#paa8cab7f97)" style="fill: #bf7771; stroke: #ffffff; stroke-linejoin: miter"/>
   </g>
   <g id="patch_22">
    <path d="M 245.682636 121.18375 
L 250.678026 121.18375 
L 250.678026 70.17895 
L 245.682636 70.17895 
z
" clip-path="url(#paa8cab7f97)" style="fill: #bf7771; stroke: #ffffff; stroke-linejoin: miter"/>
   </g>
   <g id="patch_23">
    <path d="M 250.678026 121.18375 
L 255.673416 121.18375 
L 255.673416 39.13255 
L 250.678026 39.13255 
z
" clip-path="url(#paa8cab7f97)" style="fill: #bf7771; stroke: #ffffff; stroke-linejoin: miter"/>
   </g>
   <g id="patch_24">
    <path d="M 255.673416 121.18375 
L 260.668806 121.18375 
L 260.668806 39.13255 
L 255.673416 39.13255 
z
" clip-path="url(#paa8cab7f97)" style="fill: #bf7771; stroke: #ffffff; stroke-linejoin: miter"/>
   </g>
   <g id="patch_25">
    <path d="M 260.668806 121.18375 
L 265.664196 121.18375 
L 265.664196 30.26215 
L 260.668806 30.26215 
z
" clip-path="url(#paa8cab7f97)" style="fill: #bf7771; stroke: #ffffff; stroke-linejoin: miter"/>
   </g>
   <g id="patch_26">
    <path d="M 265.664196 121.18375 
L 270.659586 121.18375 
L 270.659586 56.87335 
L 265.664196 56.87335 
z
" clip-path="url(#paa8cab7f97)" style="fill: #bf7771; stroke: #ffffff; stroke-linejoin: miter"/>
   </g>
   <g id="patch_27">
    <path d="M 270.659586 121.18375 
L 275.654976 121.18375 
L 275.654976 30.26215 
L 270.659586 30.26215 
z
" clip-path="url(#paa8cab7f97)" style="fill: #bf7771; stroke: #ffffff; stroke-linejoin: miter"/>
   </g>
   <g id="patch_28">
    <path d="M 275.654976 121.18375 
L 280.650366 121.18375 
L 280.650366 32.47975 
L 275.654976 32.47975 
z
" clip-path="url(#paa8cab7f97)" style="fill: #bf7771; stroke: #ffffff; stroke-linejoin: miter"/>
   </g>
   <g id="patch_29">
    <path d="M 280.650366 121.18375 
L 285.645756 121.18375 
L 285.645756 41.35015 
L 280.650366 41.35015 
z
" clip-path="url(#paa8cab7f97)" style="fill: #bf7771; stroke: #ffffff; stroke-linejoin: miter"/>
   </g>
   <g id="patch_30">
    <path d="M 285.645756 121.18375 
L 290.641146 121.18375 
L 290.641146 41.35015 
L 285.645756 41.35015 
z
" clip-path="url(#paa8cab7f97)" style="fill: #bf7771; stroke: #ffffff; stroke-linejoin: miter"/>
   </g>
   <g id="patch_31">
    <path d="M 290.641146 121.18375 
L 295.636536 121.18375 
L 295.636536 32.47975 
L 290.641146 32.47975 
z
" clip-path="url(#paa8cab7f97)" style="fill: #bf7771; stroke: #ffffff; stroke-linejoin: miter"/>
   </g>
   <g id="patch_32">
    <path d="M 295.636536 121.18375 
L 300.631926 121.18375 
L 300.631926 23.60935 
L 295.636536 23.60935 
z
" clip-path="url(#paa8cab7f97)" style="fill: #bf7771; stroke: #ffffff; stroke-linejoin: miter"/>
   </g>
   <g id="patch_33">
    <path d="M 300.631926 121.18375 
L 305.627316 121.18375 
L 305.627316 34.69735 
L 300.631926 34.69735 
z
" clip-path="url(#paa8cab7f97)" style="fill: #bf7771; stroke: #ffffff; stroke-linejoin: miter"/>
   </g>
   <g id="patch_34">
    <path d="M 305.627316 121.18375 
L 310.622706 121.18375 
L 310.622706 19.17415 
L 305.627316 19.17415 
z
" clip-path="url(#paa8cab7f97)" style="fill: #bf7771; stroke: #ffffff; stroke-linejoin: miter"/>
   </g>
   <g id="patch_35">
    <path d="M 310.622706 121.18375 
L 315.618096 121.18375 
L 315.618096 19.17415 
L 310.622706 19.17415 
z
" clip-path="url(#paa8cab7f97)" style="fill: #bf7771; stroke: #ffffff; stroke-linejoin: miter"/>
   </g>
   <g id="patch_36">
    <path d="M 315.618096 121.18375 
L 320.613486 121.18375 
L 320.613486 41.35015 
L 315.618096 41.35015 
z
" clip-path="url(#paa8cab7f97)" style="fill: #bf7771; stroke: #ffffff; stroke-linejoin: miter"/>
   </g>
   <g id="patch_37">
    <path d="M 320.613486 121.18375 
L 325.608876 121.18375 
L 325.608876 34.69735 
L 320.613486 34.69735 
z
" clip-path="url(#paa8cab7f97)" style="fill: #bf7771; stroke: #ffffff; stroke-linejoin: miter"/>
   </g>
   <g id="patch_38">
    <path d="M 325.608876 121.18375 
L 330.604267 121.18375 
L 330.604267 43.56775 
L 325.608876 43.56775 
z
" clip-path="url(#paa8cab7f97)" style="fill: #bf7771; stroke: #ffffff; stroke-linejoin: miter"/>
   </g>
   <g id="patch_39">
    <path d="M 330.604267 121.18375 
L 335.599657 121.18375 
L 335.599657 56.87335 
L 330.604267 56.87335 
z
" clip-path="url(#paa8cab7f97)" style="fill: #bf7771; stroke: #ffffff; stroke-linejoin: miter"/>
   </g>
   <g id="patch_40">
    <path d="M 335.599657 121.18375 
L 340.595047 121.18375 
L 340.595047 65.74375 
L 335.599657 65.74375 
z
" clip-path="url(#paa8cab7f97)" style="fill: #bf7771; stroke: #ffffff; stroke-linejoin: miter"/>
   </g>
   <g id="patch_41">
    <path d="M 340.595047 121.18375 
L 345.590437 121.18375 
L 345.590437 43.56775 
L 340.595047 43.56775 
z
" clip-path="url(#paa8cab7f97)" style="fill: #bf7771; stroke: #ffffff; stroke-linejoin: miter"/>
   </g>
   <g id="patch_42">
    <path d="M 345.590437 121.18375 
L 350.585827 121.18375 
L 350.585827 54.65575 
L 345.590437 54.65575 
z
" clip-path="url(#paa8cab7f97)" style="fill: #bf7771; stroke: #ffffff; stroke-linejoin: miter"/>
   </g>
   <g id="patch_43">
    <path d="M 350.585827 121.18375 
L 355.581217 121.18375 
L 355.581217 83.48455 
L 350.585827 83.48455 
z
" clip-path="url(#paa8cab7f97)" style="fill: #bf7771; stroke: #ffffff; stroke-linejoin: miter"/>
   </g>
   <g id="patch_44">
    <path d="M 355.581217 121.18375 
L 360.576607 121.18375 
L 360.576607 67.96135 
L 355.581217 67.96135 
z
" clip-path="url(#paa8cab7f97)" style="fill: #bf7771; stroke: #ffffff; stroke-linejoin: miter"/>
   </g>
   <g id="patch_45">
    <path d="M 360.576607 121.18375 
L 365.571997 121.18375 
L 365.571997 85.70215 
L 360.576607 85.70215 
z
" clip-path="url(#paa8cab7f97)" style="fill: #bf7771; stroke: #ffffff; stroke-linejoin: miter"/>
   </g>
   <g id="patch_46">
    <path d="M 365.571997 121.18375 
L 370.567387 121.18375 
L 370.567387 92.35495 
L 365.571997 92.35495 
z
" clip-path="url(#paa8cab7f97)" style="fill: #bf7771; stroke: #ffffff; stroke-linejoin: miter"/>
   </g>
   <g id="patch_47">
    <path d="M 370.567387 121.18375 
L 375.562777 121.18375 
L 375.562777 87.91975 
L 370.567387 87.91975 
z
" clip-path="url(#paa8cab7f97)" style="fill: #bf7771; stroke: #ffffff; stroke-linejoin: miter"/>
   </g>
   <g id="patch_48">
    <path d="M 375.562777 121.18375 
L 380.558167 121.18375 
L 380.558167 101.22535 
L 375.562777 101.22535 
z
" clip-path="url(#paa8cab7f97)" style="fill: #bf7771; stroke: #ffffff; stroke-linejoin: miter"/>
   </g>
   <g id="patch_49">
    <path d="M 380.558167 121.18375 
L 385.553557 121.18375 
L 385.553557 110.09575 
L 380.558167 110.09575 
z
" clip-path="url(#paa8cab7f97)" style="fill: #bf7771; stroke: #ffffff; stroke-linejoin: miter"/>
   </g>
   <g id="patch_50">
    <path d="M 385.553557 121.18375 
L 390.548947 121.18375 
L 390.548947 105.66055 
L 385.553557 105.66055 
z
" clip-path="url(#paa8cab7f97)" style="fill: #bf7771; stroke: #ffffff; stroke-linejoin: miter"/>
   </g>
   <g id="patch_51">
    <path d="M 390.548947 121.18375 
L 395.544337 121.18375 
L 395.544337 116.74855 
L 390.548947 116.74855 
z
" clip-path="url(#paa8cab7f97)" style="fill: #bf7771; stroke: #ffffff; stroke-linejoin: miter"/>
   </g>
   <g id="patch_52">
    <path d="M 395.544337 121.18375 
L 400.539727 121.18375 
L 400.539727 112.31335 
L 395.544337 112.31335 
z
" clip-path="url(#paa8cab7f97)" style="fill: #bf7771; stroke: #ffffff; stroke-linejoin: miter"/>
   </g>
   <g id="patch_53">
    <path d="M 400.539727 121.18375 
L 405.535117 121.18375 
L 405.535117 118.96615 
L 400.539727 118.96615 
z
" clip-path="url(#paa8cab7f97)" style="fill: #bf7771; stroke: #ffffff; stroke-linejoin: miter"/>
   </g>
   <g id="patch_54">
    <path d="M 405.535117 121.18375 
L 410.530507 121.18375 
L 410.530507 121.18375 
L 405.535117 121.18375 
z
" clip-path="url(#paa8cab7f97)" style="fill: #bf7771; stroke: #ffffff; stroke-linejoin: miter"/>
   </g>
   <g id="patch_55">
    <path d="M 410.530507 121.18375 
L 415.525897 121.18375 
L 415.525897 121.18375 
L 410.530507 121.18375 
z
" clip-path="url(#paa8cab7f97)" style="fill: #bf7771; stroke: #ffffff; stroke-linejoin: miter"/>
   </g>
   <g id="patch_56">
    <path d="M 415.525897 121.18375 
L 420.521287 121.18375 
L 420.521287 121.18375 
L 415.525897 121.18375 
z
" clip-path="url(#paa8cab7f97)" style="fill: #bf7771; stroke: #ffffff; stroke-linejoin: miter"/>
   </g>
   <g id="patch_57">
    <path d="M 420.521287 121.18375 
L 425.516677 121.18375 
L 425.516677 118.96615 
L 420.521287 118.96615 
z
" clip-path="url(#paa8cab7f97)" style="fill: #bf7771; stroke: #ffffff; stroke-linejoin: miter"/>
   </g>
   <g id="patch_58">
    <path d="M 425.516677 121.18375 
L 430.512067 121.18375 
L 430.512067 121.18375 
L 425.516677 121.18375 
z
" clip-path="url(#paa8cab7f97)" style="fill: #bf7771; stroke: #ffffff; stroke-linejoin: miter"/>
   </g>
   <g id="patch_59">
    <path d="M 430.512067 121.18375 
L 435.507457 121.18375 
L 435.507457 121.18375 
L 430.512067 121.18375 
z
" clip-path="url(#paa8cab7f97)" style="fill: #bf7771; stroke: #ffffff; stroke-linejoin: miter"/>
   </g>
   <g id="patch_60">
    <path d="M 435.507457 121.18375 
L 440.502848 121.18375 
L 440.502848 121.18375 
L 435.507457 121.18375 
z
" clip-path="url(#paa8cab7f97)" style="fill: #bf7771; stroke: #ffffff; stroke-linejoin: miter"/>
   </g>
   <g id="patch_61">
    <path d="M 440.502848 121.18375 
L 445.498238 121.18375 
L 445.498238 121.18375 
L 440.502848 121.18375 
z
" clip-path="url(#paa8cab7f97)" style="fill: #bf7771; stroke: #ffffff; stroke-linejoin: miter"/>
   </g>
   <g id="patch_62">
    <path d="M 445.498238 121.18375 
L 450.493628 121.18375 
L 450.493628 118.96615 
L 445.498238 118.96615 
z
" clip-path="url(#paa8cab7f97)" style="fill: #bf7771; stroke: #ffffff; stroke-linejoin: miter"/>
   </g>
   <g id="patch_63">
    <path d="M 25.225 121.18375 
L 25.225 10.30375 
" style="fill: none; stroke: #cccccc; stroke-width: 0.75; stroke-linejoin: miter; stroke-linecap: square"/>
   </g>
   <g id="patch_64">
    <path d="M 30.225 126.18375 
L 476.625 126.18375 
" style="fill: none; stroke: #cccccc; stroke-width: 0.75; stroke-linejoin: miter; stroke-linecap: square"/>
   </g>
  </g>
 </g>
 <defs>
  <clipPath id="paa8cab7f97">
   <rect x="30.225" y="10.30375" width="446.4" height="110.88"/>
  </clipPath>
 </defs>
</svg>
