<?xml version="1.0" encoding="utf-8" standalone="no"?>
<!DOCTYPE svg PUBLIC "-//W3C//DTD SVG 1.1//EN"
  "http://www.w3.org/Graphics/SVG/1.1/DTD/svg11.dtd">
<svg xmlns:xlink="http://www.w3.org/1999/xlink" width="490.59375pt" height="150.07125pt" viewBox="0 0 490.59375 150.07125" xmlns="http://www.w3.org/2000/svg" version="1.1">
 <metadata>
  <rdf:RDF xmlns:dc="http://purl.org/dc/elements/1.1/" xmlns:cc="http://creativecommons.org/ns#" xmlns:rdf="http://www.w3.org/1999/02/22-rdf-syntax-ns#">
   <cc:Work>
    <dc:type rdf:resource="http://purl.org/dc/dcmitype/StillImage"/>
    <dc:date>2024-05-16T19:37:52.666771</dc:date>
    <dc:format>image/svg+xml</dc:format>
    <dc:creator>
     <cc:Agent>
      <dc:title>Matplotlib v3.8.4, https://matplotlib.org/</dc:title>
     </cc:Agent>
    </dc:creator>
   </cc:Work>
  </rdf:RDF>
 </metadata>
 <defs>
  <style type="text/css">*{stroke-linejoin: round; stroke-linecap: butt}</style>
 </defs>
 <g id="figure_1">
  <g id="patch_1">
   <path d="M 0 150.07125 
L 490.59375 150.07125 
L 490.59375 0 
L 0 0 
L 0 150.07125 
z
" style="fill: none"/>
  </g>
  <g id="axes_1">
   <g id="patch_2">
    <path d="M 30.225 121.18375 
L 476.625 121.18375 
L 476.625 10.30375 
L 30.225 10.30375 
L 30.225 121.18375 
z
" style="fill: none"/>
   </g>
   <g id="matplotlib.axis_1">
    <g id="xtick_1">
     <g id="line2d_1">
      <defs>
       <path id="m6c75d160e6" d="M 0 0 
L 0 3 
" style="stroke: #cecece; stroke-width: 0.75"/>
      </defs>
      <g>
       <use xlink:href="#m6c75d160e6" x="30.225" y="126.18375" style="fill: #cecece; stroke: #cecece; stroke-width: 0.75"/>
      </g>
     </g>
     <g id="text_1">
      <!-- 70 -->
      <g style="fill: #808080" transform="translate(25.7125 141.39125) scale(0.08 -0.08)">
       <defs>
        <path id="Ubuntu-37" d="M 1043 0 
Q 1082 512 1226 1078 
Q 1370 1645 1581 2179 
Q 1792 2714 2045 3171 
Q 2298 3629 2541 3917 
L 384 3917 
L 384 4435 
L 3206 4435 
L 3206 3942 
Q 2995 3699 2739 3273 
Q 2483 2848 2256 2320 
Q 2029 1792 1865 1193 
Q 1702 595 1664 0 
L 1043 0 
z
" transform="scale(0.015625)"/>
        <path id="Ubuntu-30" d="M 320 2221 
Q 320 3334 713 3936 
Q 1107 4538 1805 4538 
Q 2502 4538 2896 3936 
Q 3290 3334 3290 2221 
Q 3290 1107 2896 505 
Q 2502 -96 1805 -96 
Q 1107 -96 713 505 
Q 320 1107 320 2221 
z
M 2662 2221 
Q 2662 2586 2620 2912 
Q 2579 3238 2480 3481 
Q 2381 3725 2214 3869 
Q 2048 4013 1805 4013 
Q 1562 4013 1395 3869 
Q 1229 3725 1129 3481 
Q 1030 3238 988 2912 
Q 947 2586 947 2221 
Q 947 1856 988 1529 
Q 1030 1203 1129 960 
Q 1229 717 1395 573 
Q 1562 429 1805 429 
Q 2048 429 2214 573 
Q 2381 717 2480 960 
Q 2579 1203 2620 1529 
Q 2662 1856 2662 2221 
z
" transform="scale(0.015625)"/>
       </defs>
       <use xlink:href="#Ubuntu-37"/>
       <use xlink:href="#Ubuntu-30" x="56.399994"/>
      </g>
     </g>
    </g>
    <g id="xtick_2">
     <g id="line2d_2">
      <g>
       <use xlink:href="#m6c75d160e6" x="119.505" y="126.18375" style="fill: #cecece; stroke: #cecece; stroke-width: 0.75"/>
      </g>
     </g>
     <g id="text_2">
      <!-- 80 -->
      <g style="fill: #808080" transform="translate(114.9925 141.39125) scale(0.08 -0.08)">
       <defs>
        <path id="Ubuntu-38" d="M 3258 1152 
Q 3258 883 3165 656 
Q 3072 429 2889 259 
Q 2707 90 2432 -3 
Q 2157 -96 1798 -96 
Q 1382 -96 1104 22 
Q 826 141 659 320 
Q 493 499 422 713 
Q 352 928 352 1120 
Q 352 1306 413 1475 
Q 474 1645 573 1792 
Q 672 1939 803 2057 
Q 934 2176 1082 2266 
Q 454 2624 454 3322 
Q 454 3565 550 3785 
Q 646 4006 822 4172 
Q 998 4339 1248 4438 
Q 1498 4538 1805 4538 
Q 2163 4538 2419 4429 
Q 2675 4320 2838 4150 
Q 3002 3981 3075 3776 
Q 3149 3571 3149 3379 
Q 3149 3194 3094 3030 
Q 3040 2867 2947 2726 
Q 2854 2586 2736 2477 
Q 2618 2368 2490 2285 
Q 3245 1926 3258 1152 
z
M 954 1114 
Q 954 998 995 873 
Q 1037 749 1139 643 
Q 1242 538 1402 467 
Q 1562 397 1805 397 
Q 2022 397 2185 461 
Q 2349 525 2451 624 
Q 2554 723 2605 851 
Q 2656 979 2656 1114 
Q 2656 1318 2579 1472 
Q 2502 1626 2358 1741 
Q 2214 1856 2012 1936 
Q 1811 2016 1555 2074 
Q 1267 1914 1110 1677 
Q 954 1440 954 1114 
z
M 2554 3386 
Q 2554 3482 2512 3597 
Q 2470 3712 2380 3811 
Q 2291 3910 2150 3977 
Q 2010 4045 1805 4045 
Q 1600 4045 1456 3981 
Q 1312 3917 1222 3817 
Q 1133 3718 1091 3600 
Q 1050 3482 1050 3366 
Q 1050 3226 1101 3085 
Q 1152 2944 1261 2822 
Q 1370 2701 1546 2605 
Q 1722 2509 1965 2451 
Q 2234 2611 2394 2825 
Q 2554 3040 2554 3386 
z
" transform="scale(0.015625)"/>
       </defs>
       <use xlink:href="#Ubuntu-38"/>
       <use xlink:href="#Ubuntu-30" x="56.399994"/>
      </g>
     </g>
    </g>
    <g id="xtick_3">
     <g id="line2d_3">
      <g>
       <use xlink:href="#m6c75d160e6" x="208.785" y="126.18375" style="fill: #cecece; stroke: #cecece; stroke-width: 0.75"/>
      </g>
     </g>
     <g id="text_3">
      <!-- 90 -->
      <g style="fill: #808080" transform="translate(204.2725 141.39125) scale(0.08 -0.08)">
       <defs>
        <path id="Ubuntu-39" d="M 3206 2662 
Q 3206 1344 2550 669 
Q 1894 -6 602 -13 
L 582 486 
Q 986 486 1309 563 
Q 1632 640 1875 809 
Q 2118 979 2281 1248 
Q 2445 1517 2522 1907 
Q 2355 1830 2144 1782 
Q 1933 1734 1709 1734 
Q 1331 1734 1068 1846 
Q 806 1958 640 2147 
Q 474 2336 400 2582 
Q 326 2829 326 3098 
Q 326 3334 409 3590 
Q 493 3846 662 4057 
Q 832 4269 1094 4403 
Q 1357 4538 1715 4538 
Q 2080 4538 2358 4410 
Q 2637 4282 2825 4038 
Q 3014 3795 3110 3446 
Q 3206 3098 3206 2662 
z
M 1773 2221 
Q 1997 2221 2195 2262 
Q 2394 2304 2579 2387 
Q 2586 2458 2586 2525 
Q 2586 2592 2586 2662 
Q 2586 2938 2547 3190 
Q 2509 3443 2409 3632 
Q 2310 3821 2144 3933 
Q 1978 4045 1722 4045 
Q 1510 4045 1363 3955 
Q 1216 3866 1120 3728 
Q 1024 3590 982 3427 
Q 941 3264 941 3110 
Q 941 2675 1149 2448 
Q 1357 2221 1773 2221 
z
" transform="scale(0.015625)"/>
       </defs>
       <use xlink:href="#Ubuntu-39"/>
       <use xlink:href="#Ubuntu-30" x="56.399994"/>
      </g>
     </g>
    </g>
    <g id="xtick_4">
     <g id="line2d_4">
      <g>
       <use xlink:href="#m6c75d160e6" x="298.065" y="126.18375" style="fill: #cecece; stroke: #cecece; stroke-width: 0.75"/>
      </g>
     </g>
     <g id="text_4">
      <!-- 100 -->
      <g style="fill: #808080" transform="translate(291.29625 141.39125) scale(0.08 -0.08)">
       <defs>
        <path id="Ubuntu-31" d="M 595 3520 
Q 960 3661 1305 3881 
Q 1651 4102 1939 4435 
L 2362 4435 
L 2362 0 
L 1766 0 
L 1766 3610 
Q 1690 3539 1578 3462 
Q 1466 3386 1334 3315 
Q 1203 3245 1059 3181 
Q 915 3117 781 3072 
L 595 3520 
z
" transform="scale(0.015625)"/>
       </defs>
       <use xlink:href="#Ubuntu-31"/>
       <use xlink:href="#Ubuntu-30" x="56.399994"/>
       <use xlink:href="#Ubuntu-30" x="112.799988"/>
      </g>
     </g>
    </g>
    <g id="xtick_5">
     <g id="line2d_5">
      <g>
       <use xlink:href="#m6c75d160e6" x="387.345" y="126.18375" style="fill: #cecece; stroke: #cecece; stroke-width: 0.75"/>
      </g>
     </g>
     <g id="text_5">
      <!-- 110 -->
      <g style="fill: #808080" transform="translate(380.57625 141.39125) scale(0.08 -0.08)">
       <use xlink:href="#Ubuntu-31"/>
       <use xlink:href="#Ubuntu-31" x="56.399994"/>
       <use xlink:href="#Ubuntu-30" x="112.799988"/>
      </g>
     </g>
    </g>
    <g id="xtick_6">
     <g id="line2d_6">
      <g>
       <use xlink:href="#m6c75d160e6" x="476.625" y="126.18375" style="fill: #cecece; stroke: #cecece; stroke-width: 0.75"/>
      </g>
     </g>
     <g id="text_6">
      <!-- 120 -->
      <g style="fill: #808080" transform="translate(469.85625 141.39125) scale(0.08 -0.08)">
       <defs>
        <path id="Ubuntu-32" d="M 2989 3302 
Q 2989 3072 2896 2857 
Q 2803 2643 2649 2435 
Q 2496 2227 2304 2025 
Q 2112 1824 1920 1632 
Q 1811 1523 1667 1376 
Q 1523 1229 1395 1069 
Q 1267 909 1180 761 
Q 1094 614 1094 506 
L 3136 506 
L 3136 0 
L 448 0 
Q 442 38 442 76 
Q 442 115 442 147 
Q 442 448 541 707 
Q 640 966 800 1196 
Q 960 1427 1158 1632 
Q 1357 1837 1549 2029 
Q 1709 2182 1853 2332 
Q 1997 2483 2109 2633 
Q 2221 2784 2288 2944 
Q 2355 3104 2355 3283 
Q 2355 3475 2294 3609 
Q 2234 3744 2131 3833 
Q 2029 3923 1891 3964 
Q 1754 4006 1600 4006 
Q 1414 4006 1260 3955 
Q 1107 3904 985 3837 
Q 864 3770 781 3696 
Q 698 3622 653 3584 
L 358 4006 
Q 416 4070 531 4163 
Q 646 4256 806 4339 
Q 966 4422 1164 4480 
Q 1363 4538 1594 4538 
Q 2291 4538 2640 4214 
Q 2989 3891 2989 3302 
z
" transform="scale(0.015625)"/>
       </defs>
       <use xlink:href="#Ubuntu-31"/>
       <use xlink:href="#Ubuntu-32" x="56.399994"/>
       <use xlink:href="#Ubuntu-30" x="112.799988"/>
      </g>
     </g>
    </g>
   </g>
   <g id="matplotlib.axis_2">
    <g id="ytick_1">
     <g id="line2d_7">
      <defs>
       <path id="m715e1bc4ba" d="M 0 0 
L -3 0 
" style="stroke: #cecece; stroke-width: 0.75"/>
      </defs>
      <g>
       <use xlink:href="#m715e1bc4ba" x="25.225" y="121.18375" style="fill: #cecece; stroke: #cecece; stroke-width: 0.75"/>
      </g>
     </g>
     <g id="text_7">
      <!-- 0 -->
      <g style="fill: #808080" transform="translate(11.7125 124.2875) scale(0.08 -0.08)">
       <use xlink:href="#Ubuntu-30"/>
      </g>
     </g>
    </g>
    <g id="ytick_2">
     <g id="line2d_8">
      <g>
       <use xlink:href="#m715e1bc4ba" x="25.225" y="93.46375" style="fill: #cecece; stroke: #cecece; stroke-width: 0.75"/>
      </g>
     </g>
     <g id="text_8">
      <!-- 20 -->
      <g style="fill: #808080" transform="translate(7.2 96.5675) scale(0.08 -0.08)">
       <use xlink:href="#Ubuntu-32"/>
       <use xlink:href="#Ubuntu-30" x="56.399994"/>
      </g>
     </g>
    </g>
    <g id="ytick_3">
     <g id="line2d_9">
      <g>
       <use xlink:href="#m715e1bc4ba" x="25.225" y="65.74375" style="fill: #cecece; stroke: #cecece; stroke-width: 0.75"/>
      </g>
     </g>
     <g id="text_9">
      <!-- 40 -->
      <g style="fill: #808080" transform="translate(7.2 68.8475) scale(0.08 -0.08)">
       <defs>
        <path id="Ubuntu-34" d="M 256 1536 
Q 378 1818 589 2192 
Q 800 2566 1065 2963 
Q 1331 3360 1635 3744 
Q 1939 4128 2246 4435 
L 2816 4435 
L 2816 1619 
L 3341 1619 
L 3341 1133 
L 2816 1133 
L 2816 0 
L 2240 0 
L 2240 1133 
L 256 1133 
L 256 1536 
z
M 2240 3731 
Q 2048 3526 1853 3273 
Q 1658 3021 1472 2745 
Q 1286 2470 1123 2182 
Q 960 1894 832 1619 
L 2240 1619 
L 2240 3731 
z
" transform="scale(0.015625)"/>
       </defs>
       <use xlink:href="#Ubuntu-34"/>
       <use xlink:href="#Ubuntu-30" x="56.399994"/>
      </g>
     </g>
    </g>
    <g id="ytick_4">
     <g id="line2d_10">
      <g>
       <use xlink:href="#m715e1bc4ba" x="25.225" y="38.02375" style="fill: #cecece; stroke: #cecece; stroke-width: 0.75"/>
      </g>
     </g>
     <g id="text_10">
      <!-- 60 -->
      <g style="fill: #808080" transform="translate(7.2 41.1275) scale(0.08 -0.08)">
       <defs>
        <path id="Ubuntu-36" d="M 403 1779 
Q 403 2426 582 2922 
Q 762 3418 1091 3757 
Q 1421 4096 1891 4272 
Q 2362 4448 2950 4454 
L 2995 3955 
Q 2618 3949 2307 3872 
Q 1997 3795 1753 3628 
Q 1510 3462 1344 3196 
Q 1178 2931 1094 2541 
Q 1261 2618 1469 2669 
Q 1677 2720 1901 2720 
Q 2278 2720 2540 2605 
Q 2803 2490 2969 2301 
Q 3136 2112 3209 1865 
Q 3283 1619 3283 1350 
Q 3283 1107 3200 851 
Q 3117 595 2947 384 
Q 2778 173 2515 38 
Q 2253 -96 1894 -96 
Q 1165 -96 784 403 
Q 403 902 403 1779 
z
M 1837 2234 
Q 1613 2234 1421 2192 
Q 1229 2150 1037 2067 
Q 1030 1997 1027 1923 
Q 1024 1850 1024 1779 
Q 1024 1498 1062 1248 
Q 1101 998 1200 809 
Q 1299 621 1465 509 
Q 1632 397 1888 397 
Q 2099 397 2246 486 
Q 2394 576 2490 717 
Q 2586 858 2627 1021 
Q 2669 1184 2669 1338 
Q 2669 1773 2461 2003 
Q 2253 2234 1837 2234 
z
" transform="scale(0.015625)"/>
       </defs>
       <use xlink:href="#Ubuntu-36"/>
       <use xlink:href="#Ubuntu-30" x="56.399994"/>
      </g>
     </g>
    </g>
    <g id="ytick_5">
     <g id="line2d_11">
      <g>
       <use xlink:href="#m715e1bc4ba" x="25.225" y="10.30375" style="fill: #cecece; stroke: #cecece; stroke-width: 0.75"/>
      </g>
     </g>
     <g id="text_11">
      <!-- 80 -->
      <g style="fill: #808080" transform="translate(7.2 13.4075) scale(0.08 -0.08)">
       <use xlink:href="#Ubuntu-38"/>
       <use xlink:href="#Ubuntu-30" x="56.399994"/>
      </g>
     </g>
    </g>
   </g>
   <g id="patch_3">
    <path d="M 104.431007 121.18375 
L 110.458776 121.18375 
L 110.458776 119.79775 
L 104.431007 119.79775 
z
" clip-path="url(#p42e17e72cc)" style="fill: #7a9ab4; stroke: #ffffff; stroke-linejoin: miter"/>
   </g>
   <g id="patch_4">
    <path d="M 110.458776 121.18375 
L 116.486544 121.18375 
L 116.486544 121.18375 
L 110.458776 121.18375 
z
" clip-path="url(#p42e17e72cc)" style="fill: #7a9ab4; stroke: #ffffff; stroke-linejoin: miter"/>
   </g>
   <g id="patch_5">
    <path d="M 116.486544 121.18375 
L 122.514313 121.18375 
L 122.514313 121.18375 
L 116.486544 121.18375 
z
" clip-path="url(#p42e17e72cc)" style="fill: #7a9ab4; stroke: #ffffff; stroke-linejoin: miter"/>
   </g>
   <g id="patch_6">
    <path d="M 122.514313 121.18375 
L 128.542081 121.18375 
L 128.542081 119.79775 
L 122.514313 119.79775 
z
" clip-path="url(#p42e17e72cc)" style="fill: #7a9ab4; stroke: #ffffff; stroke-linejoin: miter"/>
   </g>
   <g id="patch_7">
    <path d="M 128.542081 121.18375 
L 134.56985 121.18375 
L 134.56985 119.79775 
L 128.542081 119.79775 
z
" clip-path="url(#p42e17e72cc)" style="fill: #7a9ab4; stroke: #ffffff; stroke-linejoin: miter"/>
   </g>
   <g id="patch_8">
    <path d="M 134.56985 121.18375 
L 140.597619 121.18375 
L 140.597619 119.79775 
L 134.56985 119.79775 
z
" clip-path="url(#p42e17e72cc)" style="fill: #7a9ab4; stroke: #ffffff; stroke-linejoin: miter"/>
   </g>
   <g id="patch_9">
    <path d="M 140.597619 121.18375 
L 146.625387 121.18375 
L 146.625387 114.25375 
L 140.597619 114.25375 
z
" clip-path="url(#p42e17e72cc)" style="fill: #7a9ab4; stroke: #ffffff; stroke-linejoin: miter"/>
   </g>
   <g id="patch_10">
    <path d="M 146.625387 121.18375 
L 152.653156 121.18375 
L 152.653156 115.63975 
L 146.625387 115.63975 
z
" clip-path="url(#p42e17e72cc)" style="fill: #7a9ab4; stroke: #ffffff; stroke-linejoin: miter"/>
   </g>
   <g id="patch_11">
    <path d="M 152.653156 121.18375 
L 158.680925 121.18375 
L 158.680925 117.02575 
L 152.653156 117.02575 
z
" clip-path="url(#p42e17e72cc)" style="fill: #7a9ab4; stroke: #ffffff; stroke-linejoin: miter"/>
   </g>
   <g id="patch_12">
    <path d="M 158.680925 121.18375 
L 164.708693 121.18375 
L 164.708693 114.25375 
L 158.680925 114.25375 
z
" clip-path="url(#p42e17e72cc)" style="fill: #7a9ab4; stroke: #ffffff; stroke-linejoin: miter"/>
   </g>
   <g id="patch_13">
    <path d="M 164.708693 121.18375 
L 170.736462 121.18375 
L 170.736462 110.09575 
L 164.708693 110.09575 
z
" clip-path="url(#p42e17e72cc)" style="fill: #7a9ab4; stroke: #ffffff; stroke-linejoin: miter"/>
   </g>
   <g id="patch_14">
    <path d="M 170.736462 121.18375 
L 176.76423 121.18375 
L 176.76423 104.55175 
L 170.736462 104.55175 
z
" clip-path="url(#p42e17e72cc)" style="fill: #7a9ab4; stroke: #ffffff; stroke-linejoin: miter"/>
   </g>
   <g id="patch_15">
    <path d="M 176.76423 121.18375 
L 182.791999 121.18375 
L 182.791999 104.55175 
L 176.76423 104.55175 
z
" clip-path="url(#p42e17e72cc)" style="fill: #7a9ab4; stroke: #ffffff; stroke-linejoin: miter"/>
   </g>
   <g id="patch_16">
    <path d="M 182.791999 121.18375 
L 188.819768 121.18375 
L 188.819768 101.77975 
L 182.791999 101.77975 
z
" clip-path="url(#p42e17e72cc)" style="fill: #7a9ab4; stroke: #ffffff; stroke-linejoin: miter"/>
   </g>
   <g id="patch_17">
    <path d="M 188.819768 121.18375 
L 194.847536 121.18375 
L 194.847536 107.32375 
L 188.819768 107.32375 
z
" clip-path="url(#p42e17e72cc)" style="fill: #7a9ab4; stroke: #ffffff; stroke-linejoin: miter"/>
   </g>
   <g id="patch_18">
    <path d="M 194.847536 121.18375 
L 200.875305 121.18375 
L 200.875305 76.83175 
L 194.847536 76.83175 
z
" clip-path="url(#p42e17e72cc)" style="fill: #7a9ab4; stroke: #ffffff; stroke-linejoin: miter"/>
   </g>
   <g id="patch_19">
    <path d="M 200.875305 121.18375 
L 206.903074 121.18375 
L 206.903074 79.60375 
L 200.875305 79.60375 
z
" clip-path="url(#p42e17e72cc)" style="fill: #7a9ab4; stroke: #ffffff; stroke-linejoin: miter"/>
   </g>
   <g id="patch_20">
    <path d="M 206.903074 121.18375 
L 212.930842 121.18375 
L 212.930842 82.37575 
L 206.903074 82.37575 
z
" clip-path="url(#p42e17e72cc)" style="fill: #7a9ab4; stroke: #ffffff; stroke-linejoin: miter"/>
   </g>
   <g id="patch_21">
    <path d="M 212.930842 121.18375 
L 218.958611 121.18375 
L 218.958611 69.90175 
L 212.930842 69.90175 
z
" clip-path="url(#p42e17e72cc)" style="fill: #7a9ab4; stroke: #ffffff; stroke-linejoin: miter"/>
   </g>
   <g id="patch_22">
    <path d="M 218.958611 121.18375 
L 224.986379 121.18375 
L 224.986379 60.19975 
L 218.958611 60.19975 
z
" clip-path="url(#p42e17e72cc)" style="fill: #7a9ab4; stroke: #ffffff; stroke-linejoin: miter"/>
   </g>
   <g id="patch_23">
    <path d="M 224.986379 121.18375 
L 231.014148 121.18375 
L 231.014148 60.19975 
L 224.986379 60.19975 
z
" clip-path="url(#p42e17e72cc)" style="fill: #7a9ab4; stroke: #ffffff; stroke-linejoin: miter"/>
   </g>
   <g id="patch_24">
    <path d="M 231.014148 121.18375 
L 237.041917 121.18375 
L 237.041917 44.95375 
L 231.014148 44.95375 
z
" clip-path="url(#p42e17e72cc)" style="fill: #7a9ab4; stroke: #ffffff; stroke-linejoin: miter"/>
   </g>
   <g id="patch_25">
    <path d="M 237.041917 121.18375 
L 243.069685 121.18375 
L 243.069685 40.79575 
L 237.041917 40.79575 
z
" clip-path="url(#p42e17e72cc)" style="fill: #7a9ab4; stroke: #ffffff; stroke-linejoin: miter"/>
   </g>
   <g id="patch_26">
    <path d="M 243.069685 121.18375 
L 249.097454 121.18375 
L 249.097454 29.70775 
L 243.069685 29.70775 
z
" clip-path="url(#p42e17e72cc)" style="fill: #7a9ab4; stroke: #ffffff; stroke-linejoin: miter"/>
   </g>
   <g id="patch_27">
    <path d="M 249.097454 121.18375 
L 255.125223 121.18375 
L 255.125223 35.25175 
L 249.097454 35.25175 
z
" clip-path="url(#p42e17e72cc)" style="fill: #7a9ab4; stroke: #ffffff; stroke-linejoin: miter"/>
   </g>
   <g id="patch_28">
    <path d="M 255.125223 121.18375 
L 261.152991 121.18375 
L 261.152991 51.88375 
L 255.125223 51.88375 
z
" clip-path="url(#p42e17e72cc)" style="fill: #7a9ab4; stroke: #ffffff; stroke-linejoin: miter"/>
   </g>
   <g id="patch_29">
    <path d="M 261.152991 121.18375 
L 267.18076 121.18375 
L 267.18076 47.72575 
L 261.152991 47.72575 
z
" clip-path="url(#p42e17e72cc)" style="fill: #7a9ab4; stroke: #ffffff; stroke-linejoin: miter"/>
   </g>
   <g id="patch_30">
    <path d="M 267.18076 121.18375 
L 273.208529 121.18375 
L 273.208529 46.33975 
L 267.18076 46.33975 
z
" clip-path="url(#p42e17e72cc)" style="fill: #7a9ab4; stroke: #ffffff; stroke-linejoin: miter"/>
   </g>
   <g id="patch_31">
    <path d="M 273.208529 121.18375 
L 279.236297 121.18375 
L 279.236297 57.42775 
L 273.208529 57.42775 
z
" clip-path="url(#p42e17e72cc)" style="fill: #7a9ab4; stroke: #ffffff; stroke-linejoin: miter"/>
   </g>
   <g id="patch_32">
    <path d="M 279.236297 121.18375 
L 285.264066 121.18375 
L 285.264066 57.42775 
L 279.236297 57.42775 
z
" clip-path="url(#p42e17e72cc)" style="fill: #7a9ab4; stroke: #ffffff; stroke-linejoin: miter"/>
   </g>
   <g id="patch_33">
    <path d="M 285.264066 121.18375 
L 291.291834 121.18375 
L 291.291834 61.58575 
L 285.264066 61.58575 
z
" clip-path="url(#p42e17e72cc)" style="fill: #7a9ab4; stroke: #ffffff; stroke-linejoin: miter"/>
   </g>
   <g id="patch_34">
    <path d="M 291.291834 121.18375 
L 297.319603 121.18375 
L 297.319603 79.60375 
L 291.291834 79.60375 
z
" clip-path="url(#p42e17e72cc)" style="fill: #7a9ab4; stroke: #ffffff; stroke-linejoin: miter"/>
   </g>
   <g id="patch_35">
    <path d="M 297.319603 121.18375 
L 303.347372 121.18375 
L 303.347372 94.84975 
L 297.319603 94.84975 
z
" clip-path="url(#p42e17e72cc)" style="fill: #7a9ab4; stroke: #ffffff; stroke-linejoin: miter"/>
   </g>
   <g id="patch_36">
    <path d="M 303.347372 121.18375 
L 309.37514 121.18375 
L 309.37514 92.07775 
L 303.347372 92.07775 
z
" clip-path="url(#p42e17e72cc)" style="fill: #7a9ab4; stroke: #ffffff; stroke-linejoin: miter"/>
   </g>
   <g id="patch_37">
    <path d="M 309.37514 121.18375 
L 315.402909 121.18375 
L 315.402909 89.30575 
L 309.37514 89.30575 
z
" clip-path="url(#p42e17e72cc)" style="fill: #7a9ab4; stroke: #ffffff; stroke-linejoin: miter"/>
   </g>
   <g id="patch_38">
    <path d="M 315.402909 121.18375 
L 321.430678 121.18375 
L 321.430678 94.84975 
L 315.402909 94.84975 
z
" clip-path="url(#p42e17e72cc)" style="fill: #7a9ab4; stroke: #ffffff; stroke-linejoin: miter"/>
   </g>
   <g id="patch_39">
    <path d="M 321.430678 121.18375 
L 327.458446 121.18375 
L 327.458446 100.39375 
L 321.430678 100.39375 
z
" clip-path="url(#p42e17e72cc)" style="fill: #7a9ab4; stroke: #ffffff; stroke-linejoin: miter"/>
   </g>
   <g id="patch_40">
    <path d="M 327.458446 121.18375 
L 333.486215 121.18375 
L 333.486215 107.32375 
L 327.458446 107.32375 
z
" clip-path="url(#p42e17e72cc)" style="fill: #7a9ab4; stroke: #ffffff; stroke-linejoin: miter"/>
   </g>
   <g id="patch_41">
    <path d="M 333.486215 121.18375 
L 339.513983 121.18375 
L 339.513983 114.25375 
L 333.486215 114.25375 
z
" clip-path="url(#p42e17e72cc)" style="fill: #7a9ab4; stroke: #ffffff; stroke-linejoin: miter"/>
   </g>
   <g id="patch_42">
    <path d="M 339.513983 121.18375 
L 345.541752 121.18375 
L 345.541752 112.86775 
L 339.513983 112.86775 
z
" clip-path="url(#p42e17e72cc)" style="fill: #7a9ab4; stroke: #ffffff; stroke-linejoin: miter"/>
   </g>
   <g id="patch_43">
    <path d="M 345.541752 121.18375 
L 351.569521 121.18375 
L 351.569521 112.86775 
L 345.541752 112.86775 
z
" clip-path="url(#p42e17e72cc)" style="fill: #7a9ab4; stroke: #ffffff; stroke-linejoin: miter"/>
   </g>
   <g id="patch_44">
    <path d="M 351.569521 121.18375 
L 357.597289 121.18375 
L 357.597289 114.25375 
L 351.569521 114.25375 
z
" clip-path="url(#p42e17e72cc)" style="fill: #7a9ab4; stroke: #ffffff; stroke-linejoin: miter"/>
   </g>
   <g id="patch_45">
    <path d="M 357.597289 121.18375 
L 363.625058 121.18375 
L 363.625058 118.41175 
L 357.597289 118.41175 
z
" clip-path="url(#p42e17e72cc)" style="fill: #7a9ab4; stroke: #ffffff; stroke-linejoin: miter"/>
   </g>
   <g id="patch_46">
    <path d="M 363.625058 121.18375 
L 369.652827 121.18375 
L 369.652827 117.02575 
L 363.625058 117.02575 
z
" clip-path="url(#p42e17e72cc)" style="fill: #7a9ab4; stroke: #ffffff; stroke-linejoin: miter"/>
   </g>
   <g id="patch_47">
    <path d="M 369.652827 121.18375 
L 375.680595 121.18375 
L 375.680595 118.41175 
L 369.652827 118.41175 
z
" clip-path="url(#p42e17e72cc)" style="fill: #7a9ab4; stroke: #ffffff; stroke-linejoin: miter"/>
   </g>
   <g id="patch_48">
    <path d="M 375.680595 121.18375 
L 381.708364 121.18375 
L 381.708364 115.63975 
L 375.680595 115.63975 
z
" clip-path="url(#p42e17e72cc)" style="fill: #7a9ab4; stroke: #ffffff; stroke-linejoin: miter"/>
   </g>
   <g id="patch_49">
    <path d="M 381.708364 121.18375 
L 387.736132 121.18375 
L 387.736132 115.63975 
L 381.708364 115.63975 
z
" clip-path="url(#p42e17e72cc)" style="fill: #7a9ab4; stroke: #ffffff; stroke-linejoin: miter"/>
   </g>
   <g id="patch_50">
    <path d="M 387.736132 121.18375 
L 393.763901 121.18375 
L 393.763901 121.18375 
L 387.736132 121.18375 
z
" clip-path="url(#p42e17e72cc)" style="fill: #7a9ab4; stroke: #ffffff; stroke-linejoin: miter"/>
   </g>
   <g id="patch_51">
    <path d="M 393.763901 121.18375 
L 399.79167 121.18375 
L 399.79167 121.18375 
L 393.763901 121.18375 
z
" clip-path="url(#p42e17e72cc)" style="fill: #7a9ab4; stroke: #ffffff; stroke-linejoin: miter"/>
   </g>
   <g id="patch_52">
    <path d="M 399.79167 121.18375 
L 405.819438 121.18375 
L 405.819438 119.79775 
L 399.79167 119.79775 
z
" clip-path="url(#p42e17e72cc)" style="fill: #7a9ab4; stroke: #ffffff; stroke-linejoin: miter"/>
   </g>
   <g id="patch_53">
    <path d="M 25.225 121.18375 
L 25.225 10.30375 
" style="fill: none; stroke: #cccccc; stroke-width: 0.75; stroke-linejoin: miter; stroke-linecap: square"/>
   </g>
   <g id="patch_54">
    <path d="M 30.225 126.18375 
L 476.625 126.18375 
" style="fill: none; stroke: #cccccc; stroke-width: 0.75; stroke-linejoin: miter; stroke-linecap: square"/>
   </g>
  </g>
 </g>
 <defs>
  <clipPath id="p42e17e72cc">
   <rect x="30.225" y="10.30375" width="446.4" height="110.88"/>
  </clipPath>
 </defs>
</svg>
