<?xml version="1.0" encoding="utf-8" standalone="no"?>
<!DOCTYPE svg PUBLIC "-//W3C//DTD SVG 1.1//EN"
  "http://www.w3.org/Graphics/SVG/1.1/DTD/svg11.dtd">
<svg xmlns:xlink="http://www.w3.org/1999/xlink" width="495.10625pt" height="150.07125pt" viewBox="0 0 495.10625 150.07125" xmlns="http://www.w3.org/2000/svg" version="1.1">
 <metadata>
  <rdf:RDF xmlns:dc="http://purl.org/dc/elements/1.1/" xmlns:cc="http://creativecommons.org/ns#" xmlns:rdf="http://www.w3.org/1999/02/22-rdf-syntax-ns#">
   <cc:Work>
    <dc:type rdf:resource="http://purl.org/dc/dcmitype/StillImage"/>
    <dc:date>2024-05-16T18:35:59.351955</dc:date>
    <dc:format>image/svg+xml</dc:format>
    <dc:creator>
     <cc:Agent>
      <dc:title>Matplotlib v3.8.4, https://matplotlib.org/</dc:title>
     </cc:Agent>
    </dc:creator>
   </cc:Work>
  </rdf:RDF>
 </metadata>
 <defs>
  <style type="text/css">*{stroke-linejoin: round; stroke-linecap: butt}</style>
 </defs>
 <g id="figure_1">
  <g id="patch_1">
   <path d="M 0 150.07125 
L 495.10625 150.07125 
L 495.10625 0 
L 0 0 
L 0 150.07125 
z
" style="fill: none"/>
  </g>
  <g id="axes_1">
   <g id="patch_2">
    <path d="M 34.7375 121.18375 
L 481.1375 121.18375 
L 481.1375 10.30375 
L 34.7375 10.30375 
L 34.7375 121.18375 
z
" style="fill: none"/>
   </g>
   <g id="matplotlib.axis_1">
    <g id="xtick_1">
     <g id="line2d_1">
      <defs>
       <path id="mb881adebdf" d="M 0 0 
L 0 3 
" style="stroke: #cecece; stroke-width: 0.75"/>
      </defs>
      <g>
       <use xlink:href="#mb881adebdf" x="34.7375" y="126.18375" style="fill: #cecece; stroke: #cecece; stroke-width: 0.75"/>
      </g>
     </g>
     <g id="text_1">
      <!-- 70 -->
      <g style="fill: #808080" transform="translate(30.225 141.39125) scale(0.08 -0.08)">
       <defs>
        <path id="Ubuntu-37" d="M 1043 0 
Q 1082 512 1226 1078 
Q 1370 1645 1581 2179 
Q 1792 2714 2045 3171 
Q 2298 3629 2541 3917 
L 384 3917 
L 384 4435 
L 3206 4435 
L 3206 3942 
Q 2995 3699 2739 3273 
Q 2483 2848 2256 2320 
Q 2029 1792 1865 1193 
Q 1702 595 1664 0 
L 1043 0 
z
" transform="scale(0.015625)"/>
        <path id="Ubuntu-30" d="M 320 2221 
Q 320 3334 713 3936 
Q 1107 4538 1805 4538 
Q 2502 4538 2896 3936 
Q 3290 3334 3290 2221 
Q 3290 1107 2896 505 
Q 2502 -96 1805 -96 
Q 1107 -96 713 505 
Q 320 1107 320 2221 
z
M 2662 2221 
Q 2662 2586 2620 2912 
Q 2579 3238 2480 3481 
Q 2381 3725 2214 3869 
Q 2048 4013 1805 4013 
Q 1562 4013 1395 3869 
Q 1229 3725 1129 3481 
Q 1030 3238 988 2912 
Q 947 2586 947 2221 
Q 947 1856 988 1529 
Q 1030 1203 1129 960 
Q 1229 717 1395 573 
Q 1562 429 1805 429 
Q 2048 429 2214 573 
Q 2381 717 2480 960 
Q 2579 1203 2620 1529 
Q 2662 1856 2662 2221 
z
" transform="scale(0.015625)"/>
       </defs>
       <use xlink:href="#Ubuntu-37"/>
       <use xlink:href="#Ubuntu-30" x="56.399994"/>
      </g>
     </g>
    </g>
    <g id="xtick_2">
     <g id="line2d_2">
      <g>
       <use xlink:href="#mb881adebdf" x="124.0175" y="126.18375" style="fill: #cecece; stroke: #cecece; stroke-width: 0.75"/>
      </g>
     </g>
     <g id="text_2">
      <!-- 80 -->
      <g style="fill: #808080" transform="translate(119.505 141.39125) scale(0.08 -0.08)">
       <defs>
        <path id="Ubuntu-38" d="M 3258 1152 
Q 3258 883 3165 656 
Q 3072 429 2889 259 
Q 2707 90 2432 -3 
Q 2157 -96 1798 -96 
Q 1382 -96 1104 22 
Q 826 141 659 320 
Q 493 499 422 713 
Q 352 928 352 1120 
Q 352 1306 413 1475 
Q 474 1645 573 1792 
Q 672 1939 803 2057 
Q 934 2176 1082 2266 
Q 454 2624 454 3322 
Q 454 3565 550 3785 
Q 646 4006 822 4172 
Q 998 4339 1248 4438 
Q 1498 4538 1805 4538 
Q 2163 4538 2419 4429 
Q 2675 4320 2838 4150 
Q 3002 3981 3075 3776 
Q 3149 3571 3149 3379 
Q 3149 3194 3094 3030 
Q 3040 2867 2947 2726 
Q 2854 2586 2736 2477 
Q 2618 2368 2490 2285 
Q 3245 1926 3258 1152 
z
M 954 1114 
Q 954 998 995 873 
Q 1037 749 1139 643 
Q 1242 538 1402 467 
Q 1562 397 1805 397 
Q 2022 397 2185 461 
Q 2349 525 2451 624 
Q 2554 723 2605 851 
Q 2656 979 2656 1114 
Q 2656 1318 2579 1472 
Q 2502 1626 2358 1741 
Q 2214 1856 2012 1936 
Q 1811 2016 1555 2074 
Q 1267 1914 1110 1677 
Q 954 1440 954 1114 
z
M 2554 3386 
Q 2554 3482 2512 3597 
Q 2470 3712 2380 3811 
Q 2291 3910 2150 3977 
Q 2010 4045 1805 4045 
Q 1600 4045 1456 3981 
Q 1312 3917 1222 3817 
Q 1133 3718 1091 3600 
Q 1050 3482 1050 3366 
Q 1050 3226 1101 3085 
Q 1152 2944 1261 2822 
Q 1370 2701 1546 2605 
Q 1722 2509 1965 2451 
Q 2234 2611 2394 2825 
Q 2554 3040 2554 3386 
z
" transform="scale(0.015625)"/>
       </defs>
       <use xlink:href="#Ubuntu-38"/>
       <use xlink:href="#Ubuntu-30" x="56.399994"/>
      </g>
     </g>
    </g>
    <g id="xtick_3">
     <g id="line2d_3">
      <g>
       <use xlink:href="#mb881adebdf" x="213.2975" y="126.18375" style="fill: #cecece; stroke: #cecece; stroke-width: 0.75"/>
      </g>
     </g>
     <g id="text_3">
      <!-- 90 -->
      <g style="fill: #808080" transform="translate(208.785 141.39125) scale(0.08 -0.08)">
       <defs>
        <path id="Ubuntu-39" d="M 3206 2662 
Q 3206 1344 2550 669 
Q 1894 -6 602 -13 
L 582 486 
Q 986 486 1309 563 
Q 1632 640 1875 809 
Q 2118 979 2281 1248 
Q 2445 1517 2522 1907 
Q 2355 1830 2144 1782 
Q 1933 1734 1709 1734 
Q 1331 1734 1068 1846 
Q 806 1958 640 2147 
Q 474 2336 400 2582 
Q 326 2829 326 3098 
Q 326 3334 409 3590 
Q 493 3846 662 4057 
Q 832 4269 1094 4403 
Q 1357 4538 1715 4538 
Q 2080 4538 2358 4410 
Q 2637 4282 2825 4038 
Q 3014 3795 3110 3446 
Q 3206 3098 3206 2662 
z
M 1773 2221 
Q 1997 2221 2195 2262 
Q 2394 2304 2579 2387 
Q 2586 2458 2586 2525 
Q 2586 2592 2586 2662 
Q 2586 2938 2547 3190 
Q 2509 3443 2409 3632 
Q 2310 3821 2144 3933 
Q 1978 4045 1722 4045 
Q 1510 4045 1363 3955 
Q 1216 3866 1120 3728 
Q 1024 3590 982 3427 
Q 941 3264 941 3110 
Q 941 2675 1149 2448 
Q 1357 2221 1773 2221 
z
" transform="scale(0.015625)"/>
       </defs>
       <use xlink:href="#Ubuntu-39"/>
       <use xlink:href="#Ubuntu-30" x="56.399994"/>
      </g>
     </g>
    </g>
    <g id="xtick_4">
     <g id="line2d_4">
      <g>
       <use xlink:href="#mb881adebdf" x="302.5775" y="126.18375" style="fill: #cecece; stroke: #cecece; stroke-width: 0.75"/>
      </g>
     </g>
     <g id="text_4">
      <!-- 100 -->
      <g style="fill: #808080" transform="translate(295.80875 141.39125) scale(0.08 -0.08)">
       <defs>
        <path id="Ubuntu-31" d="M 595 3520 
Q 960 3661 1305 3881 
Q 1651 4102 1939 4435 
L 2362 4435 
L 2362 0 
L 1766 0 
L 1766 3610 
Q 1690 3539 1578 3462 
Q 1466 3386 1334 3315 
Q 1203 3245 1059 3181 
Q 915 3117 781 3072 
L 595 3520 
z
" transform="scale(0.015625)"/>
       </defs>
       <use xlink:href="#Ubuntu-31"/>
       <use xlink:href="#Ubuntu-30" x="56.399994"/>
       <use xlink:href="#Ubuntu-30" x="112.799988"/>
      </g>
     </g>
    </g>
    <g id="xtick_5">
     <g id="line2d_5">
      <g>
       <use xlink:href="#mb881adebdf" x="391.8575" y="126.18375" style="fill: #cecece; stroke: #cecece; stroke-width: 0.75"/>
      </g>
     </g>
     <g id="text_5">
      <!-- 110 -->
      <g style="fill: #808080" transform="translate(385.08875 141.39125) scale(0.08 -0.08)">
       <use xlink:href="#Ubuntu-31"/>
       <use xlink:href="#Ubuntu-31" x="56.399994"/>
       <use xlink:href="#Ubuntu-30" x="112.799988"/>
      </g>
     </g>
    </g>
    <g id="xtick_6">
     <g id="line2d_6">
      <g>
       <use xlink:href="#mb881adebdf" x="481.1375" y="126.18375" style="fill: #cecece; stroke: #cecece; stroke-width: 0.75"/>
      </g>
     </g>
     <g id="text_6">
      <!-- 120 -->
      <g style="fill: #808080" transform="translate(474.36875 141.39125) scale(0.08 -0.08)">
       <defs>
        <path id="Ubuntu-32" d="M 2989 3302 
Q 2989 3072 2896 2857 
Q 2803 2643 2649 2435 
Q 2496 2227 2304 2025 
Q 2112 1824 1920 1632 
Q 1811 1523 1667 1376 
Q 1523 1229 1395 1069 
Q 1267 909 1180 761 
Q 1094 614 1094 506 
L 3136 506 
L 3136 0 
L 448 0 
Q 442 38 442 76 
Q 442 115 442 147 
Q 442 448 541 707 
Q 640 966 800 1196 
Q 960 1427 1158 1632 
Q 1357 1837 1549 2029 
Q 1709 2182 1853 2332 
Q 1997 2483 2109 2633 
Q 2221 2784 2288 2944 
Q 2355 3104 2355 3283 
Q 2355 3475 2294 3609 
Q 2234 3744 2131 3833 
Q 2029 3923 1891 3964 
Q 1754 4006 1600 4006 
Q 1414 4006 1260 3955 
Q 1107 3904 985 3837 
Q 864 3770 781 3696 
Q 698 3622 653 3584 
L 358 4006 
Q 416 4070 531 4163 
Q 646 4256 806 4339 
Q 966 4422 1164 4480 
Q 1363 4538 1594 4538 
Q 2291 4538 2640 4214 
Q 2989 3891 2989 3302 
z
" transform="scale(0.015625)"/>
       </defs>
       <use xlink:href="#Ubuntu-31"/>
       <use xlink:href="#Ubuntu-32" x="56.399994"/>
       <use xlink:href="#Ubuntu-30" x="112.799988"/>
      </g>
     </g>
    </g>
   </g>
   <g id="matplotlib.axis_2">
    <g id="ytick_1">
     <g id="line2d_7">
      <defs>
       <path id="m5f878e8402" d="M 0 0 
L -3 0 
" style="stroke: #cecece; stroke-width: 0.75"/>
      </defs>
      <g>
       <use xlink:href="#m5f878e8402" x="29.7375" y="121.18375" style="fill: #cecece; stroke: #cecece; stroke-width: 0.75"/>
      </g>
     </g>
     <g id="text_7">
      <!-- 0 -->
      <g style="fill: #808080" transform="translate(16.225 124.2875) scale(0.08 -0.08)">
       <use xlink:href="#Ubuntu-30"/>
      </g>
     </g>
    </g>
    <g id="ytick_2">
     <g id="line2d_8">
      <g>
       <use xlink:href="#m5f878e8402" x="29.7375" y="99.00775" style="fill: #cecece; stroke: #cecece; stroke-width: 0.75"/>
      </g>
     </g>
     <g id="text_8">
      <!-- 100 -->
      <g style="fill: #808080" transform="translate(7.2 102.1115) scale(0.08 -0.08)">
       <use xlink:href="#Ubuntu-31"/>
       <use xlink:href="#Ubuntu-30" x="56.399994"/>
       <use xlink:href="#Ubuntu-30" x="112.799988"/>
      </g>
     </g>
    </g>
    <g id="ytick_3">
     <g id="line2d_9">
      <g>
       <use xlink:href="#m5f878e8402" x="29.7375" y="76.83175" style="fill: #cecece; stroke: #cecece; stroke-width: 0.75"/>
      </g>
     </g>
     <g id="text_9">
      <!-- 200 -->
      <g style="fill: #808080" transform="translate(7.2 79.9355) scale(0.08 -0.08)">
       <use xlink:href="#Ubuntu-32"/>
       <use xlink:href="#Ubuntu-30" x="56.399994"/>
       <use xlink:href="#Ubuntu-30" x="112.799988"/>
      </g>
     </g>
    </g>
    <g id="ytick_4">
     <g id="line2d_10">
      <g>
       <use xlink:href="#m5f878e8402" x="29.7375" y="54.65575" style="fill: #cecece; stroke: #cecece; stroke-width: 0.75"/>
      </g>
     </g>
     <g id="text_10">
      <!-- 300 -->
      <g style="fill: #808080" transform="translate(7.2 57.7595) scale(0.08 -0.08)">
       <defs>
        <path id="Ubuntu-33" d="M 1446 435 
Q 2016 435 2262 659 
Q 2509 883 2509 1261 
Q 2509 1504 2406 1670 
Q 2304 1837 2137 1936 
Q 1971 2035 1750 2076 
Q 1530 2118 1299 2118 
L 1146 2118 
L 1146 2605 
L 1357 2605 
Q 1517 2605 1686 2637 
Q 1856 2669 1997 2752 
Q 2138 2835 2227 2979 
Q 2317 3123 2317 3341 
Q 2317 3520 2253 3648 
Q 2189 3776 2083 3859 
Q 1978 3942 1840 3977 
Q 1702 4013 1549 4013 
Q 1242 4013 1027 3923 
Q 813 3834 666 3738 
L 435 4192 
Q 512 4243 630 4304 
Q 749 4365 896 4416 
Q 1043 4467 1212 4502 
Q 1382 4538 1568 4538 
Q 1920 4538 2176 4451 
Q 2432 4365 2598 4208 
Q 2765 4051 2848 3836 
Q 2931 3622 2931 3373 
Q 2931 3027 2732 2780 
Q 2534 2534 2253 2406 
Q 2426 2355 2586 2259 
Q 2746 2163 2864 2016 
Q 2982 1869 3056 1677 
Q 3130 1485 3130 1248 
Q 3130 960 3030 713 
Q 2931 467 2723 288 
Q 2515 109 2201 6 
Q 1888 -96 1459 -96 
Q 1293 -96 1117 -70 
Q 941 -45 787 -6 
Q 634 32 518 70 
Q 403 109 352 134 
L 467 653 
Q 576 602 829 518 
Q 1082 435 1446 435 
z
" transform="scale(0.015625)"/>
       </defs>
       <use xlink:href="#Ubuntu-33"/>
       <use xlink:href="#Ubuntu-30" x="56.399994"/>
       <use xlink:href="#Ubuntu-30" x="112.799988"/>
      </g>
     </g>
    </g>
    <g id="ytick_5">
     <g id="line2d_11">
      <g>
       <use xlink:href="#m5f878e8402" x="29.7375" y="32.47975" style="fill: #cecece; stroke: #cecece; stroke-width: 0.75"/>
      </g>
     </g>
     <g id="text_11">
      <!-- 400 -->
      <g style="fill: #808080" transform="translate(7.2 35.5835) scale(0.08 -0.08)">
       <defs>
        <path id="Ubuntu-34" d="M 256 1536 
Q 378 1818 589 2192 
Q 800 2566 1065 2963 
Q 1331 3360 1635 3744 
Q 1939 4128 2246 4435 
L 2816 4435 
L 2816 1619 
L 3341 1619 
L 3341 1133 
L 2816 1133 
L 2816 0 
L 2240 0 
L 2240 1133 
L 256 1133 
L 256 1536 
z
M 2240 3731 
Q 2048 3526 1853 3273 
Q 1658 3021 1472 2745 
Q 1286 2470 1123 2182 
Q 960 1894 832 1619 
L 2240 1619 
L 2240 3731 
z
" transform="scale(0.015625)"/>
       </defs>
       <use xlink:href="#Ubuntu-34"/>
       <use xlink:href="#Ubuntu-30" x="56.399994"/>
       <use xlink:href="#Ubuntu-30" x="112.799988"/>
      </g>
     </g>
    </g>
    <g id="ytick_6">
     <g id="line2d_12">
      <g>
       <use xlink:href="#m5f878e8402" x="29.7375" y="10.30375" style="fill: #cecece; stroke: #cecece; stroke-width: 0.75"/>
      </g>
     </g>
     <g id="text_12">
      <!-- 500 -->
      <g style="fill: #808080" transform="translate(7.2 13.4075) scale(0.08 -0.08)">
       <defs>
        <path id="Ubuntu-35" d="M 1274 2726 
Q 2240 2688 2691 2304 
Q 3142 1920 3142 1261 
Q 3142 966 3043 716 
Q 2944 467 2742 288 
Q 2541 109 2233 6 
Q 1926 -96 1504 -96 
Q 1338 -96 1165 -70 
Q 992 -45 845 -6 
Q 698 32 582 70 
Q 467 109 416 134 
L 531 653 
Q 640 602 886 518 
Q 1133 435 1491 435 
Q 1779 435 1974 499 
Q 2170 563 2291 672 
Q 2413 781 2467 925 
Q 2522 1069 2522 1229 
Q 2522 1472 2438 1661 
Q 2355 1850 2144 1978 
Q 1933 2106 1581 2173 
Q 1229 2240 691 2240 
Q 730 2554 752 2829 
Q 774 3104 793 3366 
Q 813 3629 825 3888 
Q 838 4147 851 4435 
L 2989 4435 
L 2989 3930 
L 1370 3930 
Q 1363 3834 1350 3670 
Q 1338 3507 1325 3331 
Q 1312 3155 1299 2988 
Q 1286 2822 1274 2726 
z
" transform="scale(0.015625)"/>
       </defs>
       <use xlink:href="#Ubuntu-35"/>
       <use xlink:href="#Ubuntu-30" x="56.399994"/>
       <use xlink:href="#Ubuntu-30" x="112.799988"/>
      </g>
     </g>
    </g>
   </g>
   <g id="patch_3">
    <path d="M 103.914921 121.18375 
L 108.315841 121.18375 
L 108.315841 120.51847 
L 103.914921 120.51847 
z
" clip-path="url(#pdd0bb98b13)" style="fill: #c38463; stroke: #fefefe; stroke-linejoin: miter"/>
   </g>
   <g id="patch_4">
    <path d="M 108.315841 121.18375 
L 112.716762 121.18375 
L 112.716762 121.18375 
L 108.315841 121.18375 
z
" clip-path="url(#pdd0bb98b13)" style="fill: #c38463; stroke: #fefefe; stroke-linejoin: miter"/>
   </g>
   <g id="patch_5">
    <path d="M 112.716762 121.18375 
L 117.117682 121.18375 
L 117.117682 120.51847 
L 112.716762 120.51847 
z
" clip-path="url(#pdd0bb98b13)" style="fill: #c38463; stroke: #fefefe; stroke-linejoin: miter"/>
   </g>
   <g id="patch_6">
    <path d="M 117.117682 121.18375 
L 121.518602 121.18375 
L 121.518602 120.96199 
L 117.117682 120.96199 
z
" clip-path="url(#pdd0bb98b13)" style="fill: #c38463; stroke: #fefefe; stroke-linejoin: miter"/>
   </g>
   <g id="patch_7">
    <path d="M 121.518602 121.18375 
L 125.919522 121.18375 
L 125.919522 120.29671 
L 121.518602 120.29671 
z
" clip-path="url(#pdd0bb98b13)" style="fill: #c38463; stroke: #fefefe; stroke-linejoin: miter"/>
   </g>
   <g id="patch_8">
    <path d="M 125.919522 121.18375 
L 130.320443 121.18375 
L 130.320443 120.29671 
L 125.919522 120.29671 
z
" clip-path="url(#pdd0bb98b13)" style="fill: #c38463; stroke: #fefefe; stroke-linejoin: miter"/>
   </g>
   <g id="patch_9">
    <path d="M 130.320443 121.18375 
L 134.721363 121.18375 
L 134.721363 118.74439 
L 130.320443 118.74439 
z
" clip-path="url(#pdd0bb98b13)" style="fill: #c38463; stroke: #fefefe; stroke-linejoin: miter"/>
   </g>
   <g id="patch_10">
    <path d="M 134.721363 121.18375 
L 139.122283 121.18375 
L 139.122283 120.51847 
L 134.721363 120.51847 
z
" clip-path="url(#pdd0bb98b13)" style="fill: #c38463; stroke: #fefefe; stroke-linejoin: miter"/>
   </g>
   <g id="patch_11">
    <path d="M 139.122283 121.18375 
L 143.523204 121.18375 
L 143.523204 117.41383 
L 139.122283 117.41383 
z
" clip-path="url(#pdd0bb98b13)" style="fill: #c38463; stroke: #fefefe; stroke-linejoin: miter"/>
   </g>
   <g id="patch_12">
    <path d="M 143.523204 121.18375 
L 147.924124 121.18375 
L 147.924124 117.19207 
L 143.523204 117.19207 
z
" clip-path="url(#pdd0bb98b13)" style="fill: #c38463; stroke: #fefefe; stroke-linejoin: miter"/>
   </g>
   <g id="patch_13">
    <path d="M 147.924124 121.18375 
L 152.325044 121.18375 
L 152.325044 116.30503 
L 147.924124 116.30503 
z
" clip-path="url(#pdd0bb98b13)" style="fill: #c38463; stroke: #fefefe; stroke-linejoin: miter"/>
   </g>
   <g id="patch_14">
    <path d="M 152.325044 121.18375 
L 156.725965 121.18375 
L 156.725965 114.30919 
L 152.325044 114.30919 
z
" clip-path="url(#pdd0bb98b13)" style="fill: #c38463; stroke: #fefefe; stroke-linejoin: miter"/>
   </g>
   <g id="patch_15">
    <path d="M 156.725965 121.18375 
L 161.126885 121.18375 
L 161.126885 112.09159 
L 156.725965 112.09159 
z
" clip-path="url(#pdd0bb98b13)" style="fill: #c38463; stroke: #fefefe; stroke-linejoin: miter"/>
   </g>
   <g id="patch_16">
    <path d="M 161.126885 121.18375 
L 165.527805 121.18375 
L 165.527805 111.42631 
L 161.126885 111.42631 
z
" clip-path="url(#pdd0bb98b13)" style="fill: #c38463; stroke: #fefefe; stroke-linejoin: miter"/>
   </g>
   <g id="patch_17">
    <path d="M 165.527805 121.18375 
L 169.928726 121.18375 
L 169.928726 107.87815 
L 165.527805 107.87815 
z
" clip-path="url(#pdd0bb98b13)" style="fill: #c38463; stroke: #fefefe; stroke-linejoin: miter"/>
   </g>
   <g id="patch_18">
    <path d="M 169.928726 121.18375 
L 174.329646 121.18375 
L 174.329646 105.88231 
L 169.928726 105.88231 
z
" clip-path="url(#pdd0bb98b13)" style="fill: #c38463; stroke: #fefefe; stroke-linejoin: miter"/>
   </g>
   <g id="patch_19">
    <path d="M 174.329646 121.18375 
L 178.730566 121.18375 
L 178.730566 105.66055 
L 174.329646 105.66055 
z
" clip-path="url(#pdd0bb98b13)" style="fill: #c38463; stroke: #fefefe; stroke-linejoin: miter"/>
   </g>
   <g id="patch_20">
    <path d="M 178.730566 121.18375 
L 183.131486 121.18375 
L 183.131486 100.78183 
L 178.730566 100.78183 
z
" clip-path="url(#pdd0bb98b13)" style="fill: #c38463; stroke: #fefefe; stroke-linejoin: miter"/>
   </g>
   <g id="patch_21">
    <path d="M 183.131486 121.18375 
L 187.532407 121.18375 
L 187.532407 99.22951 
L 183.131486 99.22951 
z
" clip-path="url(#pdd0bb98b13)" style="fill: #c38463; stroke: #fefefe; stroke-linejoin: miter"/>
   </g>
   <g id="patch_22">
    <path d="M 187.532407 121.18375 
L 191.933327 121.18375 
L 191.933327 91.46791 
L 187.532407 91.46791 
z
" clip-path="url(#pdd0bb98b13)" style="fill: #c38463; stroke: #fefefe; stroke-linejoin: miter"/>
   </g>
   <g id="patch_23">
    <path d="M 191.933327 121.18375 
L 196.334247 121.18375 
L 196.334247 91.02439 
L 191.933327 91.02439 
z
" clip-path="url(#pdd0bb98b13)" style="fill: #c38463; stroke: #fefefe; stroke-linejoin: miter"/>
   </g>
   <g id="patch_24">
    <path d="M 196.334247 121.18375 
L 200.735168 121.18375 
L 200.735168 83.26279 
L 196.334247 83.26279 
z
" clip-path="url(#pdd0bb98b13)" style="fill: #c38463; stroke: #fefefe; stroke-linejoin: miter"/>
   </g>
   <g id="patch_25">
    <path d="M 200.735168 121.18375 
L 205.136088 121.18375 
L 205.136088 81.04519 
L 200.735168 81.04519 
z
" clip-path="url(#pdd0bb98b13)" style="fill: #c38463; stroke: #fefefe; stroke-linejoin: miter"/>
   </g>
   <g id="patch_26">
    <path d="M 205.136088 121.18375 
L 209.537008 121.18375 
L 209.537008 77.05351 
L 205.136088 77.05351 
z
" clip-path="url(#pdd0bb98b13)" style="fill: #c38463; stroke: #fefefe; stroke-linejoin: miter"/>
   </g>
   <g id="patch_27">
    <path d="M 209.537008 121.18375 
L 213.937929 121.18375 
L 213.937929 67.07431 
L 209.537008 67.07431 
z
" clip-path="url(#pdd0bb98b13)" style="fill: #c38463; stroke: #fefefe; stroke-linejoin: miter"/>
   </g>
   <g id="patch_28">
    <path d="M 213.937929 121.18375 
L 218.338849 121.18375 
L 218.338849 67.07431 
L 213.937929 67.07431 
z
" clip-path="url(#pdd0bb98b13)" style="fill: #c38463; stroke: #fefefe; stroke-linejoin: miter"/>
   </g>
   <g id="patch_29">
    <path d="M 218.338849 121.18375 
L 222.739769 121.18375 
L 222.739769 49.99879 
L 218.338849 49.99879 
z
" clip-path="url(#pdd0bb98b13)" style="fill: #c38463; stroke: #fefefe; stroke-linejoin: miter"/>
   </g>
   <g id="patch_30">
    <path d="M 222.739769 121.18375 
L 227.14069 121.18375 
L 227.14069 53.54695 
L 222.739769 53.54695 
z
" clip-path="url(#pdd0bb98b13)" style="fill: #c38463; stroke: #fefefe; stroke-linejoin: miter"/>
   </g>
   <g id="patch_31">
    <path d="M 227.14069 121.18375 
L 231.54161 121.18375 
L 231.54161 45.34183 
L 227.14069 45.34183 
z
" clip-path="url(#pdd0bb98b13)" style="fill: #c38463; stroke: #fefefe; stroke-linejoin: miter"/>
   </g>
   <g id="patch_32">
    <path d="M 231.54161 121.18375 
L 235.94253 121.18375 
L 235.94253 42.45895 
L 231.54161 42.45895 
z
" clip-path="url(#pdd0bb98b13)" style="fill: #c38463; stroke: #fefefe; stroke-linejoin: miter"/>
   </g>
   <g id="patch_33">
    <path d="M 235.94253 121.18375 
L 240.34345 121.18375 
L 240.34345 47.55943 
L 235.94253 47.55943 
z
" clip-path="url(#pdd0bb98b13)" style="fill: #c38463; stroke: #fefefe; stroke-linejoin: miter"/>
   </g>
   <g id="patch_34">
    <path d="M 240.34345 121.18375 
L 244.744371 121.18375 
L 244.744371 40.46311 
L 240.34345 40.46311 
z
" clip-path="url(#pdd0bb98b13)" style="fill: #c38463; stroke: #fefefe; stroke-linejoin: miter"/>
   </g>
   <g id="patch_35">
    <path d="M 244.744371 121.18375 
L 249.145291 121.18375 
L 249.145291 35.80615 
L 244.744371 35.80615 
z
" clip-path="url(#pdd0bb98b13)" style="fill: #c38463; stroke: #fefefe; stroke-linejoin: miter"/>
   </g>
   <g id="patch_36">
    <path d="M 249.145291 121.18375 
L 253.546211 121.18375 
L 253.546211 31.14919 
L 249.145291 31.14919 
z
" clip-path="url(#pdd0bb98b13)" style="fill: #c38463; stroke: #fefefe; stroke-linejoin: miter"/>
   </g>
   <g id="patch_37">
    <path d="M 253.546211 121.18375 
L 257.947132 121.18375 
L 257.947132 46.67239 
L 253.546211 46.67239 
z
" clip-path="url(#pdd0bb98b13)" style="fill: #c38463; stroke: #fefefe; stroke-linejoin: miter"/>
   </g>
   <g id="patch_38">
    <path d="M 257.947132 121.18375 
L 262.348052 121.18375 
L 262.348052 43.56775 
L 257.947132 43.56775 
z
" clip-path="url(#pdd0bb98b13)" style="fill: #c38463; stroke: #fefefe; stroke-linejoin: miter"/>
   </g>
   <g id="patch_39">
    <path d="M 262.348052 121.18375 
L 266.748972 121.18375 
L 266.748972 35.80615 
L 262.348052 35.80615 
z
" clip-path="url(#pdd0bb98b13)" style="fill: #c38463; stroke: #fefefe; stroke-linejoin: miter"/>
   </g>
   <g id="patch_40">
    <path d="M 266.748972 121.18375 
L 271.149893 121.18375 
L 271.149893 33.58855 
L 266.748972 33.58855 
z
" clip-path="url(#pdd0bb98b13)" style="fill: #c38463; stroke: #fefefe; stroke-linejoin: miter"/>
   </g>
   <g id="patch_41">
    <path d="M 271.149893 121.18375 
L 275.550813 121.18375 
L 275.550813 41.79367 
L 271.149893 41.79367 
z
" clip-path="url(#pdd0bb98b13)" style="fill: #c38463; stroke: #fefefe; stroke-linejoin: miter"/>
   </g>
   <g id="patch_42">
    <path d="M 275.550813 121.18375 
L 279.951733 121.18375 
L 279.951733 42.68071 
L 275.550813 42.68071 
z
" clip-path="url(#pdd0bb98b13)" style="fill: #c38463; stroke: #fefefe; stroke-linejoin: miter"/>
   </g>
   <g id="patch_43">
    <path d="M 279.951733 121.18375 
L 284.352654 121.18375 
L 284.352654 51.77287 
L 279.951733 51.77287 
z
" clip-path="url(#pdd0bb98b13)" style="fill: #c38463; stroke: #fefefe; stroke-linejoin: miter"/>
   </g>
   <g id="patch_44">
    <path d="M 284.352654 121.18375 
L 288.753574 121.18375 
L 288.753574 53.32519 
L 284.352654 53.32519 
z
" clip-path="url(#pdd0bb98b13)" style="fill: #c38463; stroke: #fefefe; stroke-linejoin: miter"/>
   </g>
   <g id="patch_45">
    <path d="M 288.753574 121.18375 
L 293.154494 121.18375 
L 293.154494 48.88999 
L 288.753574 48.88999 
z
" clip-path="url(#pdd0bb98b13)" style="fill: #c38463; stroke: #fefefe; stroke-linejoin: miter"/>
   </g>
   <g id="patch_46">
    <path d="M 293.154494 121.18375 
L 297.555414 121.18375 
L 297.555414 61.08679 
L 293.154494 61.08679 
z
" clip-path="url(#pdd0bb98b13)" style="fill: #c38463; stroke: #fefefe; stroke-linejoin: miter"/>
   </g>
   <g id="patch_47">
    <path d="M 297.555414 121.18375 
L 301.956335 121.18375 
L 301.956335 58.42567 
L 297.555414 58.42567 
z
" clip-path="url(#pdd0bb98b13)" style="fill: #c38463; stroke: #fefefe; stroke-linejoin: miter"/>
   </g>
   <g id="patch_48">
    <path d="M 301.956335 121.18375 
L 306.357255 121.18375 
L 306.357255 66.40903 
L 301.956335 66.40903 
z
" clip-path="url(#pdd0bb98b13)" style="fill: #c38463; stroke: #fefefe; stroke-linejoin: miter"/>
   </g>
   <g id="patch_49">
    <path d="M 306.357255 121.18375 
L 310.758175 121.18375 
L 310.758175 75.27943 
L 306.357255 75.27943 
z
" clip-path="url(#pdd0bb98b13)" style="fill: #c38463; stroke: #fefefe; stroke-linejoin: miter"/>
   </g>
   <g id="patch_50">
    <path d="M 310.758175 121.18375 
L 315.159096 121.18375 
L 315.159096 81.71047 
L 310.758175 81.71047 
z
" clip-path="url(#pdd0bb98b13)" style="fill: #c38463; stroke: #fefefe; stroke-linejoin: miter"/>
   </g>
   <g id="patch_51">
    <path d="M 315.159096 121.18375 
L 319.560016 121.18375 
L 319.560016 85.03687 
L 315.159096 85.03687 
z
" clip-path="url(#pdd0bb98b13)" style="fill: #c38463; stroke: #fefefe; stroke-linejoin: miter"/>
   </g>
   <g id="patch_52">
    <path d="M 319.560016 121.18375 
L 323.960936 121.18375 
L 323.960936 92.13319 
L 319.560016 92.13319 
z
" clip-path="url(#pdd0bb98b13)" style="fill: #c38463; stroke: #fefefe; stroke-linejoin: miter"/>
   </g>
   <g id="patch_53">
    <path d="M 323.960936 121.18375 
L 328.361857 121.18375 
L 328.361857 92.35495 
L 323.960936 92.35495 
z
" clip-path="url(#pdd0bb98b13)" style="fill: #c38463; stroke: #fefefe; stroke-linejoin: miter"/>
   </g>
   <g id="patch_54">
    <path d="M 328.361857 121.18375 
L 332.762777 121.18375 
L 332.762777 94.79431 
L 328.361857 94.79431 
z
" clip-path="url(#pdd0bb98b13)" style="fill: #c38463; stroke: #fefefe; stroke-linejoin: miter"/>
   </g>
   <g id="patch_55">
    <path d="M 332.762777 121.18375 
L 337.163697 121.18375 
L 337.163697 100.78183 
L 332.762777 100.78183 
z
" clip-path="url(#pdd0bb98b13)" style="fill: #c38463; stroke: #fefefe; stroke-linejoin: miter"/>
   </g>
   <g id="patch_56">
    <path d="M 337.163697 121.18375 
L 341.564618 121.18375 
L 341.564618 106.76935 
L 337.163697 106.76935 
z
" clip-path="url(#pdd0bb98b13)" style="fill: #c38463; stroke: #fefefe; stroke-linejoin: miter"/>
   </g>
   <g id="patch_57">
    <path d="M 341.564618 121.18375 
L 345.965538 121.18375 
L 345.965538 109.65223 
L 341.564618 109.65223 
z
" clip-path="url(#pdd0bb98b13)" style="fill: #c38463; stroke: #fefefe; stroke-linejoin: miter"/>
   </g>
   <g id="patch_58">
    <path d="M 345.965538 121.18375 
L 350.366458 121.18375 
L 350.366458 110.98279 
L 345.965538 110.98279 
z
" clip-path="url(#pdd0bb98b13)" style="fill: #c38463; stroke: #fefefe; stroke-linejoin: miter"/>
   </g>
   <g id="patch_59">
    <path d="M 350.366458 121.18375 
L 354.767378 121.18375 
L 354.767378 113.42215 
L 350.366458 113.42215 
z
" clip-path="url(#pdd0bb98b13)" style="fill: #c38463; stroke: #fefefe; stroke-linejoin: miter"/>
   </g>
   <g id="patch_60">
    <path d="M 354.767378 121.18375 
L 359.168299 121.18375 
L 359.168299 113.64391 
L 354.767378 113.64391 
z
" clip-path="url(#pdd0bb98b13)" style="fill: #c38463; stroke: #fefefe; stroke-linejoin: miter"/>
   </g>
   <g id="patch_61">
    <path d="M 359.168299 121.18375 
L 363.569219 121.18375 
L 363.569219 114.75271 
L 359.168299 114.75271 
z
" clip-path="url(#pdd0bb98b13)" style="fill: #c38463; stroke: #fefefe; stroke-linejoin: miter"/>
   </g>
   <g id="patch_62">
    <path d="M 363.569219 121.18375 
L 367.970139 121.18375 
L 367.970139 117.85735 
L 363.569219 117.85735 
z
" clip-path="url(#pdd0bb98b13)" style="fill: #c38463; stroke: #fefefe; stroke-linejoin: miter"/>
   </g>
   <g id="patch_63">
    <path d="M 367.970139 121.18375 
L 372.37106 121.18375 
L 372.37106 115.86151 
L 367.970139 115.86151 
z
" clip-path="url(#pdd0bb98b13)" style="fill: #c38463; stroke: #fefefe; stroke-linejoin: miter"/>
   </g>
   <g id="patch_64">
    <path d="M 372.37106 121.18375 
L 376.77198 121.18375 
L 376.77198 118.74439 
L 372.37106 118.74439 
z
" clip-path="url(#pdd0bb98b13)" style="fill: #c38463; stroke: #fefefe; stroke-linejoin: miter"/>
   </g>
   <g id="patch_65">
    <path d="M 376.77198 121.18375 
L 381.1729 121.18375 
L 381.1729 119.40967 
L 376.77198 119.40967 
z
" clip-path="url(#pdd0bb98b13)" style="fill: #c38463; stroke: #fefefe; stroke-linejoin: miter"/>
   </g>
   <g id="patch_66">
    <path d="M 381.1729 121.18375 
L 385.573821 121.18375 
L 385.573821 119.85319 
L 381.1729 119.85319 
z
" clip-path="url(#pdd0bb98b13)" style="fill: #c38463; stroke: #fefefe; stroke-linejoin: miter"/>
   </g>
   <g id="patch_67">
    <path d="M 385.573821 121.18375 
L 389.974741 121.18375 
L 389.974741 119.40967 
L 385.573821 119.40967 
z
" clip-path="url(#pdd0bb98b13)" style="fill: #c38463; stroke: #fefefe; stroke-linejoin: miter"/>
   </g>
   <g id="patch_68">
    <path d="M 389.974741 121.18375 
L 394.375661 121.18375 
L 394.375661 121.18375 
L 389.974741 121.18375 
z
" clip-path="url(#pdd0bb98b13)" style="fill: #c38463; stroke: #fefefe; stroke-linejoin: miter"/>
   </g>
   <g id="patch_69">
    <path d="M 394.375661 121.18375 
L 398.776582 121.18375 
L 398.776582 119.63143 
L 394.375661 119.63143 
z
" clip-path="url(#pdd0bb98b13)" style="fill: #c38463; stroke: #fefefe; stroke-linejoin: miter"/>
   </g>
   <g id="patch_70">
    <path d="M 398.776582 121.18375 
L 403.177502 121.18375 
L 403.177502 120.96199 
L 398.776582 120.96199 
z
" clip-path="url(#pdd0bb98b13)" style="fill: #c38463; stroke: #fefefe; stroke-linejoin: miter"/>
   </g>
   <g id="patch_71">
    <path d="M 403.177502 121.18375 
L 407.578422 121.18375 
L 407.578422 121.18375 
L 403.177502 121.18375 
z
" clip-path="url(#pdd0bb98b13)" style="fill: #c38463; stroke: #fefefe; stroke-linejoin: miter"/>
   </g>
   <g id="patch_72">
    <path d="M 407.578422 121.18375 
L 411.979342 121.18375 
L 411.979342 121.18375 
L 407.578422 121.18375 
z
" clip-path="url(#pdd0bb98b13)" style="fill: #c38463; stroke: #fefefe; stroke-linejoin: miter"/>
   </g>
   <g id="patch_73">
    <path d="M 411.979342 121.18375 
L 416.380263 121.18375 
L 416.380263 120.51847 
L 411.979342 120.51847 
z
" clip-path="url(#pdd0bb98b13)" style="fill: #c38463; stroke: #fefefe; stroke-linejoin: miter"/>
   </g>
   <g id="patch_74">
    <path d="M 416.380263 121.18375 
L 420.781183 121.18375 
L 420.781183 121.18375 
L 416.380263 121.18375 
z
" clip-path="url(#pdd0bb98b13)" style="fill: #c38463; stroke: #fefefe; stroke-linejoin: miter"/>
   </g>
   <g id="patch_75">
    <path d="M 420.781183 121.18375 
L 425.182103 121.18375 
L 425.182103 121.18375 
L 420.781183 121.18375 
z
" clip-path="url(#pdd0bb98b13)" style="fill: #c38463; stroke: #fefefe; stroke-linejoin: miter"/>
   </g>
   <g id="patch_76">
    <path d="M 425.182103 121.18375 
L 429.583024 121.18375 
L 429.583024 121.18375 
L 425.182103 121.18375 
z
" clip-path="url(#pdd0bb98b13)" style="fill: #c38463; stroke: #fefefe; stroke-linejoin: miter"/>
   </g>
   <g id="patch_77">
    <path d="M 429.583024 121.18375 
L 433.983944 121.18375 
L 433.983944 120.96199 
L 429.583024 120.96199 
z
" clip-path="url(#pdd0bb98b13)" style="fill: #c38463; stroke: #fefefe; stroke-linejoin: miter"/>
   </g>
   <g id="patch_78">
    <path d="M 29.7375 121.18375 
L 29.7375 10.30375 
" style="fill: none; stroke: #cccccc; stroke-width: 0.75; stroke-linejoin: miter; stroke-linecap: square"/>
   </g>
   <g id="patch_79">
    <path d="M 34.7375 126.18375 
L 481.1375 126.18375 
" style="fill: none; stroke: #cccccc; stroke-width: 0.75; stroke-linejoin: miter; stroke-linecap: square"/>
   </g>
  </g>
 </g>
 <defs>
  <clipPath id="pdd0bb98b13">
   <rect x="34.7375" y="10.30375" width="446.4" height="110.88"/>
  </clipPath>
 </defs>
</svg>
