<?xml version="1.0" encoding="utf-8" standalone="no"?>
<!DOCTYPE svg PUBLIC "-//W3C//DTD SVG 1.1//EN"
  "http://www.w3.org/Graphics/SVG/1.1/DTD/svg11.dtd">
<svg xmlns:xlink="http://www.w3.org/1999/xlink" width="495.10625pt" height="150.07125pt" viewBox="0 0 495.10625 150.07125" xmlns="http://www.w3.org/2000/svg" version="1.1">
 <metadata>
  <rdf:RDF xmlns:dc="http://purl.org/dc/elements/1.1/" xmlns:cc="http://creativecommons.org/ns#" xmlns:rdf="http://www.w3.org/1999/02/22-rdf-syntax-ns#">
   <cc:Work>
    <dc:type rdf:resource="http://purl.org/dc/dcmitype/StillImage"/>
    <dc:date>2024-05-16T19:38:01.501099</dc:date>
    <dc:format>image/svg+xml</dc:format>
    <dc:creator>
     <cc:Agent>
      <dc:title>Matplotlib v3.8.4, https://matplotlib.org/</dc:title>
     </cc:Agent>
    </dc:creator>
   </cc:Work>
  </rdf:RDF>
 </metadata>
 <defs>
  <style type="text/css">*{stroke-linejoin: round; stroke-linecap: butt}</style>
 </defs>
 <g id="figure_1">
  <g id="patch_1">
   <path d="M 0 150.07125 
L 495.10625 150.07125 
L 495.10625 0 
L 0 0 
L 0 150.07125 
z
" style="fill: none"/>
  </g>
  <g id="axes_1">
   <g id="patch_2">
    <path d="M 34.7375 121.18375 
L 481.1375 121.18375 
L 481.1375 10.30375 
L 34.7375 10.30375 
L 34.7375 121.18375 
z
" style="fill: none"/>
   </g>
   <g id="matplotlib.axis_1">
    <g id="xtick_1">
     <g id="line2d_1">
      <defs>
       <path id="m2b982a59f5" d="M 0 0 
L 0 3 
" style="stroke: #cecece; stroke-width: 0.75"/>
      </defs>
      <g>
       <use xlink:href="#m2b982a59f5" x="34.7375" y="126.18375" style="fill: #cecece; stroke: #cecece; stroke-width: 0.75"/>
      </g>
     </g>
     <g id="text_1">
      <!-- 70 -->
      <g style="fill: #808080" transform="translate(30.225 141.39125) scale(0.08 -0.08)">
       <defs>
        <path id="Ubuntu-37" d="M 1043 0 
Q 1082 512 1226 1078 
Q 1370 1645 1581 2179 
Q 1792 2714 2045 3171 
Q 2298 3629 2541 3917 
L 384 3917 
L 384 4435 
L 3206 4435 
L 3206 3942 
Q 2995 3699 2739 3273 
Q 2483 2848 2256 2320 
Q 2029 1792 1865 1193 
Q 1702 595 1664 0 
L 1043 0 
z
" transform="scale(0.015625)"/>
        <path id="Ubuntu-30" d="M 320 2221 
Q 320 3334 713 3936 
Q 1107 4538 1805 4538 
Q 2502 4538 2896 3936 
Q 3290 3334 3290 2221 
Q 3290 1107 2896 505 
Q 2502 -96 1805 -96 
Q 1107 -96 713 505 
Q 320 1107 320 2221 
z
M 2662 2221 
Q 2662 2586 2620 2912 
Q 2579 3238 2480 3481 
Q 2381 3725 2214 3869 
Q 2048 4013 1805 4013 
Q 1562 4013 1395 3869 
Q 1229 3725 1129 3481 
Q 1030 3238 988 2912 
Q 947 2586 947 2221 
Q 947 1856 988 1529 
Q 1030 1203 1129 960 
Q 1229 717 1395 573 
Q 1562 429 1805 429 
Q 2048 429 2214 573 
Q 2381 717 2480 960 
Q 2579 1203 2620 1529 
Q 2662 1856 2662 2221 
z
" transform="scale(0.015625)"/>
       </defs>
       <use xlink:href="#Ubuntu-37"/>
       <use xlink:href="#Ubuntu-30" x="56.399994"/>
      </g>
     </g>
    </g>
    <g id="xtick_2">
     <g id="line2d_2">
      <g>
       <use xlink:href="#m2b982a59f5" x="124.0175" y="126.18375" style="fill: #cecece; stroke: #cecece; stroke-width: 0.75"/>
      </g>
     </g>
     <g id="text_2">
      <!-- 80 -->
      <g style="fill: #808080" transform="translate(119.505 141.39125) scale(0.08 -0.08)">
       <defs>
        <path id="Ubuntu-38" d="M 3258 1152 
Q 3258 883 3165 656 
Q 3072 429 2889 259 
Q 2707 90 2432 -3 
Q 2157 -96 1798 -96 
Q 1382 -96 1104 22 
Q 826 141 659 320 
Q 493 499 422 713 
Q 352 928 352 1120 
Q 352 1306 413 1475 
Q 474 1645 573 1792 
Q 672 1939 803 2057 
Q 934 2176 1082 2266 
Q 454 2624 454 3322 
Q 454 3565 550 3785 
Q 646 4006 822 4172 
Q 998 4339 1248 4438 
Q 1498 4538 1805 4538 
Q 2163 4538 2419 4429 
Q 2675 4320 2838 4150 
Q 3002 3981 3075 3776 
Q 3149 3571 3149 3379 
Q 3149 3194 3094 3030 
Q 3040 2867 2947 2726 
Q 2854 2586 2736 2477 
Q 2618 2368 2490 2285 
Q 3245 1926 3258 1152 
z
M 954 1114 
Q 954 998 995 873 
Q 1037 749 1139 643 
Q 1242 538 1402 467 
Q 1562 397 1805 397 
Q 2022 397 2185 461 
Q 2349 525 2451 624 
Q 2554 723 2605 851 
Q 2656 979 2656 1114 
Q 2656 1318 2579 1472 
Q 2502 1626 2358 1741 
Q 2214 1856 2012 1936 
Q 1811 2016 1555 2074 
Q 1267 1914 1110 1677 
Q 954 1440 954 1114 
z
M 2554 3386 
Q 2554 3482 2512 3597 
Q 2470 3712 2380 3811 
Q 2291 3910 2150 3977 
Q 2010 4045 1805 4045 
Q 1600 4045 1456 3981 
Q 1312 3917 1222 3817 
Q 1133 3718 1091 3600 
Q 1050 3482 1050 3366 
Q 1050 3226 1101 3085 
Q 1152 2944 1261 2822 
Q 1370 2701 1546 2605 
Q 1722 2509 1965 2451 
Q 2234 2611 2394 2825 
Q 2554 3040 2554 3386 
z
" transform="scale(0.015625)"/>
       </defs>
       <use xlink:href="#Ubuntu-38"/>
       <use xlink:href="#Ubuntu-30" x="56.399994"/>
      </g>
     </g>
    </g>
    <g id="xtick_3">
     <g id="line2d_3">
      <g>
       <use xlink:href="#m2b982a59f5" x="213.2975" y="126.18375" style="fill: #cecece; stroke: #cecece; stroke-width: 0.75"/>
      </g>
     </g>
     <g id="text_3">
      <!-- 90 -->
      <g style="fill: #808080" transform="translate(208.785 141.39125) scale(0.08 -0.08)">
       <defs>
        <path id="Ubuntu-39" d="M 3206 2662 
Q 3206 1344 2550 669 
Q 1894 -6 602 -13 
L 582 486 
Q 986 486 1309 563 
Q 1632 640 1875 809 
Q 2118 979 2281 1248 
Q 2445 1517 2522 1907 
Q 2355 1830 2144 1782 
Q 1933 1734 1709 1734 
Q 1331 1734 1068 1846 
Q 806 1958 640 2147 
Q 474 2336 400 2582 
Q 326 2829 326 3098 
Q 326 3334 409 3590 
Q 493 3846 662 4057 
Q 832 4269 1094 4403 
Q 1357 4538 1715 4538 
Q 2080 4538 2358 4410 
Q 2637 4282 2825 4038 
Q 3014 3795 3110 3446 
Q 3206 3098 3206 2662 
z
M 1773 2221 
Q 1997 2221 2195 2262 
Q 2394 2304 2579 2387 
Q 2586 2458 2586 2525 
Q 2586 2592 2586 2662 
Q 2586 2938 2547 3190 
Q 2509 3443 2409 3632 
Q 2310 3821 2144 3933 
Q 1978 4045 1722 4045 
Q 1510 4045 1363 3955 
Q 1216 3866 1120 3728 
Q 1024 3590 982 3427 
Q 941 3264 941 3110 
Q 941 2675 1149 2448 
Q 1357 2221 1773 2221 
z
" transform="scale(0.015625)"/>
       </defs>
       <use xlink:href="#Ubuntu-39"/>
       <use xlink:href="#Ubuntu-30" x="56.399994"/>
      </g>
     </g>
    </g>
    <g id="xtick_4">
     <g id="line2d_4">
      <g>
       <use xlink:href="#m2b982a59f5" x="302.5775" y="126.18375" style="fill: #cecece; stroke: #cecece; stroke-width: 0.75"/>
      </g>
     </g>
     <g id="text_4">
      <!-- 100 -->
      <g style="fill: #808080" transform="translate(295.80875 141.39125) scale(0.08 -0.08)">
       <defs>
        <path id="Ubuntu-31" d="M 595 3520 
Q 960 3661 1305 3881 
Q 1651 4102 1939 4435 
L 2362 4435 
L 2362 0 
L 1766 0 
L 1766 3610 
Q 1690 3539 1578 3462 
Q 1466 3386 1334 3315 
Q 1203 3245 1059 3181 
Q 915 3117 781 3072 
L 595 3520 
z
" transform="scale(0.015625)"/>
       </defs>
       <use xlink:href="#Ubuntu-31"/>
       <use xlink:href="#Ubuntu-30" x="56.399994"/>
       <use xlink:href="#Ubuntu-30" x="112.799988"/>
      </g>
     </g>
    </g>
    <g id="xtick_5">
     <g id="line2d_5">
      <g>
       <use xlink:href="#m2b982a59f5" x="391.8575" y="126.18375" style="fill: #cecece; stroke: #cecece; stroke-width: 0.75"/>
      </g>
     </g>
     <g id="text_5">
      <!-- 110 -->
      <g style="fill: #808080" transform="translate(385.08875 141.39125) scale(0.08 -0.08)">
       <use xlink:href="#Ubuntu-31"/>
       <use xlink:href="#Ubuntu-31" x="56.399994"/>
       <use xlink:href="#Ubuntu-30" x="112.799988"/>
      </g>
     </g>
    </g>
    <g id="xtick_6">
     <g id="line2d_6">
      <g>
       <use xlink:href="#m2b982a59f5" x="481.1375" y="126.18375" style="fill: #cecece; stroke: #cecece; stroke-width: 0.75"/>
      </g>
     </g>
     <g id="text_6">
      <!-- 120 -->
      <g style="fill: #808080" transform="translate(474.36875 141.39125) scale(0.08 -0.08)">
       <defs>
        <path id="Ubuntu-32" d="M 2989 3302 
Q 2989 3072 2896 2857 
Q 2803 2643 2649 2435 
Q 2496 2227 2304 2025 
Q 2112 1824 1920 1632 
Q 1811 1523 1667 1376 
Q 1523 1229 1395 1069 
Q 1267 909 1180 761 
Q 1094 614 1094 506 
L 3136 506 
L 3136 0 
L 448 0 
Q 442 38 442 76 
Q 442 115 442 147 
Q 442 448 541 707 
Q 640 966 800 1196 
Q 960 1427 1158 1632 
Q 1357 1837 1549 2029 
Q 1709 2182 1853 2332 
Q 1997 2483 2109 2633 
Q 2221 2784 2288 2944 
Q 2355 3104 2355 3283 
Q 2355 3475 2294 3609 
Q 2234 3744 2131 3833 
Q 2029 3923 1891 3964 
Q 1754 4006 1600 4006 
Q 1414 4006 1260 3955 
Q 1107 3904 985 3837 
Q 864 3770 781 3696 
Q 698 3622 653 3584 
L 358 4006 
Q 416 4070 531 4163 
Q 646 4256 806 4339 
Q 966 4422 1164 4480 
Q 1363 4538 1594 4538 
Q 2291 4538 2640 4214 
Q 2989 3891 2989 3302 
z
" transform="scale(0.015625)"/>
       </defs>
       <use xlink:href="#Ubuntu-31"/>
       <use xlink:href="#Ubuntu-32" x="56.399994"/>
       <use xlink:href="#Ubuntu-30" x="112.799988"/>
      </g>
     </g>
    </g>
   </g>
   <g id="matplotlib.axis_2">
    <g id="ytick_1">
     <g id="line2d_7">
      <defs>
       <path id="m0d5854cfae" d="M 0 0 
L -3 0 
" style="stroke: #cecece; stroke-width: 0.75"/>
      </defs>
      <g>
       <use xlink:href="#m0d5854cfae" x="29.7375" y="121.18375" style="fill: #cecece; stroke: #cecece; stroke-width: 0.75"/>
      </g>
     </g>
     <g id="text_7">
      <!-- 0 -->
      <g style="fill: #808080" transform="translate(16.225 124.2875) scale(0.08 -0.08)">
       <use xlink:href="#Ubuntu-30"/>
      </g>
     </g>
    </g>
    <g id="ytick_2">
     <g id="line2d_8">
      <g>
       <use xlink:href="#m0d5854cfae" x="29.7375" y="93.46375" style="fill: #cecece; stroke: #cecece; stroke-width: 0.75"/>
      </g>
     </g>
     <g id="text_8">
      <!-- 100 -->
      <g style="fill: #808080" transform="translate(7.2 96.5675) scale(0.08 -0.08)">
       <use xlink:href="#Ubuntu-31"/>
       <use xlink:href="#Ubuntu-30" x="56.399994"/>
       <use xlink:href="#Ubuntu-30" x="112.799988"/>
      </g>
     </g>
    </g>
    <g id="ytick_3">
     <g id="line2d_9">
      <g>
       <use xlink:href="#m0d5854cfae" x="29.7375" y="65.74375" style="fill: #cecece; stroke: #cecece; stroke-width: 0.75"/>
      </g>
     </g>
     <g id="text_9">
      <!-- 200 -->
      <g style="fill: #808080" transform="translate(7.2 68.8475) scale(0.08 -0.08)">
       <use xlink:href="#Ubuntu-32"/>
       <use xlink:href="#Ubuntu-30" x="56.399994"/>
       <use xlink:href="#Ubuntu-30" x="112.799988"/>
      </g>
     </g>
    </g>
    <g id="ytick_4">
     <g id="line2d_10">
      <g>
       <use xlink:href="#m0d5854cfae" x="29.7375" y="38.02375" style="fill: #cecece; stroke: #cecece; stroke-width: 0.75"/>
      </g>
     </g>
     <g id="text_10">
      <!-- 300 -->
      <g style="fill: #808080" transform="translate(7.2 41.1275) scale(0.08 -0.08)">
       <defs>
        <path id="Ubuntu-33" d="M 1446 435 
Q 2016 435 2262 659 
Q 2509 883 2509 1261 
Q 2509 1504 2406 1670 
Q 2304 1837 2137 1936 
Q 1971 2035 1750 2076 
Q 1530 2118 1299 2118 
L 1146 2118 
L 1146 2605 
L 1357 2605 
Q 1517 2605 1686 2637 
Q 1856 2669 1997 2752 
Q 2138 2835 2227 2979 
Q 2317 3123 2317 3341 
Q 2317 3520 2253 3648 
Q 2189 3776 2083 3859 
Q 1978 3942 1840 3977 
Q 1702 4013 1549 4013 
Q 1242 4013 1027 3923 
Q 813 3834 666 3738 
L 435 4192 
Q 512 4243 630 4304 
Q 749 4365 896 4416 
Q 1043 4467 1212 4502 
Q 1382 4538 1568 4538 
Q 1920 4538 2176 4451 
Q 2432 4365 2598 4208 
Q 2765 4051 2848 3836 
Q 2931 3622 2931 3373 
Q 2931 3027 2732 2780 
Q 2534 2534 2253 2406 
Q 2426 2355 2586 2259 
Q 2746 2163 2864 2016 
Q 2982 1869 3056 1677 
Q 3130 1485 3130 1248 
Q 3130 960 3030 713 
Q 2931 467 2723 288 
Q 2515 109 2201 6 
Q 1888 -96 1459 -96 
Q 1293 -96 1117 -70 
Q 941 -45 787 -6 
Q 634 32 518 70 
Q 403 109 352 134 
L 467 653 
Q 576 602 829 518 
Q 1082 435 1446 435 
z
" transform="scale(0.015625)"/>
       </defs>
       <use xlink:href="#Ubuntu-33"/>
       <use xlink:href="#Ubuntu-30" x="56.399994"/>
       <use xlink:href="#Ubuntu-30" x="112.799988"/>
      </g>
     </g>
    </g>
    <g id="ytick_5">
     <g id="line2d_11">
      <g>
       <use xlink:href="#m0d5854cfae" x="29.7375" y="10.30375" style="fill: #cecece; stroke: #cecece; stroke-width: 0.75"/>
      </g>
     </g>
     <g id="text_11">
      <!-- 400 -->
      <g style="fill: #808080" transform="translate(7.2 13.4075) scale(0.08 -0.08)">
       <defs>
        <path id="Ubuntu-34" d="M 256 1536 
Q 378 1818 589 2192 
Q 800 2566 1065 2963 
Q 1331 3360 1635 3744 
Q 1939 4128 2246 4435 
L 2816 4435 
L 2816 1619 
L 3341 1619 
L 3341 1133 
L 2816 1133 
L 2816 0 
L 2240 0 
L 2240 1133 
L 256 1133 
L 256 1536 
z
M 2240 3731 
Q 2048 3526 1853 3273 
Q 1658 3021 1472 2745 
Q 1286 2470 1123 2182 
Q 960 1894 832 1619 
L 2240 1619 
L 2240 3731 
z
" transform="scale(0.015625)"/>
       </defs>
       <use xlink:href="#Ubuntu-34"/>
       <use xlink:href="#Ubuntu-30" x="56.399994"/>
       <use xlink:href="#Ubuntu-30" x="112.799988"/>
      </g>
     </g>
    </g>
   </g>
   <g id="patch_3">
    <path d="M 145.145361 121.18375 
L 151.555115 121.18375 
L 151.555115 120.90655 
L 145.145361 120.90655 
z
" clip-path="url(#p6f2cfbf7e7)" style="fill: #b45f58; stroke: #ffffff; stroke-linejoin: miter"/>
   </g>
   <g id="patch_4">
    <path d="M 151.555115 121.18375 
L 157.964869 121.18375 
L 157.964869 120.90655 
L 151.555115 120.90655 
z
" clip-path="url(#p6f2cfbf7e7)" style="fill: #b45f58; stroke: #ffffff; stroke-linejoin: miter"/>
   </g>
   <g id="patch_5">
    <path d="M 157.964869 121.18375 
L 164.374623 121.18375 
L 164.374623 120.90655 
L 157.964869 120.90655 
z
" clip-path="url(#p6f2cfbf7e7)" style="fill: #b45f58; stroke: #ffffff; stroke-linejoin: miter"/>
   </g>
   <g id="patch_6">
    <path d="M 164.374623 121.18375 
L 170.784377 121.18375 
L 170.784377 120.35215 
L 164.374623 120.35215 
z
" clip-path="url(#p6f2cfbf7e7)" style="fill: #b45f58; stroke: #ffffff; stroke-linejoin: miter"/>
   </g>
   <g id="patch_7">
    <path d="M 170.784377 121.18375 
L 177.194131 121.18375 
L 177.194131 120.62935 
L 170.784377 120.62935 
z
" clip-path="url(#p6f2cfbf7e7)" style="fill: #b45f58; stroke: #ffffff; stroke-linejoin: miter"/>
   </g>
   <g id="patch_8">
    <path d="M 177.194131 121.18375 
L 183.603886 121.18375 
L 183.603886 119.52055 
L 177.194131 119.52055 
z
" clip-path="url(#p6f2cfbf7e7)" style="fill: #b45f58; stroke: #ffffff; stroke-linejoin: miter"/>
   </g>
   <g id="patch_9">
    <path d="M 183.603886 121.18375 
L 190.01364 121.18375 
L 190.01364 118.41175 
L 183.603886 118.41175 
z
" clip-path="url(#p6f2cfbf7e7)" style="fill: #b45f58; stroke: #ffffff; stroke-linejoin: miter"/>
   </g>
   <g id="patch_10">
    <path d="M 190.01364 121.18375 
L 196.423394 121.18375 
L 196.423394 118.13455 
L 190.01364 118.13455 
z
" clip-path="url(#p6f2cfbf7e7)" style="fill: #b45f58; stroke: #ffffff; stroke-linejoin: miter"/>
   </g>
   <g id="patch_11">
    <path d="M 196.423394 121.18375 
L 202.833148 121.18375 
L 202.833148 115.63975 
L 196.423394 115.63975 
z
" clip-path="url(#p6f2cfbf7e7)" style="fill: #b45f58; stroke: #ffffff; stroke-linejoin: miter"/>
   </g>
   <g id="patch_12">
    <path d="M 202.833148 121.18375 
L 209.242902 121.18375 
L 209.242902 111.75895 
L 202.833148 111.75895 
z
" clip-path="url(#p6f2cfbf7e7)" style="fill: #b45f58; stroke: #ffffff; stroke-linejoin: miter"/>
   </g>
   <g id="patch_13">
    <path d="M 209.242902 121.18375 
L 215.652656 121.18375 
L 215.652656 110.09575 
L 209.242902 110.09575 
z
" clip-path="url(#p6f2cfbf7e7)" style="fill: #b45f58; stroke: #ffffff; stroke-linejoin: miter"/>
   </g>
   <g id="patch_14">
    <path d="M 215.652656 121.18375 
L 222.06241 121.18375 
L 222.06241 105.93775 
L 215.652656 105.93775 
z
" clip-path="url(#p6f2cfbf7e7)" style="fill: #b45f58; stroke: #ffffff; stroke-linejoin: miter"/>
   </g>
   <g id="patch_15">
    <path d="M 222.06241 121.18375 
L 228.472164 121.18375 
L 228.472164 97.89895 
L 222.06241 97.89895 
z
" clip-path="url(#p6f2cfbf7e7)" style="fill: #b45f58; stroke: #ffffff; stroke-linejoin: miter"/>
   </g>
   <g id="patch_16">
    <path d="M 228.472164 121.18375 
L 234.881918 121.18375 
L 234.881918 99.28495 
L 228.472164 99.28495 
z
" clip-path="url(#p6f2cfbf7e7)" style="fill: #b45f58; stroke: #ffffff; stroke-linejoin: miter"/>
   </g>
   <g id="patch_17">
    <path d="M 234.881918 121.18375 
L 241.291672 121.18375 
L 241.291672 92.63215 
L 234.881918 92.63215 
z
" clip-path="url(#p6f2cfbf7e7)" style="fill: #b45f58; stroke: #ffffff; stroke-linejoin: miter"/>
   </g>
   <g id="patch_18">
    <path d="M 241.291672 121.18375 
L 247.701427 121.18375 
L 247.701427 82.93015 
L 241.291672 82.93015 
z
" clip-path="url(#p6f2cfbf7e7)" style="fill: #b45f58; stroke: #ffffff; stroke-linejoin: miter"/>
   </g>
   <g id="patch_19">
    <path d="M 247.701427 121.18375 
L 254.111181 121.18375 
L 254.111181 82.09855 
L 247.701427 82.09855 
z
" clip-path="url(#p6f2cfbf7e7)" style="fill: #b45f58; stroke: #ffffff; stroke-linejoin: miter"/>
   </g>
   <g id="patch_20">
    <path d="M 254.111181 121.18375 
L 260.520935 121.18375 
L 260.520935 72.39655 
L 254.111181 72.39655 
z
" clip-path="url(#p6f2cfbf7e7)" style="fill: #b45f58; stroke: #ffffff; stroke-linejoin: miter"/>
   </g>
   <g id="patch_21">
    <path d="M 260.520935 121.18375 
L 266.930689 121.18375 
L 266.930689 64.91215 
L 260.520935 64.91215 
z
" clip-path="url(#p6f2cfbf7e7)" style="fill: #b45f58; stroke: #ffffff; stroke-linejoin: miter"/>
   </g>
   <g id="patch_22">
    <path d="M 266.930689 121.18375 
L 273.340443 121.18375 
L 273.340443 57.42775 
L 266.930689 57.42775 
z
" clip-path="url(#p6f2cfbf7e7)" style="fill: #b45f58; stroke: #ffffff; stroke-linejoin: miter"/>
   </g>
   <g id="patch_23">
    <path d="M 273.340443 121.18375 
L 279.750197 121.18375 
L 279.750197 57.42775 
L 273.340443 57.42775 
z
" clip-path="url(#p6f2cfbf7e7)" style="fill: #b45f58; stroke: #ffffff; stroke-linejoin: miter"/>
   </g>
   <g id="patch_24">
    <path d="M 279.750197 121.18375 
L 286.159951 121.18375 
L 286.159951 53.82415 
L 279.750197 53.82415 
z
" clip-path="url(#p6f2cfbf7e7)" style="fill: #b45f58; stroke: #ffffff; stroke-linejoin: miter"/>
   </g>
   <g id="patch_25">
    <path d="M 286.159951 121.18375 
L 292.569705 121.18375 
L 292.569705 48.55735 
L 286.159951 48.55735 
z
" clip-path="url(#p6f2cfbf7e7)" style="fill: #b45f58; stroke: #ffffff; stroke-linejoin: miter"/>
   </g>
   <g id="patch_26">
    <path d="M 292.569705 121.18375 
L 298.979459 121.18375 
L 298.979459 47.44855 
L 292.569705 47.44855 
z
" clip-path="url(#p6f2cfbf7e7)" style="fill: #b45f58; stroke: #ffffff; stroke-linejoin: miter"/>
   </g>
   <g id="patch_27">
    <path d="M 298.979459 121.18375 
L 305.389214 121.18375 
L 305.389214 37.74655 
L 298.979459 37.74655 
z
" clip-path="url(#p6f2cfbf7e7)" style="fill: #b45f58; stroke: #ffffff; stroke-linejoin: miter"/>
   </g>
   <g id="patch_28">
    <path d="M 305.389214 121.18375 
L 311.798968 121.18375 
L 311.798968 44.95375 
L 305.389214 44.95375 
z
" clip-path="url(#p6f2cfbf7e7)" style="fill: #b45f58; stroke: #ffffff; stroke-linejoin: miter"/>
   </g>
   <g id="patch_29">
    <path d="M 311.798968 121.18375 
L 318.208722 121.18375 
L 318.208722 46.89415 
L 311.798968 46.89415 
z
" clip-path="url(#p6f2cfbf7e7)" style="fill: #b45f58; stroke: #ffffff; stroke-linejoin: miter"/>
   </g>
   <g id="patch_30">
    <path d="M 318.208722 121.18375 
L 324.618476 121.18375 
L 324.618476 54.65575 
L 318.208722 54.65575 
z
" clip-path="url(#p6f2cfbf7e7)" style="fill: #b45f58; stroke: #ffffff; stroke-linejoin: miter"/>
   </g>
   <g id="patch_31">
    <path d="M 324.618476 121.18375 
L 331.02823 121.18375 
L 331.02823 54.65575 
L 324.618476 54.65575 
z
" clip-path="url(#p6f2cfbf7e7)" style="fill: #b45f58; stroke: #ffffff; stroke-linejoin: miter"/>
   </g>
   <g id="patch_32">
    <path d="M 331.02823 121.18375 
L 337.437984 121.18375 
L 337.437984 54.37855 
L 331.02823 54.37855 
z
" clip-path="url(#p6f2cfbf7e7)" style="fill: #b45f58; stroke: #ffffff; stroke-linejoin: miter"/>
   </g>
   <g id="patch_33">
    <path d="M 337.437984 121.18375 
L 343.847738 121.18375 
L 343.847738 71.84215 
L 337.437984 71.84215 
z
" clip-path="url(#p6f2cfbf7e7)" style="fill: #b45f58; stroke: #ffffff; stroke-linejoin: miter"/>
   </g>
   <g id="patch_34">
    <path d="M 343.847738 121.18375 
L 350.257492 121.18375 
L 350.257492 76.83175 
L 343.847738 76.83175 
z
" clip-path="url(#p6f2cfbf7e7)" style="fill: #b45f58; stroke: #ffffff; stroke-linejoin: miter"/>
   </g>
   <g id="patch_35">
    <path d="M 350.257492 121.18375 
L 356.667246 121.18375 
L 356.667246 79.32655 
L 350.257492 79.32655 
z
" clip-path="url(#p6f2cfbf7e7)" style="fill: #b45f58; stroke: #ffffff; stroke-linejoin: miter"/>
   </g>
   <g id="patch_36">
    <path d="M 356.667246 121.18375 
L 363.077 121.18375 
L 363.077 82.09855 
L 356.667246 82.09855 
z
" clip-path="url(#p6f2cfbf7e7)" style="fill: #b45f58; stroke: #ffffff; stroke-linejoin: miter"/>
   </g>
   <g id="patch_37">
    <path d="M 363.077 121.18375 
L 369.486755 121.18375 
L 369.486755 89.30575 
L 363.077 89.30575 
z
" clip-path="url(#p6f2cfbf7e7)" style="fill: #b45f58; stroke: #ffffff; stroke-linejoin: miter"/>
   </g>
   <g id="patch_38">
    <path d="M 369.486755 121.18375 
L 375.896509 121.18375 
L 375.896509 98.45335 
L 369.486755 98.45335 
z
" clip-path="url(#p6f2cfbf7e7)" style="fill: #b45f58; stroke: #ffffff; stroke-linejoin: miter"/>
   </g>
   <g id="patch_39">
    <path d="M 375.896509 121.18375 
L 382.306263 121.18375 
L 382.306263 102.05695 
L 375.896509 102.05695 
z
" clip-path="url(#p6f2cfbf7e7)" style="fill: #b45f58; stroke: #ffffff; stroke-linejoin: miter"/>
   </g>
   <g id="patch_40">
    <path d="M 382.306263 121.18375 
L 388.716017 121.18375 
L 388.716017 105.93775 
L 382.306263 105.93775 
z
" clip-path="url(#p6f2cfbf7e7)" style="fill: #b45f58; stroke: #ffffff; stroke-linejoin: miter"/>
   </g>
   <g id="patch_41">
    <path d="M 388.716017 121.18375 
L 395.125771 121.18375 
L 395.125771 112.31335 
L 388.716017 112.31335 
z
" clip-path="url(#p6f2cfbf7e7)" style="fill: #b45f58; stroke: #ffffff; stroke-linejoin: miter"/>
   </g>
   <g id="patch_42">
    <path d="M 395.125771 121.18375 
L 401.535525 121.18375 
L 401.535525 112.59055 
L 395.125771 112.59055 
z
" clip-path="url(#p6f2cfbf7e7)" style="fill: #b45f58; stroke: #ffffff; stroke-linejoin: miter"/>
   </g>
   <g id="patch_43">
    <path d="M 401.535525 121.18375 
L 407.945279 121.18375 
L 407.945279 115.91695 
L 401.535525 115.91695 
z
" clip-path="url(#p6f2cfbf7e7)" style="fill: #b45f58; stroke: #ffffff; stroke-linejoin: miter"/>
   </g>
   <g id="patch_44">
    <path d="M 407.945279 121.18375 
L 414.355033 121.18375 
L 414.355033 116.47135 
L 407.945279 116.47135 
z
" clip-path="url(#p6f2cfbf7e7)" style="fill: #b45f58; stroke: #ffffff; stroke-linejoin: miter"/>
   </g>
   <g id="patch_45">
    <path d="M 414.355033 121.18375 
L 420.764787 121.18375 
L 420.764787 117.58015 
L 414.355033 117.58015 
z
" clip-path="url(#p6f2cfbf7e7)" style="fill: #b45f58; stroke: #ffffff; stroke-linejoin: miter"/>
   </g>
   <g id="patch_46">
    <path d="M 420.764787 121.18375 
L 427.174541 121.18375 
L 427.174541 115.91695 
L 420.764787 115.91695 
z
" clip-path="url(#p6f2cfbf7e7)" style="fill: #b45f58; stroke: #ffffff; stroke-linejoin: miter"/>
   </g>
   <g id="patch_47">
    <path d="M 427.174541 121.18375 
L 433.584296 121.18375 
L 433.584296 120.35215 
L 427.174541 120.35215 
z
" clip-path="url(#p6f2cfbf7e7)" style="fill: #b45f58; stroke: #ffffff; stroke-linejoin: miter"/>
   </g>
   <g id="patch_48">
    <path d="M 433.584296 121.18375 
L 439.99405 121.18375 
L 439.99405 119.79775 
L 433.584296 119.79775 
z
" clip-path="url(#p6f2cfbf7e7)" style="fill: #b45f58; stroke: #ffffff; stroke-linejoin: miter"/>
   </g>
   <g id="patch_49">
    <path d="M 439.99405 121.18375 
L 446.403804 121.18375 
L 446.403804 120.35215 
L 439.99405 120.35215 
z
" clip-path="url(#p6f2cfbf7e7)" style="fill: #b45f58; stroke: #ffffff; stroke-linejoin: miter"/>
   </g>
   <g id="patch_50">
    <path d="M 446.403804 121.18375 
L 452.813558 121.18375 
L 452.813558 120.90655 
L 446.403804 120.90655 
z
" clip-path="url(#p6f2cfbf7e7)" style="fill: #b45f58; stroke: #ffffff; stroke-linejoin: miter"/>
   </g>
   <g id="patch_51">
    <path d="M 452.813558 121.18375 
L 459.223312 121.18375 
L 459.223312 120.90655 
L 452.813558 120.90655 
z
" clip-path="url(#p6f2cfbf7e7)" style="fill: #b45f58; stroke: #ffffff; stroke-linejoin: miter"/>
   </g>
   <g id="patch_52">
    <path d="M 459.223312 121.18375 
L 465.633066 121.18375 
L 465.633066 120.90655 
L 459.223312 120.90655 
z
" clip-path="url(#p6f2cfbf7e7)" style="fill: #b45f58; stroke: #ffffff; stroke-linejoin: miter"/>
   </g>
   <g id="patch_53">
    <path d="M 29.7375 121.18375 
L 29.7375 10.30375 
" style="fill: none; stroke: #cccccc; stroke-width: 0.75; stroke-linejoin: miter; stroke-linecap: square"/>
   </g>
   <g id="patch_54">
    <path d="M 34.7375 126.18375 
L 481.1375 126.18375 
" style="fill: none; stroke: #cccccc; stroke-width: 0.75; stroke-linejoin: miter; stroke-linecap: square"/>
   </g>
  </g>
 </g>
 <defs>
  <clipPath id="p6f2cfbf7e7">
   <rect x="34.7375" y="10.30375" width="446.4" height="110.88"/>
  </clipPath>
 </defs>
</svg>
