<?xml version="1.0" encoding="utf-8" standalone="no"?>
<!DOCTYPE svg PUBLIC "-//W3C//DTD SVG 1.1//EN"
  "http://www.w3.org/Graphics/SVG/1.1/DTD/svg11.dtd">
<svg xmlns:xlink="http://www.w3.org/1999/xlink" width="495.10625pt" height="146.9675pt" viewBox="0 0 495.10625 146.9675" xmlns="http://www.w3.org/2000/svg" version="1.1">
 <metadata>
  <rdf:RDF xmlns:dc="http://purl.org/dc/elements/1.1/" xmlns:cc="http://creativecommons.org/ns#" xmlns:rdf="http://www.w3.org/1999/02/22-rdf-syntax-ns#">
   <cc:Work>
    <dc:type rdf:resource="http://purl.org/dc/dcmitype/StillImage"/>
    <dc:date>2024-05-17T08:58:06.706692</dc:date>
    <dc:format>image/svg+xml</dc:format>
    <dc:creator>
     <cc:Agent>
      <dc:title>Matplotlib v3.8.4, https://matplotlib.org/</dc:title>
     </cc:Agent>
    </dc:creator>
   </cc:Work>
  </rdf:RDF>
 </metadata>
 <defs>
  <style type="text/css">*{stroke-linejoin: round; stroke-linecap: butt}</style>
 </defs>
 <g id="figure_1">
  <g id="patch_1">
   <path d="M 0 146.9675 
L 495.10625 146.9675 
L 495.10625 0 
L 0 0 
L 0 146.9675 
z
" style="fill: none"/>
  </g>
  <g id="axes_1">
   <g id="patch_2">
    <path d="M 34.7375 118.08 
L 481.1375 118.08 
L 481.1375 7.2 
L 34.7375 7.2 
L 34.7375 118.08 
z
" style="fill: none"/>
   </g>
   <g id="matplotlib.axis_1">
    <g id="xtick_1">
     <g id="line2d_1">
      <defs>
       <path id="m7055183b90" d="M 0 0 
L 0 3 
" style="stroke: #cecece; stroke-width: 0.75"/>
      </defs>
      <g>
       <use xlink:href="#m7055183b90" x="34.7375" y="123.08" style="fill: #cecece; stroke: #cecece; stroke-width: 0.75"/>
      </g>
     </g>
     <g id="text_1">
      <!-- 70 -->
      <g style="fill: #808080" transform="translate(30.225 138.2875) scale(0.08 -0.08)">
       <defs>
        <path id="Ubuntu-37" d="M 1043 0 
Q 1082 512 1226 1078 
Q 1370 1645 1581 2179 
Q 1792 2714 2045 3171 
Q 2298 3629 2541 3917 
L 384 3917 
L 384 4435 
L 3206 4435 
L 3206 3942 
Q 2995 3699 2739 3273 
Q 2483 2848 2256 2320 
Q 2029 1792 1865 1193 
Q 1702 595 1664 0 
L 1043 0 
z
" transform="scale(0.015625)"/>
        <path id="Ubuntu-30" d="M 320 2221 
Q 320 3334 713 3936 
Q 1107 4538 1805 4538 
Q 2502 4538 2896 3936 
Q 3290 3334 3290 2221 
Q 3290 1107 2896 505 
Q 2502 -96 1805 -96 
Q 1107 -96 713 505 
Q 320 1107 320 2221 
z
M 2662 2221 
Q 2662 2586 2620 2912 
Q 2579 3238 2480 3481 
Q 2381 3725 2214 3869 
Q 2048 4013 1805 4013 
Q 1562 4013 1395 3869 
Q 1229 3725 1129 3481 
Q 1030 3238 988 2912 
Q 947 2586 947 2221 
Q 947 1856 988 1529 
Q 1030 1203 1129 960 
Q 1229 717 1395 573 
Q 1562 429 1805 429 
Q 2048 429 2214 573 
Q 2381 717 2480 960 
Q 2579 1203 2620 1529 
Q 2662 1856 2662 2221 
z
" transform="scale(0.015625)"/>
       </defs>
       <use xlink:href="#Ubuntu-37"/>
       <use xlink:href="#Ubuntu-30" x="56.399994"/>
      </g>
     </g>
    </g>
    <g id="xtick_2">
     <g id="line2d_2">
      <g>
       <use xlink:href="#m7055183b90" x="124.0175" y="123.08" style="fill: #cecece; stroke: #cecece; stroke-width: 0.75"/>
      </g>
     </g>
     <g id="text_2">
      <!-- 80 -->
      <g style="fill: #808080" transform="translate(119.505 138.2875) scale(0.08 -0.08)">
       <defs>
        <path id="Ubuntu-38" d="M 3258 1152 
Q 3258 883 3165 656 
Q 3072 429 2889 259 
Q 2707 90 2432 -3 
Q 2157 -96 1798 -96 
Q 1382 -96 1104 22 
Q 826 141 659 320 
Q 493 499 422 713 
Q 352 928 352 1120 
Q 352 1306 413 1475 
Q 474 1645 573 1792 
Q 672 1939 803 2057 
Q 934 2176 1082 2266 
Q 454 2624 454 3322 
Q 454 3565 550 3785 
Q 646 4006 822 4172 
Q 998 4339 1248 4438 
Q 1498 4538 1805 4538 
Q 2163 4538 2419 4429 
Q 2675 4320 2838 4150 
Q 3002 3981 3075 3776 
Q 3149 3571 3149 3379 
Q 3149 3194 3094 3030 
Q 3040 2867 2947 2726 
Q 2854 2586 2736 2477 
Q 2618 2368 2490 2285 
Q 3245 1926 3258 1152 
z
M 954 1114 
Q 954 998 995 873 
Q 1037 749 1139 643 
Q 1242 538 1402 467 
Q 1562 397 1805 397 
Q 2022 397 2185 461 
Q 2349 525 2451 624 
Q 2554 723 2605 851 
Q 2656 979 2656 1114 
Q 2656 1318 2579 1472 
Q 2502 1626 2358 1741 
Q 2214 1856 2012 1936 
Q 1811 2016 1555 2074 
Q 1267 1914 1110 1677 
Q 954 1440 954 1114 
z
M 2554 3386 
Q 2554 3482 2512 3597 
Q 2470 3712 2380 3811 
Q 2291 3910 2150 3977 
Q 2010 4045 1805 4045 
Q 1600 4045 1456 3981 
Q 1312 3917 1222 3817 
Q 1133 3718 1091 3600 
Q 1050 3482 1050 3366 
Q 1050 3226 1101 3085 
Q 1152 2944 1261 2822 
Q 1370 2701 1546 2605 
Q 1722 2509 1965 2451 
Q 2234 2611 2394 2825 
Q 2554 3040 2554 3386 
z
" transform="scale(0.015625)"/>
       </defs>
       <use xlink:href="#Ubuntu-38"/>
       <use xlink:href="#Ubuntu-30" x="56.399994"/>
      </g>
     </g>
    </g>
    <g id="xtick_3">
     <g id="line2d_3">
      <g>
       <use xlink:href="#m7055183b90" x="213.2975" y="123.08" style="fill: #cecece; stroke: #cecece; stroke-width: 0.75"/>
      </g>
     </g>
     <g id="text_3">
      <!-- 90 -->
      <g style="fill: #808080" transform="translate(208.785 138.2875) scale(0.08 -0.08)">
       <defs>
        <path id="Ubuntu-39" d="M 3206 2662 
Q 3206 1344 2550 669 
Q 1894 -6 602 -13 
L 582 486 
Q 986 486 1309 563 
Q 1632 640 1875 809 
Q 2118 979 2281 1248 
Q 2445 1517 2522 1907 
Q 2355 1830 2144 1782 
Q 1933 1734 1709 1734 
Q 1331 1734 1068 1846 
Q 806 1958 640 2147 
Q 474 2336 400 2582 
Q 326 2829 326 3098 
Q 326 3334 409 3590 
Q 493 3846 662 4057 
Q 832 4269 1094 4403 
Q 1357 4538 1715 4538 
Q 2080 4538 2358 4410 
Q 2637 4282 2825 4038 
Q 3014 3795 3110 3446 
Q 3206 3098 3206 2662 
z
M 1773 2221 
Q 1997 2221 2195 2262 
Q 2394 2304 2579 2387 
Q 2586 2458 2586 2525 
Q 2586 2592 2586 2662 
Q 2586 2938 2547 3190 
Q 2509 3443 2409 3632 
Q 2310 3821 2144 3933 
Q 1978 4045 1722 4045 
Q 1510 4045 1363 3955 
Q 1216 3866 1120 3728 
Q 1024 3590 982 3427 
Q 941 3264 941 3110 
Q 941 2675 1149 2448 
Q 1357 2221 1773 2221 
z
" transform="scale(0.015625)"/>
       </defs>
       <use xlink:href="#Ubuntu-39"/>
       <use xlink:href="#Ubuntu-30" x="56.399994"/>
      </g>
     </g>
    </g>
    <g id="xtick_4">
     <g id="line2d_4">
      <g>
       <use xlink:href="#m7055183b90" x="302.5775" y="123.08" style="fill: #cecece; stroke: #cecece; stroke-width: 0.75"/>
      </g>
     </g>
     <g id="text_4">
      <!-- 100 -->
      <g style="fill: #808080" transform="translate(295.80875 138.2875) scale(0.08 -0.08)">
       <defs>
        <path id="Ubuntu-31" d="M 595 3520 
Q 960 3661 1305 3881 
Q 1651 4102 1939 4435 
L 2362 4435 
L 2362 0 
L 1766 0 
L 1766 3610 
Q 1690 3539 1578 3462 
Q 1466 3386 1334 3315 
Q 1203 3245 1059 3181 
Q 915 3117 781 3072 
L 595 3520 
z
" transform="scale(0.015625)"/>
       </defs>
       <use xlink:href="#Ubuntu-31"/>
       <use xlink:href="#Ubuntu-30" x="56.399994"/>
       <use xlink:href="#Ubuntu-30" x="112.799988"/>
      </g>
     </g>
    </g>
    <g id="xtick_5">
     <g id="line2d_5">
      <g>
       <use xlink:href="#m7055183b90" x="391.8575" y="123.08" style="fill: #cecece; stroke: #cecece; stroke-width: 0.75"/>
      </g>
     </g>
     <g id="text_5">
      <!-- 110 -->
      <g style="fill: #808080" transform="translate(385.08875 138.2875) scale(0.08 -0.08)">
       <use xlink:href="#Ubuntu-31"/>
       <use xlink:href="#Ubuntu-31" x="56.399994"/>
       <use xlink:href="#Ubuntu-30" x="112.799988"/>
      </g>
     </g>
    </g>
    <g id="xtick_6">
     <g id="line2d_6">
      <g>
       <use xlink:href="#m7055183b90" x="481.1375" y="123.08" style="fill: #cecece; stroke: #cecece; stroke-width: 0.75"/>
      </g>
     </g>
     <g id="text_6">
      <!-- 120 -->
      <g style="fill: #808080" transform="translate(474.36875 138.2875) scale(0.08 -0.08)">
       <defs>
        <path id="Ubuntu-32" d="M 2989 3302 
Q 2989 3072 2896 2857 
Q 2803 2643 2649 2435 
Q 2496 2227 2304 2025 
Q 2112 1824 1920 1632 
Q 1811 1523 1667 1376 
Q 1523 1229 1395 1069 
Q 1267 909 1180 761 
Q 1094 614 1094 506 
L 3136 506 
L 3136 0 
L 448 0 
Q 442 38 442 76 
Q 442 115 442 147 
Q 442 448 541 707 
Q 640 966 800 1196 
Q 960 1427 1158 1632 
Q 1357 1837 1549 2029 
Q 1709 2182 1853 2332 
Q 1997 2483 2109 2633 
Q 2221 2784 2288 2944 
Q 2355 3104 2355 3283 
Q 2355 3475 2294 3609 
Q 2234 3744 2131 3833 
Q 2029 3923 1891 3964 
Q 1754 4006 1600 4006 
Q 1414 4006 1260 3955 
Q 1107 3904 985 3837 
Q 864 3770 781 3696 
Q 698 3622 653 3584 
L 358 4006 
Q 416 4070 531 4163 
Q 646 4256 806 4339 
Q 966 4422 1164 4480 
Q 1363 4538 1594 4538 
Q 2291 4538 2640 4214 
Q 2989 3891 2989 3302 
z
" transform="scale(0.015625)"/>
       </defs>
       <use xlink:href="#Ubuntu-31"/>
       <use xlink:href="#Ubuntu-32" x="56.399994"/>
       <use xlink:href="#Ubuntu-30" x="112.799988"/>
      </g>
     </g>
    </g>
   </g>
   <g id="matplotlib.axis_2">
    <g id="ytick_1">
     <g id="line2d_7">
      <defs>
       <path id="m168e2ccaca" d="M 0 0 
L -3 0 
" style="stroke: #cecece; stroke-width: 0.75"/>
      </defs>
      <g>
       <use xlink:href="#m168e2ccaca" x="29.7375" y="118.08" style="fill: #cecece; stroke: #cecece; stroke-width: 0.75"/>
      </g>
     </g>
     <g id="text_7">
      <!-- 0 -->
      <g style="fill: #808080" transform="translate(16.225 121.18375) scale(0.08 -0.08)">
       <use xlink:href="#Ubuntu-30"/>
      </g>
     </g>
    </g>
    <g id="ytick_2">
     <g id="line2d_8">
      <g>
       <use xlink:href="#m168e2ccaca" x="29.7375" y="88.306602" style="fill: #cecece; stroke: #cecece; stroke-width: 0.75"/>
      </g>
     </g>
     <g id="text_8">
      <!-- 100 -->
      <g style="fill: #808080" transform="translate(7.2 91.410352) scale(0.08 -0.08)">
       <use xlink:href="#Ubuntu-31"/>
       <use xlink:href="#Ubuntu-30" x="56.399994"/>
       <use xlink:href="#Ubuntu-30" x="112.799988"/>
      </g>
     </g>
    </g>
    <g id="ytick_3">
     <g id="line2d_9">
      <g>
       <use xlink:href="#m168e2ccaca" x="29.7375" y="58.533204" style="fill: #cecece; stroke: #cecece; stroke-width: 0.75"/>
      </g>
     </g>
     <g id="text_9">
      <!-- 200 -->
      <g style="fill: #808080" transform="translate(7.2 61.636954) scale(0.08 -0.08)">
       <use xlink:href="#Ubuntu-32"/>
       <use xlink:href="#Ubuntu-30" x="56.399994"/>
       <use xlink:href="#Ubuntu-30" x="112.799988"/>
      </g>
     </g>
    </g>
    <g id="ytick_4">
     <g id="line2d_10">
      <g>
       <use xlink:href="#m168e2ccaca" x="29.7375" y="28.759807" style="fill: #cecece; stroke: #cecece; stroke-width: 0.75"/>
      </g>
     </g>
     <g id="text_10">
      <!-- 300 -->
      <g style="fill: #808080" transform="translate(7.2 31.863557) scale(0.08 -0.08)">
       <defs>
        <path id="Ubuntu-33" d="M 1446 435 
Q 2016 435 2262 659 
Q 2509 883 2509 1261 
Q 2509 1504 2406 1670 
Q 2304 1837 2137 1936 
Q 1971 2035 1750 2076 
Q 1530 2118 1299 2118 
L 1146 2118 
L 1146 2605 
L 1357 2605 
Q 1517 2605 1686 2637 
Q 1856 2669 1997 2752 
Q 2138 2835 2227 2979 
Q 2317 3123 2317 3341 
Q 2317 3520 2253 3648 
Q 2189 3776 2083 3859 
Q 1978 3942 1840 3977 
Q 1702 4013 1549 4013 
Q 1242 4013 1027 3923 
Q 813 3834 666 3738 
L 435 4192 
Q 512 4243 630 4304 
Q 749 4365 896 4416 
Q 1043 4467 1212 4502 
Q 1382 4538 1568 4538 
Q 1920 4538 2176 4451 
Q 2432 4365 2598 4208 
Q 2765 4051 2848 3836 
Q 2931 3622 2931 3373 
Q 2931 3027 2732 2780 
Q 2534 2534 2253 2406 
Q 2426 2355 2586 2259 
Q 2746 2163 2864 2016 
Q 2982 1869 3056 1677 
Q 3130 1485 3130 1248 
Q 3130 960 3030 713 
Q 2931 467 2723 288 
Q 2515 109 2201 6 
Q 1888 -96 1459 -96 
Q 1293 -96 1117 -70 
Q 941 -45 787 -6 
Q 634 32 518 70 
Q 403 109 352 134 
L 467 653 
Q 576 602 829 518 
Q 1082 435 1446 435 
z
" transform="scale(0.015625)"/>
       </defs>
       <use xlink:href="#Ubuntu-33"/>
       <use xlink:href="#Ubuntu-30" x="56.399994"/>
       <use xlink:href="#Ubuntu-30" x="112.799988"/>
      </g>
     </g>
    </g>
   </g>
   <g id="patch_3">
    <path d="M 133.739881 118.08 
L 141.269567 118.08 
L 141.269567 117.782266 
L 133.739881 117.782266 
z
" clip-path="url(#pd43a52cf29)" style="fill: #b45f58; stroke: #ffffff; stroke-linejoin: miter"/>
   </g>
   <g id="patch_4">
    <path d="M 141.269567 118.08 
L 148.799253 118.08 
L 148.799253 118.08 
L 141.269567 118.08 
z
" clip-path="url(#pd43a52cf29)" style="fill: #b45f58; stroke: #ffffff; stroke-linejoin: miter"/>
   </g>
   <g id="patch_5">
    <path d="M 148.799253 118.08 
L 156.328939 118.08 
L 156.328939 117.782266 
L 148.799253 117.782266 
z
" clip-path="url(#pd43a52cf29)" style="fill: #b45f58; stroke: #ffffff; stroke-linejoin: miter"/>
   </g>
   <g id="patch_6">
    <path d="M 156.328939 118.08 
L 163.858625 118.08 
L 163.858625 116.59133 
L 156.328939 116.59133 
z
" clip-path="url(#pd43a52cf29)" style="fill: #b45f58; stroke: #ffffff; stroke-linejoin: miter"/>
   </g>
   <g id="patch_7">
    <path d="M 163.858625 118.08 
L 171.388311 118.08 
L 171.388311 115.995862 
L 163.858625 115.995862 
z
" clip-path="url(#pd43a52cf29)" style="fill: #b45f58; stroke: #ffffff; stroke-linejoin: miter"/>
   </g>
   <g id="patch_8">
    <path d="M 171.388311 118.08 
L 178.917997 118.08 
L 178.917997 116.293596 
L 171.388311 116.293596 
z
" clip-path="url(#pd43a52cf29)" style="fill: #b45f58; stroke: #ffffff; stroke-linejoin: miter"/>
   </g>
   <g id="patch_9">
    <path d="M 178.917997 118.08 
L 186.447683 118.08 
L 186.447683 116.293596 
L 178.917997 116.293596 
z
" clip-path="url(#pd43a52cf29)" style="fill: #b45f58; stroke: #ffffff; stroke-linejoin: miter"/>
   </g>
   <g id="patch_10">
    <path d="M 186.447683 118.08 
L 193.977369 118.08 
L 193.977369 113.316256 
L 186.447683 113.316256 
z
" clip-path="url(#pd43a52cf29)" style="fill: #b45f58; stroke: #ffffff; stroke-linejoin: miter"/>
   </g>
   <g id="patch_11">
    <path d="M 193.977369 118.08 
L 201.507055 118.08 
L 201.507055 113.018522 
L 193.977369 113.018522 
z
" clip-path="url(#pd43a52cf29)" style="fill: #b45f58; stroke: #ffffff; stroke-linejoin: miter"/>
   </g>
   <g id="patch_12">
    <path d="M 201.507055 118.08 
L 209.036741 118.08 
L 209.036741 112.423054 
L 201.507055 112.423054 
z
" clip-path="url(#pd43a52cf29)" style="fill: #b45f58; stroke: #ffffff; stroke-linejoin: miter"/>
   </g>
   <g id="patch_13">
    <path d="M 209.036741 118.08 
L 216.566427 118.08 
L 216.566427 107.957045 
L 209.036741 107.957045 
z
" clip-path="url(#pd43a52cf29)" style="fill: #b45f58; stroke: #ffffff; stroke-linejoin: miter"/>
   </g>
   <g id="patch_14">
    <path d="M 216.566427 118.08 
L 224.096113 118.08 
L 224.096113 99.620493 
L 216.566427 99.620493 
z
" clip-path="url(#pd43a52cf29)" style="fill: #b45f58; stroke: #ffffff; stroke-linejoin: miter"/>
   </g>
   <g id="patch_15">
    <path d="M 224.096113 118.08 
L 231.625799 118.08 
L 231.625799 95.452218 
L 224.096113 95.452218 
z
" clip-path="url(#pd43a52cf29)" style="fill: #b45f58; stroke: #ffffff; stroke-linejoin: miter"/>
   </g>
   <g id="patch_16">
    <path d="M 231.625799 118.08 
L 239.155485 118.08 
L 239.155485 89.199804 
L 231.625799 89.199804 
z
" clip-path="url(#pd43a52cf29)" style="fill: #b45f58; stroke: #ffffff; stroke-linejoin: miter"/>
   </g>
   <g id="patch_17">
    <path d="M 239.155485 118.08 
L 246.685171 118.08 
L 246.685171 75.504041 
L 239.155485 75.504041 
z
" clip-path="url(#pd43a52cf29)" style="fill: #b45f58; stroke: #ffffff; stroke-linejoin: miter"/>
   </g>
   <g id="patch_18">
    <path d="M 246.685171 118.08 
L 254.214857 118.08 
L 254.214857 66.869756 
L 246.685171 66.869756 
z
" clip-path="url(#pd43a52cf29)" style="fill: #b45f58; stroke: #ffffff; stroke-linejoin: miter"/>
   </g>
   <g id="patch_19">
    <path d="M 254.214857 118.08 
L 261.744543 118.08 
L 261.744543 55.258131 
L 254.214857 55.258131 
z
" clip-path="url(#pd43a52cf29)" style="fill: #b45f58; stroke: #ffffff; stroke-linejoin: miter"/>
   </g>
   <g id="patch_20">
    <path d="M 261.744543 118.08 
L 269.274229 118.08 
L 269.274229 49.303451 
L 261.744543 49.303451 
z
" clip-path="url(#pd43a52cf29)" style="fill: #b45f58; stroke: #ffffff; stroke-linejoin: miter"/>
   </g>
   <g id="patch_21">
    <path d="M 269.274229 118.08 
L 276.803915 118.08 
L 276.803915 39.180496 
L 269.274229 39.180496 
z
" clip-path="url(#pd43a52cf29)" style="fill: #b45f58; stroke: #ffffff; stroke-linejoin: miter"/>
   </g>
   <g id="patch_22">
    <path d="M 276.803915 118.08 
L 284.333601 118.08 
L 284.333601 25.782467 
L 276.803915 25.782467 
z
" clip-path="url(#pd43a52cf29)" style="fill: #b45f58; stroke: #ffffff; stroke-linejoin: miter"/>
   </g>
   <g id="patch_23">
    <path d="M 284.333601 118.08 
L 291.863287 118.08 
L 291.863287 24.889265 
L 284.333601 24.889265 
z
" clip-path="url(#pd43a52cf29)" style="fill: #b45f58; stroke: #ffffff; stroke-linejoin: miter"/>
   </g>
   <g id="patch_24">
    <path d="M 291.863287 118.08 
L 299.392973 118.08 
L 299.392973 21.911925 
L 291.863287 21.911925 
z
" clip-path="url(#pd43a52cf29)" style="fill: #b45f58; stroke: #ffffff; stroke-linejoin: miter"/>
   </g>
   <g id="patch_25">
    <path d="M 299.392973 118.08 
L 306.922659 118.08 
L 306.922659 11.491236 
L 299.392973 11.491236 
z
" clip-path="url(#pd43a52cf29)" style="fill: #b45f58; stroke: #ffffff; stroke-linejoin: miter"/>
   </g>
   <g id="patch_26">
    <path d="M 306.922659 118.08 
L 314.452345 118.08 
L 314.452345 24.293797 
L 306.922659 24.293797 
z
" clip-path="url(#pd43a52cf29)" style="fill: #b45f58; stroke: #ffffff; stroke-linejoin: miter"/>
   </g>
   <g id="patch_27">
    <path d="M 314.452345 118.08 
L 321.982031 118.08 
L 321.982031 15.957246 
L 314.452345 15.957246 
z
" clip-path="url(#pd43a52cf29)" style="fill: #b45f58; stroke: #ffffff; stroke-linejoin: miter"/>
   </g>
   <g id="patch_28">
    <path d="M 321.982031 118.08 
L 329.511717 118.08 
L 329.511717 37.691826 
L 321.982031 37.691826 
z
" clip-path="url(#pd43a52cf29)" style="fill: #b45f58; stroke: #ffffff; stroke-linejoin: miter"/>
   </g>
   <g id="patch_29">
    <path d="M 329.511717 118.08 
L 337.041403 118.08 
L 337.041403 45.135175 
L 329.511717 45.135175 
z
" clip-path="url(#pd43a52cf29)" style="fill: #b45f58; stroke: #ffffff; stroke-linejoin: miter"/>
   </g>
   <g id="patch_30">
    <path d="M 337.041403 118.08 
L 344.571089 118.08 
L 344.571089 46.326111 
L 337.041403 46.326111 
z
" clip-path="url(#pd43a52cf29)" style="fill: #b45f58; stroke: #ffffff; stroke-linejoin: miter"/>
   </g>
   <g id="patch_31">
    <path d="M 344.571089 118.08 
L 352.100775 118.08 
L 352.100775 56.151333 
L 344.571089 56.151333 
z
" clip-path="url(#pd43a52cf29)" style="fill: #b45f58; stroke: #ffffff; stroke-linejoin: miter"/>
   </g>
   <g id="patch_32">
    <path d="M 352.100775 118.08 
L 359.630461 118.08 
L 359.630461 67.16749 
L 352.100775 67.16749 
z
" clip-path="url(#pd43a52cf29)" style="fill: #b45f58; stroke: #ffffff; stroke-linejoin: miter"/>
   </g>
   <g id="patch_33">
    <path d="M 359.630461 118.08 
L 367.160147 118.08 
L 367.160147 76.992711 
L 359.630461 76.992711 
z
" clip-path="url(#pd43a52cf29)" style="fill: #b45f58; stroke: #ffffff; stroke-linejoin: miter"/>
   </g>
   <g id="patch_34">
    <path d="M 367.160147 118.08 
L 374.689833 118.08 
L 374.689833 85.329262 
L 367.160147 85.329262 
z
" clip-path="url(#pd43a52cf29)" style="fill: #b45f58; stroke: #ffffff; stroke-linejoin: miter"/>
   </g>
   <g id="patch_35">
    <path d="M 374.689833 118.08 
L 382.219519 118.08 
L 382.219519 92.772612 
L 374.689833 92.772612 
z
" clip-path="url(#pd43a52cf29)" style="fill: #b45f58; stroke: #ffffff; stroke-linejoin: miter"/>
   </g>
   <g id="patch_36">
    <path d="M 382.219519 118.08 
L 389.749205 118.08 
L 389.749205 102.597833 
L 382.219519 102.597833 
z
" clip-path="url(#pd43a52cf29)" style="fill: #b45f58; stroke: #ffffff; stroke-linejoin: miter"/>
   </g>
   <g id="patch_37">
    <path d="M 389.749205 118.08 
L 397.278891 118.08 
L 397.278891 104.681971 
L 389.749205 104.681971 
z
" clip-path="url(#pd43a52cf29)" style="fill: #b45f58; stroke: #ffffff; stroke-linejoin: miter"/>
   </g>
   <g id="patch_38">
    <path d="M 397.278891 118.08 
L 404.808577 118.08 
L 404.808577 107.659311 
L 397.278891 107.659311 
z
" clip-path="url(#pd43a52cf29)" style="fill: #b45f58; stroke: #ffffff; stroke-linejoin: miter"/>
   </g>
   <g id="patch_39">
    <path d="M 404.808577 118.08 
L 412.338263 118.08 
L 412.338263 110.041183 
L 404.808577 110.041183 
z
" clip-path="url(#pd43a52cf29)" style="fill: #b45f58; stroke: #ffffff; stroke-linejoin: miter"/>
   </g>
   <g id="patch_40">
    <path d="M 412.338263 118.08 
L 419.867949 118.08 
L 419.867949 112.720788 
L 412.338263 112.720788 
z
" clip-path="url(#pd43a52cf29)" style="fill: #b45f58; stroke: #ffffff; stroke-linejoin: miter"/>
   </g>
   <g id="patch_41">
    <path d="M 419.867949 118.08 
L 427.397635 118.08 
L 427.397635 114.804926 
L 419.867949 114.804926 
z
" clip-path="url(#pd43a52cf29)" style="fill: #b45f58; stroke: #ffffff; stroke-linejoin: miter"/>
   </g>
   <g id="patch_42">
    <path d="M 427.397635 118.08 
L 434.927321 118.08 
L 434.927321 116.889064 
L 427.397635 116.889064 
z
" clip-path="url(#pd43a52cf29)" style="fill: #b45f58; stroke: #ffffff; stroke-linejoin: miter"/>
   </g>
   <g id="patch_43">
    <path d="M 434.927321 118.08 
L 442.457007 118.08 
L 442.457007 117.186798 
L 434.927321 117.186798 
z
" clip-path="url(#pd43a52cf29)" style="fill: #b45f58; stroke: #ffffff; stroke-linejoin: miter"/>
   </g>
   <g id="patch_44">
    <path d="M 442.457007 118.08 
L 449.986693 118.08 
L 449.986693 117.782266 
L 442.457007 117.782266 
z
" clip-path="url(#pd43a52cf29)" style="fill: #b45f58; stroke: #ffffff; stroke-linejoin: miter"/>
   </g>
   <g id="patch_45">
    <path d="M 449.986693 118.08 
L 457.516379 118.08 
L 457.516379 117.186798 
L 449.986693 117.186798 
z
" clip-path="url(#pd43a52cf29)" style="fill: #b45f58; stroke: #ffffff; stroke-linejoin: miter"/>
   </g>
   <g id="patch_46">
    <path d="M 457.516379 118.08 
L 465.046065 118.08 
L 465.046065 118.08 
L 457.516379 118.08 
z
" clip-path="url(#pd43a52cf29)" style="fill: #b45f58; stroke: #ffffff; stroke-linejoin: miter"/>
   </g>
   <g id="patch_47">
    <path d="M 465.046065 118.08 
L 472.575751 118.08 
L 472.575751 118.08 
L 465.046065 118.08 
z
" clip-path="url(#pd43a52cf29)" style="fill: #b45f58; stroke: #ffffff; stroke-linejoin: miter"/>
   </g>
   <g id="patch_48">
    <path d="M 472.575751 118.08 
L 480.105437 118.08 
L 480.105437 118.08 
L 472.575751 118.08 
z
" clip-path="url(#pd43a52cf29)" style="fill: #b45f58; stroke: #ffffff; stroke-linejoin: miter"/>
   </g>
   <g id="patch_49">
    <path d="M 480.105437 118.08 
L 487.635123 118.08 
L 487.635123 118.08 
L 480.105437 118.08 
z
" clip-path="url(#pd43a52cf29)" style="fill: #b45f58; stroke: #ffffff; stroke-linejoin: miter"/>
   </g>
   <g id="patch_50">
    <path d="M 487.635123 118.08 
L 495.164809 118.08 
L 495.164809 118.08 
L 487.635123 118.08 
z
" clip-path="url(#pd43a52cf29)" style="fill: #b45f58; stroke: #ffffff; stroke-linejoin: miter"/>
   </g>
   <g id="patch_51">
    <path d="M 495.164809 118.08 
L 502.694495 118.08 
L 502.694495 117.782266 
L 495.164809 117.782266 
z
" clip-path="url(#pd43a52cf29)" style="fill: #b45f58; stroke: #ffffff; stroke-linejoin: miter"/>
   </g>
   <g id="patch_52">
    <path d="M 502.694495 118.08 
L 510.224181 118.08 
L 510.224181 117.782266 
L 502.694495 117.782266 
z
" clip-path="url(#pd43a52cf29)" style="fill: #b45f58; stroke: #ffffff; stroke-linejoin: miter"/>
   </g>
   <g id="patch_53">
    <path d="M 29.7375 118.08 
L 29.7375 28.759807 
" style="fill: none; stroke: #cccccc; stroke-width: 0.75; stroke-linejoin: miter; stroke-linecap: square"/>
   </g>
   <g id="patch_54">
    <path d="M 34.7375 123.08 
L 481.1375 123.08 
" style="fill: none; stroke: #cccccc; stroke-width: 0.75; stroke-linejoin: miter; stroke-linecap: square"/>
   </g>
  </g>
 </g>
 <defs>
  <clipPath id="pd43a52cf29">
   <rect x="34.7375" y="7.2" width="446.4" height="110.88"/>
  </clipPath>
 </defs>
</svg>
