<?xml version="1.0" encoding="utf-8" standalone="no"?>
<!DOCTYPE svg PUBLIC "-//W3C//DTD SVG 1.1//EN"
  "http://www.w3.org/Graphics/SVG/1.1/DTD/svg11.dtd">
<svg xmlns:xlink="http://www.w3.org/1999/xlink" width="495.10625pt" height="150.07125pt" viewBox="0 0 495.10625 150.07125" xmlns="http://www.w3.org/2000/svg" version="1.1">
 <metadata>
  <rdf:RDF xmlns:dc="http://purl.org/dc/elements/1.1/" xmlns:cc="http://creativecommons.org/ns#" xmlns:rdf="http://www.w3.org/1999/02/22-rdf-syntax-ns#">
   <cc:Work>
    <dc:type rdf:resource="http://purl.org/dc/dcmitype/StillImage"/>
    <dc:date>2024-05-17T08:58:07.210645</dc:date>
    <dc:format>image/svg+xml</dc:format>
    <dc:creator>
     <cc:Agent>
      <dc:title>Matplotlib v3.8.4, https://matplotlib.org/</dc:title>
     </cc:Agent>
    </dc:creator>
   </cc:Work>
  </rdf:RDF>
 </metadata>
 <defs>
  <style type="text/css">*{stroke-linejoin: round; stroke-linecap: butt}</style>
 </defs>
 <g id="figure_1">
  <g id="patch_1">
   <path d="M 0 150.07125 
L 495.10625 150.07125 
L 495.10625 0 
L 0 0 
L 0 150.07125 
z
" style="fill: none"/>
  </g>
  <g id="axes_1">
   <g id="patch_2">
    <path d="M 34.7375 121.18375 
L 481.1375 121.18375 
L 481.1375 10.30375 
L 34.7375 10.30375 
L 34.7375 121.18375 
z
" style="fill: none"/>
   </g>
   <g id="matplotlib.axis_1">
    <g id="xtick_1">
     <g id="line2d_1">
      <defs>
       <path id="m8b35921d8f" d="M 0 0 
L 0 3 
" style="stroke: #cecece; stroke-width: 0.75"/>
      </defs>
      <g>
       <use xlink:href="#m8b35921d8f" x="34.7375" y="126.18375" style="fill: #cecece; stroke: #cecece; stroke-width: 0.75"/>
      </g>
     </g>
     <g id="text_1">
      <!-- 70 -->
      <g style="fill: #808080" transform="translate(30.225 141.39125) scale(0.08 -0.08)">
       <defs>
        <path id="Ubuntu-37" d="M 1043 0 
Q 1082 512 1226 1078 
Q 1370 1645 1581 2179 
Q 1792 2714 2045 3171 
Q 2298 3629 2541 3917 
L 384 3917 
L 384 4435 
L 3206 4435 
L 3206 3942 
Q 2995 3699 2739 3273 
Q 2483 2848 2256 2320 
Q 2029 1792 1865 1193 
Q 1702 595 1664 0 
L 1043 0 
z
" transform="scale(0.015625)"/>
        <path id="Ubuntu-30" d="M 320 2221 
Q 320 3334 713 3936 
Q 1107 4538 1805 4538 
Q 2502 4538 2896 3936 
Q 3290 3334 3290 2221 
Q 3290 1107 2896 505 
Q 2502 -96 1805 -96 
Q 1107 -96 713 505 
Q 320 1107 320 2221 
z
M 2662 2221 
Q 2662 2586 2620 2912 
Q 2579 3238 2480 3481 
Q 2381 3725 2214 3869 
Q 2048 4013 1805 4013 
Q 1562 4013 1395 3869 
Q 1229 3725 1129 3481 
Q 1030 3238 988 2912 
Q 947 2586 947 2221 
Q 947 1856 988 1529 
Q 1030 1203 1129 960 
Q 1229 717 1395 573 
Q 1562 429 1805 429 
Q 2048 429 2214 573 
Q 2381 717 2480 960 
Q 2579 1203 2620 1529 
Q 2662 1856 2662 2221 
z
" transform="scale(0.015625)"/>
       </defs>
       <use xlink:href="#Ubuntu-37"/>
       <use xlink:href="#Ubuntu-30" x="56.399994"/>
      </g>
     </g>
    </g>
    <g id="xtick_2">
     <g id="line2d_2">
      <g>
       <use xlink:href="#m8b35921d8f" x="124.0175" y="126.18375" style="fill: #cecece; stroke: #cecece; stroke-width: 0.75"/>
      </g>
     </g>
     <g id="text_2">
      <!-- 80 -->
      <g style="fill: #808080" transform="translate(119.505 141.39125) scale(0.08 -0.08)">
       <defs>
        <path id="Ubuntu-38" d="M 3258 1152 
Q 3258 883 3165 656 
Q 3072 429 2889 259 
Q 2707 90 2432 -3 
Q 2157 -96 1798 -96 
Q 1382 -96 1104 22 
Q 826 141 659 320 
Q 493 499 422 713 
Q 352 928 352 1120 
Q 352 1306 413 1475 
Q 474 1645 573 1792 
Q 672 1939 803 2057 
Q 934 2176 1082 2266 
Q 454 2624 454 3322 
Q 454 3565 550 3785 
Q 646 4006 822 4172 
Q 998 4339 1248 4438 
Q 1498 4538 1805 4538 
Q 2163 4538 2419 4429 
Q 2675 4320 2838 4150 
Q 3002 3981 3075 3776 
Q 3149 3571 3149 3379 
Q 3149 3194 3094 3030 
Q 3040 2867 2947 2726 
Q 2854 2586 2736 2477 
Q 2618 2368 2490 2285 
Q 3245 1926 3258 1152 
z
M 954 1114 
Q 954 998 995 873 
Q 1037 749 1139 643 
Q 1242 538 1402 467 
Q 1562 397 1805 397 
Q 2022 397 2185 461 
Q 2349 525 2451 624 
Q 2554 723 2605 851 
Q 2656 979 2656 1114 
Q 2656 1318 2579 1472 
Q 2502 1626 2358 1741 
Q 2214 1856 2012 1936 
Q 1811 2016 1555 2074 
Q 1267 1914 1110 1677 
Q 954 1440 954 1114 
z
M 2554 3386 
Q 2554 3482 2512 3597 
Q 2470 3712 2380 3811 
Q 2291 3910 2150 3977 
Q 2010 4045 1805 4045 
Q 1600 4045 1456 3981 
Q 1312 3917 1222 3817 
Q 1133 3718 1091 3600 
Q 1050 3482 1050 3366 
Q 1050 3226 1101 3085 
Q 1152 2944 1261 2822 
Q 1370 2701 1546 2605 
Q 1722 2509 1965 2451 
Q 2234 2611 2394 2825 
Q 2554 3040 2554 3386 
z
" transform="scale(0.015625)"/>
       </defs>
       <use xlink:href="#Ubuntu-38"/>
       <use xlink:href="#Ubuntu-30" x="56.399994"/>
      </g>
     </g>
    </g>
    <g id="xtick_3">
     <g id="line2d_3">
      <g>
       <use xlink:href="#m8b35921d8f" x="213.2975" y="126.18375" style="fill: #cecece; stroke: #cecece; stroke-width: 0.75"/>
      </g>
     </g>
     <g id="text_3">
      <!-- 90 -->
      <g style="fill: #808080" transform="translate(208.785 141.39125) scale(0.08 -0.08)">
       <defs>
        <path id="Ubuntu-39" d="M 3206 2662 
Q 3206 1344 2550 669 
Q 1894 -6 602 -13 
L 582 486 
Q 986 486 1309 563 
Q 1632 640 1875 809 
Q 2118 979 2281 1248 
Q 2445 1517 2522 1907 
Q 2355 1830 2144 1782 
Q 1933 1734 1709 1734 
Q 1331 1734 1068 1846 
Q 806 1958 640 2147 
Q 474 2336 400 2582 
Q 326 2829 326 3098 
Q 326 3334 409 3590 
Q 493 3846 662 4057 
Q 832 4269 1094 4403 
Q 1357 4538 1715 4538 
Q 2080 4538 2358 4410 
Q 2637 4282 2825 4038 
Q 3014 3795 3110 3446 
Q 3206 3098 3206 2662 
z
M 1773 2221 
Q 1997 2221 2195 2262 
Q 2394 2304 2579 2387 
Q 2586 2458 2586 2525 
Q 2586 2592 2586 2662 
Q 2586 2938 2547 3190 
Q 2509 3443 2409 3632 
Q 2310 3821 2144 3933 
Q 1978 4045 1722 4045 
Q 1510 4045 1363 3955 
Q 1216 3866 1120 3728 
Q 1024 3590 982 3427 
Q 941 3264 941 3110 
Q 941 2675 1149 2448 
Q 1357 2221 1773 2221 
z
" transform="scale(0.015625)"/>
       </defs>
       <use xlink:href="#Ubuntu-39"/>
       <use xlink:href="#Ubuntu-30" x="56.399994"/>
      </g>
     </g>
    </g>
    <g id="xtick_4">
     <g id="line2d_4">
      <g>
       <use xlink:href="#m8b35921d8f" x="302.5775" y="126.18375" style="fill: #cecece; stroke: #cecece; stroke-width: 0.75"/>
      </g>
     </g>
     <g id="text_4">
      <!-- 100 -->
      <g style="fill: #808080" transform="translate(295.80875 141.39125) scale(0.08 -0.08)">
       <defs>
        <path id="Ubuntu-31" d="M 595 3520 
Q 960 3661 1305 3881 
Q 1651 4102 1939 4435 
L 2362 4435 
L 2362 0 
L 1766 0 
L 1766 3610 
Q 1690 3539 1578 3462 
Q 1466 3386 1334 3315 
Q 1203 3245 1059 3181 
Q 915 3117 781 3072 
L 595 3520 
z
" transform="scale(0.015625)"/>
       </defs>
       <use xlink:href="#Ubuntu-31"/>
       <use xlink:href="#Ubuntu-30" x="56.399994"/>
       <use xlink:href="#Ubuntu-30" x="112.799988"/>
      </g>
     </g>
    </g>
    <g id="xtick_5">
     <g id="line2d_5">
      <g>
       <use xlink:href="#m8b35921d8f" x="391.8575" y="126.18375" style="fill: #cecece; stroke: #cecece; stroke-width: 0.75"/>
      </g>
     </g>
     <g id="text_5">
      <!-- 110 -->
      <g style="fill: #808080" transform="translate(385.08875 141.39125) scale(0.08 -0.08)">
       <use xlink:href="#Ubuntu-31"/>
       <use xlink:href="#Ubuntu-31" x="56.399994"/>
       <use xlink:href="#Ubuntu-30" x="112.799988"/>
      </g>
     </g>
    </g>
    <g id="xtick_6">
     <g id="line2d_6">
      <g>
       <use xlink:href="#m8b35921d8f" x="481.1375" y="126.18375" style="fill: #cecece; stroke: #cecece; stroke-width: 0.75"/>
      </g>
     </g>
     <g id="text_6">
      <!-- 120 -->
      <g style="fill: #808080" transform="translate(474.36875 141.39125) scale(0.08 -0.08)">
       <defs>
        <path id="Ubuntu-32" d="M 2989 3302 
Q 2989 3072 2896 2857 
Q 2803 2643 2649 2435 
Q 2496 2227 2304 2025 
Q 2112 1824 1920 1632 
Q 1811 1523 1667 1376 
Q 1523 1229 1395 1069 
Q 1267 909 1180 761 
Q 1094 614 1094 506 
L 3136 506 
L 3136 0 
L 448 0 
Q 442 38 442 76 
Q 442 115 442 147 
Q 442 448 541 707 
Q 640 966 800 1196 
Q 960 1427 1158 1632 
Q 1357 1837 1549 2029 
Q 1709 2182 1853 2332 
Q 1997 2483 2109 2633 
Q 2221 2784 2288 2944 
Q 2355 3104 2355 3283 
Q 2355 3475 2294 3609 
Q 2234 3744 2131 3833 
Q 2029 3923 1891 3964 
Q 1754 4006 1600 4006 
Q 1414 4006 1260 3955 
Q 1107 3904 985 3837 
Q 864 3770 781 3696 
Q 698 3622 653 3584 
L 358 4006 
Q 416 4070 531 4163 
Q 646 4256 806 4339 
Q 966 4422 1164 4480 
Q 1363 4538 1594 4538 
Q 2291 4538 2640 4214 
Q 2989 3891 2989 3302 
z
" transform="scale(0.015625)"/>
       </defs>
       <use xlink:href="#Ubuntu-31"/>
       <use xlink:href="#Ubuntu-32" x="56.399994"/>
       <use xlink:href="#Ubuntu-30" x="112.799988"/>
      </g>
     </g>
    </g>
   </g>
   <g id="matplotlib.axis_2">
    <g id="ytick_1">
     <g id="line2d_7">
      <defs>
       <path id="m1b9bc4cc7f" d="M 0 0 
L -3 0 
" style="stroke: #cecece; stroke-width: 0.75"/>
      </defs>
      <g>
       <use xlink:href="#m1b9bc4cc7f" x="29.7375" y="121.18375" style="fill: #cecece; stroke: #cecece; stroke-width: 0.75"/>
      </g>
     </g>
     <g id="text_7">
      <!-- 0 -->
      <g style="fill: #808080" transform="translate(16.225 124.2875) scale(0.08 -0.08)">
       <use xlink:href="#Ubuntu-30"/>
      </g>
     </g>
    </g>
    <g id="ytick_2">
     <g id="line2d_8">
      <g>
       <use xlink:href="#m1b9bc4cc7f" x="29.7375" y="102.70375" style="fill: #cecece; stroke: #cecece; stroke-width: 0.75"/>
      </g>
     </g>
     <g id="text_8">
      <!-- 50 -->
      <g style="fill: #808080" transform="translate(11.7125 105.8075) scale(0.08 -0.08)">
       <defs>
        <path id="Ubuntu-35" d="M 1274 2726 
Q 2240 2688 2691 2304 
Q 3142 1920 3142 1261 
Q 3142 966 3043 716 
Q 2944 467 2742 288 
Q 2541 109 2233 6 
Q 1926 -96 1504 -96 
Q 1338 -96 1165 -70 
Q 992 -45 845 -6 
Q 698 32 582 70 
Q 467 109 416 134 
L 531 653 
Q 640 602 886 518 
Q 1133 435 1491 435 
Q 1779 435 1974 499 
Q 2170 563 2291 672 
Q 2413 781 2467 925 
Q 2522 1069 2522 1229 
Q 2522 1472 2438 1661 
Q 2355 1850 2144 1978 
Q 1933 2106 1581 2173 
Q 1229 2240 691 2240 
Q 730 2554 752 2829 
Q 774 3104 793 3366 
Q 813 3629 825 3888 
Q 838 4147 851 4435 
L 2989 4435 
L 2989 3930 
L 1370 3930 
Q 1363 3834 1350 3670 
Q 1338 3507 1325 3331 
Q 1312 3155 1299 2988 
Q 1286 2822 1274 2726 
z
" transform="scale(0.015625)"/>
       </defs>
       <use xlink:href="#Ubuntu-35"/>
       <use xlink:href="#Ubuntu-30" x="56.399994"/>
      </g>
     </g>
    </g>
    <g id="ytick_3">
     <g id="line2d_9">
      <g>
       <use xlink:href="#m1b9bc4cc7f" x="29.7375" y="84.22375" style="fill: #cecece; stroke: #cecece; stroke-width: 0.75"/>
      </g>
     </g>
     <g id="text_9">
      <!-- 100 -->
      <g style="fill: #808080" transform="translate(7.2 87.3275) scale(0.08 -0.08)">
       <use xlink:href="#Ubuntu-31"/>
       <use xlink:href="#Ubuntu-30" x="56.399994"/>
       <use xlink:href="#Ubuntu-30" x="112.799988"/>
      </g>
     </g>
    </g>
    <g id="ytick_4">
     <g id="line2d_10">
      <g>
       <use xlink:href="#m1b9bc4cc7f" x="29.7375" y="65.74375" style="fill: #cecece; stroke: #cecece; stroke-width: 0.75"/>
      </g>
     </g>
     <g id="text_10">
      <!-- 150 -->
      <g style="fill: #808080" transform="translate(7.2 68.8475) scale(0.08 -0.08)">
       <use xlink:href="#Ubuntu-31"/>
       <use xlink:href="#Ubuntu-35" x="56.399994"/>
       <use xlink:href="#Ubuntu-30" x="112.799988"/>
      </g>
     </g>
    </g>
    <g id="ytick_5">
     <g id="line2d_11">
      <g>
       <use xlink:href="#m1b9bc4cc7f" x="29.7375" y="47.26375" style="fill: #cecece; stroke: #cecece; stroke-width: 0.75"/>
      </g>
     </g>
     <g id="text_11">
      <!-- 200 -->
      <g style="fill: #808080" transform="translate(7.2 50.3675) scale(0.08 -0.08)">
       <use xlink:href="#Ubuntu-32"/>
       <use xlink:href="#Ubuntu-30" x="56.399994"/>
       <use xlink:href="#Ubuntu-30" x="112.799988"/>
      </g>
     </g>
    </g>
    <g id="ytick_6">
     <g id="line2d_12">
      <g>
       <use xlink:href="#m1b9bc4cc7f" x="29.7375" y="28.78375" style="fill: #cecece; stroke: #cecece; stroke-width: 0.75"/>
      </g>
     </g>
     <g id="text_12">
      <!-- 250 -->
      <g style="fill: #808080" transform="translate(7.2 31.8875) scale(0.08 -0.08)">
       <use xlink:href="#Ubuntu-32"/>
       <use xlink:href="#Ubuntu-35" x="56.399994"/>
       <use xlink:href="#Ubuntu-30" x="112.799988"/>
      </g>
     </g>
    </g>
    <g id="ytick_7">
     <g id="line2d_13">
      <g>
       <use xlink:href="#m1b9bc4cc7f" x="29.7375" y="10.30375" style="fill: #cecece; stroke: #cecece; stroke-width: 0.75"/>
      </g>
     </g>
     <g id="text_13">
      <!-- 300 -->
      <g style="fill: #808080" transform="translate(7.2 13.4075) scale(0.08 -0.08)">
       <defs>
        <path id="Ubuntu-33" d="M 1446 435 
Q 2016 435 2262 659 
Q 2509 883 2509 1261 
Q 2509 1504 2406 1670 
Q 2304 1837 2137 1936 
Q 1971 2035 1750 2076 
Q 1530 2118 1299 2118 
L 1146 2118 
L 1146 2605 
L 1357 2605 
Q 1517 2605 1686 2637 
Q 1856 2669 1997 2752 
Q 2138 2835 2227 2979 
Q 2317 3123 2317 3341 
Q 2317 3520 2253 3648 
Q 2189 3776 2083 3859 
Q 1978 3942 1840 3977 
Q 1702 4013 1549 4013 
Q 1242 4013 1027 3923 
Q 813 3834 666 3738 
L 435 4192 
Q 512 4243 630 4304 
Q 749 4365 896 4416 
Q 1043 4467 1212 4502 
Q 1382 4538 1568 4538 
Q 1920 4538 2176 4451 
Q 2432 4365 2598 4208 
Q 2765 4051 2848 3836 
Q 2931 3622 2931 3373 
Q 2931 3027 2732 2780 
Q 2534 2534 2253 2406 
Q 2426 2355 2586 2259 
Q 2746 2163 2864 2016 
Q 2982 1869 3056 1677 
Q 3130 1485 3130 1248 
Q 3130 960 3030 713 
Q 2931 467 2723 288 
Q 2515 109 2201 6 
Q 1888 -96 1459 -96 
Q 1293 -96 1117 -70 
Q 941 -45 787 -6 
Q 634 32 518 70 
Q 403 109 352 134 
L 467 653 
Q 576 602 829 518 
Q 1082 435 1446 435 
z
" transform="scale(0.015625)"/>
       </defs>
       <use xlink:href="#Ubuntu-33"/>
       <use xlink:href="#Ubuntu-30" x="56.399994"/>
       <use xlink:href="#Ubuntu-30" x="112.799988"/>
      </g>
     </g>
    </g>
   </g>
   <g id="patch_3">
    <path d="M 106.810794 121.18375 
L 112.980828 121.18375 
L 112.980828 119.70535 
L 106.810794 119.70535 
z
" clip-path="url(#pdca35be2cd)" style="fill: #5980a1; stroke: #ffffff; stroke-linejoin: miter"/>
   </g>
   <g id="patch_4">
    <path d="M 112.980828 121.18375 
L 119.150862 121.18375 
L 119.150862 121.18375 
L 112.980828 121.18375 
z
" clip-path="url(#pdca35be2cd)" style="fill: #5980a1; stroke: #ffffff; stroke-linejoin: miter"/>
   </g>
   <g id="patch_5">
    <path d="M 119.150862 121.18375 
L 125.320896 121.18375 
L 125.320896 120.07495 
L 119.150862 120.07495 
z
" clip-path="url(#pdca35be2cd)" style="fill: #5980a1; stroke: #ffffff; stroke-linejoin: miter"/>
   </g>
   <g id="patch_6">
    <path d="M 125.320896 121.18375 
L 131.49093 121.18375 
L 131.49093 120.07495 
L 125.320896 120.07495 
z
" clip-path="url(#pdca35be2cd)" style="fill: #5980a1; stroke: #ffffff; stroke-linejoin: miter"/>
   </g>
   <g id="patch_7">
    <path d="M 131.49093 121.18375 
L 137.660964 121.18375 
L 137.660964 120.07495 
L 131.49093 120.07495 
z
" clip-path="url(#pdca35be2cd)" style="fill: #5980a1; stroke: #ffffff; stroke-linejoin: miter"/>
   </g>
   <g id="patch_8">
    <path d="M 137.660964 121.18375 
L 143.830998 121.18375 
L 143.830998 116.74855 
L 137.660964 116.74855 
z
" clip-path="url(#pdca35be2cd)" style="fill: #5980a1; stroke: #ffffff; stroke-linejoin: miter"/>
   </g>
   <g id="patch_9">
    <path d="M 143.830998 121.18375 
L 150.001032 121.18375 
L 150.001032 117.85735 
L 143.830998 117.85735 
z
" clip-path="url(#pdca35be2cd)" style="fill: #5980a1; stroke: #ffffff; stroke-linejoin: miter"/>
   </g>
   <g id="patch_10">
    <path d="M 150.001032 121.18375 
L 156.171066 121.18375 
L 156.171066 112.31335 
L 150.001032 112.31335 
z
" clip-path="url(#pdca35be2cd)" style="fill: #5980a1; stroke: #ffffff; stroke-linejoin: miter"/>
   </g>
   <g id="patch_11">
    <path d="M 156.171066 121.18375 
L 162.3411 121.18375 
L 162.3411 110.09575 
L 156.171066 110.09575 
z
" clip-path="url(#pdca35be2cd)" style="fill: #5980a1; stroke: #ffffff; stroke-linejoin: miter"/>
   </g>
   <g id="patch_12">
    <path d="M 162.3411 121.18375 
L 168.511133 121.18375 
L 168.511133 106.76935 
L 162.3411 106.76935 
z
" clip-path="url(#pdca35be2cd)" style="fill: #5980a1; stroke: #ffffff; stroke-linejoin: miter"/>
   </g>
   <g id="patch_13">
    <path d="M 168.511133 121.18375 
L 174.681167 121.18375 
L 174.681167 106.76935 
L 168.511133 106.76935 
z
" clip-path="url(#pdca35be2cd)" style="fill: #5980a1; stroke: #ffffff; stroke-linejoin: miter"/>
   </g>
   <g id="patch_14">
    <path d="M 174.681167 121.18375 
L 180.851201 121.18375 
L 180.851201 101.22535 
L 174.681167 101.22535 
z
" clip-path="url(#pdca35be2cd)" style="fill: #5980a1; stroke: #ffffff; stroke-linejoin: miter"/>
   </g>
   <g id="patch_15">
    <path d="M 180.851201 121.18375 
L 187.021235 121.18375 
L 187.021235 93.83335 
L 180.851201 93.83335 
z
" clip-path="url(#pdca35be2cd)" style="fill: #5980a1; stroke: #ffffff; stroke-linejoin: miter"/>
   </g>
   <g id="patch_16">
    <path d="M 187.021235 121.18375 
L 193.191269 121.18375 
L 193.191269 84.59335 
L 187.021235 84.59335 
z
" clip-path="url(#pdca35be2cd)" style="fill: #5980a1; stroke: #ffffff; stroke-linejoin: miter"/>
   </g>
   <g id="patch_17">
    <path d="M 193.191269 121.18375 
L 199.361303 121.18375 
L 199.361303 78.31015 
L 193.191269 78.31015 
z
" clip-path="url(#pdca35be2cd)" style="fill: #5980a1; stroke: #ffffff; stroke-linejoin: miter"/>
   </g>
   <g id="patch_18">
    <path d="M 199.361303 121.18375 
L 205.531337 121.18375 
L 205.531337 73.13575 
L 199.361303 73.13575 
z
" clip-path="url(#pdca35be2cd)" style="fill: #5980a1; stroke: #ffffff; stroke-linejoin: miter"/>
   </g>
   <g id="patch_19">
    <path d="M 205.531337 121.18375 
L 211.701371 121.18375 
L 211.701371 71.65735 
L 205.531337 71.65735 
z
" clip-path="url(#pdca35be2cd)" style="fill: #5980a1; stroke: #ffffff; stroke-linejoin: miter"/>
   </g>
   <g id="patch_20">
    <path d="M 211.701371 121.18375 
L 217.871405 121.18375 
L 217.871405 65.37415 
L 211.701371 65.37415 
z
" clip-path="url(#pdca35be2cd)" style="fill: #5980a1; stroke: #ffffff; stroke-linejoin: miter"/>
   </g>
   <g id="patch_21">
    <path d="M 217.871405 121.18375 
L 224.041439 121.18375 
L 224.041439 53.91655 
L 217.871405 53.91655 
z
" clip-path="url(#pdca35be2cd)" style="fill: #5980a1; stroke: #ffffff; stroke-linejoin: miter"/>
   </g>
   <g id="patch_22">
    <path d="M 224.041439 121.18375 
L 230.211473 121.18375 
L 230.211473 44.67655 
L 224.041439 44.67655 
z
" clip-path="url(#pdca35be2cd)" style="fill: #5980a1; stroke: #ffffff; stroke-linejoin: miter"/>
   </g>
   <g id="patch_23">
    <path d="M 230.211473 121.18375 
L 236.381507 121.18375 
L 236.381507 32.84935 
L 230.211473 32.84935 
z
" clip-path="url(#pdca35be2cd)" style="fill: #5980a1; stroke: #ffffff; stroke-linejoin: miter"/>
   </g>
   <g id="patch_24">
    <path d="M 236.381507 121.18375 
L 242.551541 121.18375 
L 242.551541 23.23975 
L 236.381507 23.23975 
z
" clip-path="url(#pdca35be2cd)" style="fill: #5980a1; stroke: #ffffff; stroke-linejoin: miter"/>
   </g>
   <g id="patch_25">
    <path d="M 242.551541 121.18375 
L 248.721575 121.18375 
L 248.721575 21.39175 
L 242.551541 21.39175 
z
" clip-path="url(#pdca35be2cd)" style="fill: #5980a1; stroke: #ffffff; stroke-linejoin: miter"/>
   </g>
   <g id="patch_26">
    <path d="M 248.721575 121.18375 
L 254.891609 121.18375 
L 254.891609 36.17575 
L 248.721575 36.17575 
z
" clip-path="url(#pdca35be2cd)" style="fill: #5980a1; stroke: #ffffff; stroke-linejoin: miter"/>
   </g>
   <g id="patch_27">
    <path d="M 254.891609 121.18375 
L 261.061643 121.18375 
L 261.061643 20.65255 
L 254.891609 20.65255 
z
" clip-path="url(#pdca35be2cd)" style="fill: #5980a1; stroke: #ffffff; stroke-linejoin: miter"/>
   </g>
   <g id="patch_28">
    <path d="M 261.061643 121.18375 
L 267.231677 121.18375 
L 267.231677 27.30535 
L 261.061643 27.30535 
z
" clip-path="url(#pdca35be2cd)" style="fill: #5980a1; stroke: #ffffff; stroke-linejoin: miter"/>
   </g>
   <g id="patch_29">
    <path d="M 267.231677 121.18375 
L 273.401711 121.18375 
L 273.401711 22.50055 
L 267.231677 22.50055 
z
" clip-path="url(#pdca35be2cd)" style="fill: #5980a1; stroke: #ffffff; stroke-linejoin: miter"/>
   </g>
   <g id="patch_30">
    <path d="M 273.401711 121.18375 
L 279.571745 121.18375 
L 279.571745 27.30535 
L 273.401711 27.30535 
z
" clip-path="url(#pdca35be2cd)" style="fill: #5980a1; stroke: #ffffff; stroke-linejoin: miter"/>
   </g>
   <g id="patch_31">
    <path d="M 279.571745 121.18375 
L 285.741779 121.18375 
L 285.741779 25.82695 
L 279.571745 25.82695 
z
" clip-path="url(#pdca35be2cd)" style="fill: #5980a1; stroke: #ffffff; stroke-linejoin: miter"/>
   </g>
   <g id="patch_32">
    <path d="M 285.741779 121.18375 
L 291.911813 121.18375 
L 291.911813 31.74055 
L 285.741779 31.74055 
z
" clip-path="url(#pdca35be2cd)" style="fill: #5980a1; stroke: #ffffff; stroke-linejoin: miter"/>
   </g>
   <g id="patch_33">
    <path d="M 291.911813 121.18375 
L 298.081847 121.18375 
L 298.081847 55.39495 
L 291.911813 55.39495 
z
" clip-path="url(#pdca35be2cd)" style="fill: #5980a1; stroke: #ffffff; stroke-linejoin: miter"/>
   </g>
   <g id="patch_34">
    <path d="M 298.081847 121.18375 
L 304.251881 121.18375 
L 304.251881 56.87335 
L 298.081847 56.87335 
z
" clip-path="url(#pdca35be2cd)" style="fill: #5980a1; stroke: #ffffff; stroke-linejoin: miter"/>
   </g>
   <g id="patch_35">
    <path d="M 304.251881 121.18375 
L 310.421915 121.18375 
L 310.421915 66.85255 
L 304.251881 66.85255 
z
" clip-path="url(#pdca35be2cd)" style="fill: #5980a1; stroke: #ffffff; stroke-linejoin: miter"/>
   </g>
   <g id="patch_36">
    <path d="M 310.421915 121.18375 
L 316.591949 121.18375 
L 316.591949 74.98375 
L 310.421915 74.98375 
z
" clip-path="url(#pdca35be2cd)" style="fill: #5980a1; stroke: #ffffff; stroke-linejoin: miter"/>
   </g>
   <g id="patch_37">
    <path d="M 316.591949 121.18375 
L 322.761983 121.18375 
L 322.761983 84.22375 
L 316.591949 84.22375 
z
" clip-path="url(#pdca35be2cd)" style="fill: #5980a1; stroke: #ffffff; stroke-linejoin: miter"/>
   </g>
   <g id="patch_38">
    <path d="M 322.761983 121.18375 
L 328.932017 121.18375 
L 328.932017 84.59335 
L 322.761983 84.59335 
z
" clip-path="url(#pdca35be2cd)" style="fill: #5980a1; stroke: #ffffff; stroke-linejoin: miter"/>
   </g>
   <g id="patch_39">
    <path d="M 328.932017 121.18375 
L 335.102051 121.18375 
L 335.102051 91.61575 
L 328.932017 91.61575 
z
" clip-path="url(#pdca35be2cd)" style="fill: #5980a1; stroke: #ffffff; stroke-linejoin: miter"/>
   </g>
   <g id="patch_40">
    <path d="M 335.102051 121.18375 
L 341.272085 121.18375 
L 341.272085 101.59495 
L 335.102051 101.59495 
z
" clip-path="url(#pdca35be2cd)" style="fill: #5980a1; stroke: #ffffff; stroke-linejoin: miter"/>
   </g>
   <g id="patch_41">
    <path d="M 341.272085 121.18375 
L 347.442119 121.18375 
L 347.442119 103.44295 
L 341.272085 103.44295 
z
" clip-path="url(#pdca35be2cd)" style="fill: #5980a1; stroke: #ffffff; stroke-linejoin: miter"/>
   </g>
   <g id="patch_42">
    <path d="M 347.442119 121.18375 
L 353.612153 121.18375 
L 353.612153 110.46535 
L 347.442119 110.46535 
z
" clip-path="url(#pdca35be2cd)" style="fill: #5980a1; stroke: #ffffff; stroke-linejoin: miter"/>
   </g>
   <g id="patch_43">
    <path d="M 353.612153 121.18375 
L 359.782186 121.18375 
L 359.782186 108.98695 
L 353.612153 108.98695 
z
" clip-path="url(#pdca35be2cd)" style="fill: #5980a1; stroke: #ffffff; stroke-linejoin: miter"/>
   </g>
   <g id="patch_44">
    <path d="M 359.782186 121.18375 
L 365.95222 121.18375 
L 365.95222 112.31335 
L 359.782186 112.31335 
z
" clip-path="url(#pdca35be2cd)" style="fill: #5980a1; stroke: #ffffff; stroke-linejoin: miter"/>
   </g>
   <g id="patch_45">
    <path d="M 365.95222 121.18375 
L 372.122254 121.18375 
L 372.122254 114.16135 
L 365.95222 114.16135 
z
" clip-path="url(#pdca35be2cd)" style="fill: #5980a1; stroke: #ffffff; stroke-linejoin: miter"/>
   </g>
   <g id="patch_46">
    <path d="M 372.122254 121.18375 
L 378.292288 121.18375 
L 378.292288 118.96615 
L 372.122254 118.96615 
z
" clip-path="url(#pdca35be2cd)" style="fill: #5980a1; stroke: #ffffff; stroke-linejoin: miter"/>
   </g>
   <g id="patch_47">
    <path d="M 378.292288 121.18375 
L 384.462322 121.18375 
L 384.462322 118.96615 
L 378.292288 118.96615 
z
" clip-path="url(#pdca35be2cd)" style="fill: #5980a1; stroke: #ffffff; stroke-linejoin: miter"/>
   </g>
   <g id="patch_48">
    <path d="M 384.462322 121.18375 
L 390.632356 121.18375 
L 390.632356 118.59655 
L 384.462322 118.59655 
z
" clip-path="url(#pdca35be2cd)" style="fill: #5980a1; stroke: #ffffff; stroke-linejoin: miter"/>
   </g>
   <g id="patch_49">
    <path d="M 390.632356 121.18375 
L 396.80239 121.18375 
L 396.80239 120.07495 
L 390.632356 120.07495 
z
" clip-path="url(#pdca35be2cd)" style="fill: #5980a1; stroke: #ffffff; stroke-linejoin: miter"/>
   </g>
   <g id="patch_50">
    <path d="M 396.80239 121.18375 
L 402.972424 121.18375 
L 402.972424 120.07495 
L 396.80239 120.07495 
z
" clip-path="url(#pdca35be2cd)" style="fill: #5980a1; stroke: #ffffff; stroke-linejoin: miter"/>
   </g>
   <g id="patch_51">
    <path d="M 402.972424 121.18375 
L 409.142458 121.18375 
L 409.142458 120.81415 
L 402.972424 120.81415 
z
" clip-path="url(#pdca35be2cd)" style="fill: #5980a1; stroke: #ffffff; stroke-linejoin: miter"/>
   </g>
   <g id="patch_52">
    <path d="M 409.142458 121.18375 
L 415.312492 121.18375 
L 415.312492 120.81415 
L 409.142458 120.81415 
z
" clip-path="url(#pdca35be2cd)" style="fill: #5980a1; stroke: #ffffff; stroke-linejoin: miter"/>
   </g>
   <g id="patch_53">
    <path d="M 29.7375 121.18375 
L 29.7375 10.30375 
" style="fill: none; stroke: #cccccc; stroke-width: 0.75; stroke-linejoin: miter; stroke-linecap: square"/>
   </g>
   <g id="patch_54">
    <path d="M 34.7375 126.18375 
L 481.1375 126.18375 
" style="fill: none; stroke: #cccccc; stroke-width: 0.75; stroke-linejoin: miter; stroke-linecap: square"/>
   </g>
  </g>
 </g>
 <defs>
  <clipPath id="pdca35be2cd">
   <rect x="34.7375" y="10.30375" width="446.4" height="110.88"/>
  </clipPath>
 </defs>
</svg>
